<?xml version="1.0" encoding="utf-8"?>
<!-- Generator: Adobe Illustrator 27.5.0, SVG Export Plug-In . SVG Version: 6.00 Build 0)  -->
<svg version="1.1" xmlns="http://www.w3.org/2000/svg" xmlns:xlink="http://www.w3.org/1999/xlink" x="0px" y="0px"
	 viewBox="0 0 750 500" style="enable-background:new 0 0 750 500;" xml:space="preserve">
<g id="BACKGROUND">
	<rect style="fill:#F9F7F7;" width="750" height="500"/>
	<g style="opacity:0.42;">
		<path style="fill:#DBE2EF;" d="M545.608,120.398c2.707,6.656,10.151,10.234,17.284,11.098c7.133,0.863,14.347-0.365,21.531-0.236
			c16.184,0.29,32.101,7.862,42.537,20.235c4.539,5.382,9.229,12.238,16.268,12.283c5.632,0.036,10.411-4.836,11.868-10.277
			c1.457-5.441,0.25-11.242-1.567-16.573c-7.353-21.577-25.182-39.308-46.799-46.542c6.797-1.409,11.153-8.965,10.445-15.87
			c-0.708-6.906-5.492-12.871-11.302-16.67c-5.81-3.799-12.6-5.762-19.293-7.602c-6.172-1.696-14.164-2.711-17.705,2.621
			c-2.789,4.201-0.893,9.897,1.744,14.195C591.06,100.37,532.66,88.558,545.608,120.398z"/>
		<path style="fill:#DBE2EF;" d="M82.992,462.643c-13.06-17.778-17.858-41.379-12.774-62.844
			c5.083-21.466,19.956-40.408,39.602-50.441c15.436-7.882,33.929-10.783,46.281-22.942c10.937-10.766,14.849-26.937,14.939-42.284
			c0.09-15.347-3.124-30.512-4.193-45.822c-2.709-38.824,9.331-79.127,35.552-107.886c26.22-28.759,66.938-44.636,105.276-37.942
			c46.468,8.113,82.936,45.973,128.792,57.033c26.459,6.382,54.149,3.378,81.251,0.877c27.103-2.501,55.086-4.371,80.954,4.094
			c25.868,8.465,49.379,29.734,52.348,56.79c3.959,36.071-28.13,72.448-14.215,105.961c5.16,12.427,15.837,21.561,23.892,32.339
			c24.704,33.055,21.255,83.991-7.68,113.415L82.992,462.643z"/>
		<path style="fill:#DBE2EF;" d="M148.647,292.491c-6.325,16.305-20.214,29.492-36.824,34.965
			c-9.092,2.996-19.484,3.635-27.912-0.905c-8.428-4.539-13.833-15.303-10.156-24.142c3.351-8.056,12.416-11.926,18.272-18.393
			c5.764-6.365,8.199-15.021,9.9-23.438c1.701-8.417,2.905-17.106,6.831-24.744c3.926-7.638,11.334-14.189,19.921-14.265
			C155.02,221.339,154.454,277.524,148.647,292.491z"/>
		<path style="fill:#DBE2EF;" d="M653.405,287.175c0.127,7.718,2.239,15.605,7.128,21.579c4.889,5.974,12.819,9.715,20.431,8.432
			c7.612-1.283,14.223-8.244,13.987-15.959c-0.205-6.696-5.063-12.719-4.691-19.408c0.239-4.297,2.632-8.228,3.04-12.513
			c0.787-8.256-6.704-15.878-14.959-16.671C658.738,250.752,653.154,271.909,653.405,287.175z"/>
	</g>
</g>
<g id="OBJECTS">
	<g>
		<g>
			<g>
				<g>
					<path style="fill:#005C52;" d="M286.59,385.741c-1.351-5.644-2.796-11.517-4.074-17.493c-1.583,1.403-3.21,2.774-4.714,4.244
						c-11.333,11.083-9.861,60.651-9.861,60.651s0.943-0.499,2.515-1.362c5.575-12.863,11.44-26.027,18.036-38.695
						C287.809,390.639,287.175,388.186,286.59,385.741z"/>
					<path style="fill:#005C52;" d="M289.288,361.918c1.307,7.256,2.651,14.508,4.361,21.681
						c7.299-12.905,15.506-25.057,25.145-35.533c-0.824-4.046-1.581-8.108-2.266-12.186c-1.022-6.082-2.4-12.441-3.439-18.855
						c-9.203,4.396-16.848,11.794-19.441,21.508c-1.953,7.319-1.029,15.507-4.589,22.137
						C289.137,361.086,289.213,361.502,289.288,361.918z"/>
					<path style="fill:#005C52;" d="M325.228,313.124c-1.516,0.267-3.027,0.626-4.526,1.046c0.128,0.766,0.255,1.534,0.378,2.309
						c1.216,7.646,2.121,15.32,3.515,22.942c0.14,0.767,0.294,1.531,0.44,2.298c9.629-9.144,20.604-16.652,33.342-21.769
						c2.684-2.096,5.831-3.435,9.26-3.495C353.663,313.558,339.282,310.651,325.228,313.124z"/>
					<path style="fill:#00796C;" d="M341.686,369.587c3.163-4.831,4.593-10.859,5.342-16.681c0.98-7.615,1.11-15.473,3.878-22.635
						c1.532-3.964,4.144-7.725,7.47-10.322c-22.304,8.96-39.196,25.252-52.927,44.827
						C317.625,364.754,329.901,366.329,341.686,369.587z"/>
					<path style="fill:#00796C;" d="M279.172,412.224c-3.012,6.528-5.908,13.079-8.715,19.557
						c5.408-2.971,18.431-10.363,27.556-17.463C291.789,413.177,285.504,412.449,279.172,412.224z"/>
					<path style="fill:#00796C;" d="M304.79,408.205c0.875-0.983,1.593-1.929,2.095-2.819c3.872-6.86,6.196-14.906,12.106-20.115
						c4.845-4.27,11.464-6.033,16.757-9.655c-11.565-2.746-23.548-3.822-35.283-3.386c-6.625,10.38-12.483,21.492-17.901,32.788
						C290.049,405.48,297.463,406.601,304.79,408.205z"/>
					<path style="fill:#002B2B;" d="M312.699,349.78c-27.19,33.095-45.527,72.653-53.563,114.403h4.743
						c8.013-40.809,26.023-79.384,52.682-111.833C318.46,350.039,314.576,347.496,312.699,349.78z"/>
				</g>
			</g>
			<g>
				<g>
					<path style="fill:#00796C;" d="M200.419,359.497c-3.3-1.858-6.912-3.22-10.57-3.997c-11.106-2.358-22.622-0.447-33.813,1.468
						c2.725,0.143,5.19,1.296,7.266,3.037c14.093,6.243,25.254,16.18,34.489,28.147
						C199.315,378.671,200.203,369.091,200.419,359.497z"/>
					<path style="fill:#00796C;" d="M225.906,404.026c-2.884-3.025-6.409-5.566-8.394-9.244c-2.945-5.458-1.873-12.154-3.261-18.199
						c-1.031-4.489-3.428-8.405-6.637-11.646c-0.497,10.621-1.786,21.219-3.822,31.659c10.93,16.651,18.979,36.11,26.304,54.776
						c1.226,0.73,1.962,1.153,1.962,1.153S234.609,413.154,225.906,404.026z"/>
					<path style="fill:#005C52;" d="M171.408,386.526c0.568,6.082,2.043,12.484,6.408,16.757c3.387,3.316,8.072,4.939,12.04,7.508
						c7.348,0.089,14.71-0.136,22.076-0.415c-11.548-21.634-26.474-40.557-48.629-50.371c2.572,2.158,4.545,5.221,5.652,8.415
						C170.956,374.192,170.84,380.443,171.408,386.526z"/>
					<path style="fill:#005C52;" d="M196.626,418.152c1.985,3.557,3.348,7.576,5.24,11.219c3.593,6.921,22.127,18.365,28.231,22.002
						c-4.407-11.231-9.076-22.75-14.475-33.773C209.286,417.848,202.952,418.082,196.626,418.152z"/>
					<path style="fill:#002B2B;" d="M233.157,464.183h3.827c-8.021-31.344-23.424-60.669-45.089-85.036
						c-1.563-1.758-4.572,0.385-2.99,2.164C210.091,405.139,225.186,433.648,233.157,464.183z"/>
				</g>
			</g>
			<g>
				<g>
					<path style="fill:#005C52;" d="M257.453,304.683c3.445-11.192,7.746-21.935,13.201-31.966
						c-4.345-9.909-7.787-20.302-10.195-30.773c-0.796,0.405-1.589,0.817-2.372,1.254c-8.522,4.76-16.094,11.964-20.789,20.439
						C242.31,278.056,249.277,291.739,257.453,304.683z"/>
					<path style="fill:#005C52;" d="M235.823,311.908c-0.732,3.713-2.453,7.08-4.314,10.402
						c4.994,8.072,10.718,15.773,16.949,23.029c1.624-10.625,3.67-21.126,6.341-31.322c-8.444-12.661-15.848-26.003-21.513-40.083
						c-0.792,3.374-1.131,6.852-0.868,10.389C233.109,293.621,237.626,302.76,235.823,311.908z"/>
					<path style="fill:#005C52;" d="M227.518,329.783c-7.389,17.89,13.086,71.518,13.086,71.518s0.869-0.934,2.305-2.529
						c1.066-14.429,2.296-29.194,4.198-43.831C239.927,347.086,233.299,338.656,227.518,329.783z"/>
					<path style="fill:#005C52;" d="M267.227,238.91c1.932,8.765,4.65,17.497,8.053,25.923c6.255-9.897,13.783-18.987,22.935-26.968
						c2.207-3.423,5.235-6.174,9.084-7.591C293.733,232.057,279.871,233.946,267.227,238.91z"/>
					<path style="fill:#00796C;" d="M298.986,282.826c-0.187-1.1-0.395-2.192-0.622-3.271c-1.889-8.987-4.834-17.914-4.525-27.092
						c0.171-5.079,1.642-10.356,4.377-14.598c-17.324,15.109-28.887,34.156-36.824,55.245
						C273.581,288.437,286.184,285.168,298.986,282.826z"/>
					<path style="fill:#00796C;" d="M281.356,324.206c4.64-6.236,11.537-10.862,15.255-17.737
						c2.704-4.999,3.453-10.676,3.186-16.407c-13.813,2.527-27.379,6.181-40.319,11.674c-0.408,0.173-0.807,0.253-1.199,0.291
						c-3.083,9.573-5.509,19.497-7.463,29.609C260.939,328.901,271.108,326.318,281.356,324.206z"/>
					<path style="fill:#00796C;" d="M249.378,339.657c-3.293,19.556-5.03,39.641-6.469,59.115
						c7.148-7.937,28.678-32.611,30.762-44.147c1.317-7.288,1.274-15.025,3.438-21.99
						C267.815,334.714,258.582,337.14,249.378,339.657z"/>
					<path style="fill:#002B2B;" d="M249.766,464.183c-12.37-61.88-5.08-126.619,21.152-184.339c1.48-3.257-3.793-4.996-5.256-1.778
						c-26.432,58.159-33.845,123.675-21.555,186.117H249.766z"/>
				</g>
			</g>
		</g>
	</g>
	<g>
		<path d="M559.68,73.751v373.73c0,6.83-5.54,12.36-12.37,12.36h-246.6c-6.83,0-12.37-5.53-12.37-12.36V73.751
			c0-6.83,5.54-12.36,12.37-12.36h246.6C554.14,61.391,559.68,66.921,559.68,73.751z"/>
		<path style="fill:#DBE2EF;" d="M535.324,440.471H312.7c-6.166,0-11.164-4.999-11.164-11.164V91.926
			c0-6.166,4.998-11.165,11.164-11.165h222.624c6.166,0,11.164,4.999,11.164,11.165v337.38
			C546.488,435.472,541.49,440.471,535.324,440.471z"/>
		<g>
			<path style="fill:#FFFFFF;" d="M336.91,298.688H325.8c-2.447,0-4.431-1.984-4.431-4.431v-11.111c0-2.447,1.984-4.431,4.431-4.431
				h11.111c2.447,0,4.431,1.984,4.431,4.431v11.111C341.341,296.704,339.358,298.688,336.91,298.688z"/>
			<g>
				<path style="fill:#FFFFFF;" d="M528.629,286.547H368.347c-1.43,0-2.59-1.16-2.59-2.59l0,0c0-1.43,1.16-2.59,2.59-2.59h160.282
					c1.43,0,2.59,1.16,2.59,2.59l0,0C531.219,285.387,530.059,286.547,528.629,286.547z"/>
				<path style="fill:#FFFFFF;" d="M447.163,296.035h-78.816c-1.43,0-2.59-1.16-2.59-2.59l0,0c0-1.43,1.16-2.59,2.59-2.59h78.816
					c1.43,0,2.59,1.16,2.59,2.59l0,0C449.753,294.876,448.593,296.035,447.163,296.035z"/>
			</g>
		</g>
		<g>
			<path style="fill:#FFFFFF;" d="M336.91,354.648H325.8c-2.447,0-4.431-1.984-4.431-4.431v-11.111c0-2.447,1.984-4.431,4.431-4.431
				h11.111c2.447,0,4.431,1.984,4.431,4.431v11.111C341.341,352.664,339.358,354.648,336.91,354.648z"/>
			<g>
				<path style="fill:#FFFFFF;" d="M528.629,342.507H368.347c-1.43,0-2.59-1.159-2.59-2.59l0,0c0-1.43,1.16-2.59,2.59-2.59h160.282
					c1.43,0,2.59,1.159,2.59,2.59l0,0C531.219,341.348,530.059,342.507,528.629,342.507z"/>
				<path style="fill:#FFFFFF;" d="M447.163,351.996h-78.816c-1.43,0-2.59-1.16-2.59-2.59l0,0c0-1.43,1.16-2.59,2.59-2.59h78.816
					c1.43,0,2.59,1.16,2.59,2.59l0,0C449.753,350.836,448.593,351.996,447.163,351.996z"/>
			</g>
		</g>
		<g>
			<path style="fill:#FFFFFF;" d="M336.91,410.608H325.8c-2.447,0-4.431-1.984-4.431-4.431v-11.111c0-2.447,1.984-4.431,4.431-4.431
				h11.111c2.447,0,4.431,1.984,4.431,4.431v11.111C341.341,408.624,339.358,410.608,336.91,410.608z"/>
			<g>
				<path style="fill:#FFFFFF;" d="M528.629,398.467H368.347c-1.43,0-2.59-1.16-2.59-2.59l0,0c0-1.43,1.16-2.59,2.59-2.59h160.282
					c1.43,0,2.59,1.16,2.59,2.59l0,0C531.219,397.308,530.059,398.467,528.629,398.467z"/>
				<path style="fill:#FFFFFF;" d="M447.163,407.956h-78.816c-1.43,0-2.59-1.16-2.59-2.59l0,0c0-1.43,1.16-2.59,2.59-2.59h78.816
					c1.43,0,2.59,1.16,2.59,2.59l0,0C449.753,406.796,448.593,407.956,447.163,407.956z"/>
			</g>
		</g>
		<g>
			<path style="fill:#3F72AF;" d="M332.354,298.11l-7.641-7.642c-0.976-0.977-0.976-2.56,0.001-3.535
				c0.976-0.977,2.559-0.977,3.536,0l4.104,4.105l17.351-17.351c0.976-0.977,2.56-0.977,3.535,0c0.977,0.976,0.977,2.559,0,3.535
				L332.354,298.11z"/>
		</g>
		<g>
			<path style="fill:#3F72AF;" d="M332.354,354.648l-7.641-7.642c-0.976-0.977-0.976-2.56,0.001-3.535
				c0.976-0.977,2.559-0.977,3.536,0l4.104,4.104l17.351-17.351c0.976-0.977,2.56-0.977,3.535,0c0.977,0.976,0.977,2.559,0,3.535
				L332.354,354.648z"/>
		</g>
		<g>
			<path style="fill:#3F72AF;" d="M332.354,410.608l-7.641-7.642c-0.976-0.977-0.976-2.56,0.001-3.535
				c0.976-0.977,2.559-0.977,3.536,0l4.104,4.104l17.351-17.351c0.976-0.977,2.56-0.977,3.535,0c0.977,0.976,0.977,2.559,0,3.535
				L332.354,410.608z"/>
		</g>
		<g>
			<path style="fill:#FFFFFF;" d="M528.629,229.683h-204.67c-1.43,0-2.59-1.16-2.59-2.59l0,0c0-1.43,1.16-2.59,2.59-2.59h204.67
				c1.43,0,2.59,1.16,2.59,2.59l0,0C531.219,228.524,530.059,229.683,528.629,229.683z"/>
			<path style="fill:#FFFFFF;" d="M528.629,220.493h-204.67c-1.43,0-2.59-1.16-2.59-2.59l0,0c0-1.43,1.16-2.59,2.59-2.59h204.67
				c1.43,0,2.59,1.16,2.59,2.59l0,0C531.219,219.334,530.059,220.493,528.629,220.493z"/>
			<path style="fill:#FFFFFF;" d="M528.629,211.303h-204.67c-1.43,0-2.59-1.16-2.59-2.59l0,0c0-1.43,1.16-2.59,2.59-2.59h204.67
				c1.43,0,2.59,1.16,2.59,2.59l0,0C531.219,210.144,530.059,211.303,528.629,211.303z"/>
			<path style="fill:#FFFFFF;" d="M528.629,202.113h-204.67c-1.43,0-2.59-1.16-2.59-2.59l0,0c0-1.43,1.16-2.59,2.59-2.59h204.67
				c1.43,0,2.59,1.16,2.59,2.59l0,0C531.219,200.954,530.059,202.113,528.629,202.113z"/>
			<path style="fill:#FFFFFF;" d="M528.629,192.923h-204.67c-1.43,0-2.59-1.16-2.59-2.59v0c0-1.43,1.16-2.59,2.59-2.59h204.67
				c1.43,0,2.59,1.16,2.59,2.59v0C531.219,191.764,530.059,192.923,528.629,192.923z"/>
			<path style="fill:#FFFFFF;" d="M425.308,239.172H323.959c-1.43,0-2.59-1.16-2.59-2.59l0,0c0-1.43,1.16-2.59,2.59-2.59h101.349
				c1.43,0,2.59,1.16,2.59,2.59l0,0C427.897,238.012,426.738,239.172,425.308,239.172z"/>
		</g>
		<g>
			<path style="fill:#FFFFFF;" d="M528.629,151.168h-204.67c-1.43,0-2.59-1.16-2.59-2.59l0,0c0-1.43,1.16-2.59,2.59-2.59h204.67
				c1.43,0,2.59,1.16,2.59,2.59l0,0C531.219,150.009,530.059,151.168,528.629,151.168z"/>
			<path style="fill:#FFFFFF;" d="M528.629,141.978h-204.67c-1.43,0-2.59-1.16-2.59-2.59l0,0c0-1.43,1.16-2.59,2.59-2.59h204.67
				c1.43,0,2.59,1.16,2.59,2.59l0,0C531.219,140.819,530.059,141.978,528.629,141.978z"/>
			<path style="fill:#FFFFFF;" d="M528.629,132.788h-204.67c-1.43,0-2.59-1.16-2.59-2.59l0,0c0-1.43,1.16-2.59,2.59-2.59h204.67
				c1.43,0,2.59,1.16,2.59,2.59l0,0C531.219,131.629,530.059,132.788,528.629,132.788z"/>
			<path style="fill:#FFFFFF;" d="M528.629,123.598h-204.67c-1.43,0-2.59-1.16-2.59-2.59l0,0c0-1.43,1.16-2.59,2.59-2.59h204.67
				c1.43,0,2.59,1.16,2.59,2.59l0,0C531.219,122.439,530.059,123.598,528.629,123.598z"/>
			<path style="fill:#FFFFFF;" d="M528.629,114.408h-204.67c-1.43,0-2.59-1.16-2.59-2.59l0,0c0-1.43,1.16-2.59,2.59-2.59h204.67
				c1.43,0,2.59,1.16,2.59,2.59l0,0C531.219,113.248,530.059,114.408,528.629,114.408z"/>
			<path style="fill:#FFFFFF;" d="M425.308,160.657H323.959c-1.43,0-2.59-1.16-2.59-2.59v0c0-1.43,1.16-2.59,2.59-2.59h101.349
				c1.43,0,2.59,1.16,2.59,2.59v0C427.897,159.497,426.738,160.657,425.308,160.657z"/>
		</g>
	</g>
	<g>
		<g>
			<g>
				<path style="fill:#3F72AF;" d="M439.108,231.068c-5.309,2.114-8.478,7.532-10.716,12.79
					c-4.404,10.344-8.446,23.283-10.774,34.281c0,0-8.482-2.284-13.47-1.331c-1.885,2.207-3.348,5.011-4.675,7.592
					c-0.938,1.825-1.904,3.867-1.378,5.851c1.419,1.211,2.993,2.454,4.736,3.12c6.007,2.296,12.133,4.279,18.346,5.937
					c5.841-7.223,11.78-14.305,17.089-21.926L439.108,231.068z"/>
				<path style="fill:#FFAB91;" d="M370.202,264.113c2.904-0.263,4.547-0.335,7.418,0.178c1.509,2.5,4.017,5.829,5.807,8.156
					c7.013,2.805,14.435,4.587,21.957,5.272c1.141,2.255,0.782,4.906-0.108,7.271c-0.89,2.365-2.805,4.324-5.149,5.267
					c-5.188-2.841-13.612-10.102-18.8-12.943c-1.5,0.943-3.299,1.383-4.993,0.864c-1.428-0.437-2.831-1.231-3.668-2.439
					c-0.053,0.019-0.107,0.038-0.158,0.059c-0.748,0.309-1.182,1.077-1.926,1.328c-0.364,0.123-0.9-0.063-0.992-0.479
					c-0.269-1.212,0.815-2.24,1.81-2.767c0.01-0.005,0.022-0.01,0.032-0.016c-0.923,0.062-1.768,0.307-2.597,0.83
					c-0.955,0.602-2.066-0.57-1.346-1.475c0.936-1.175,2.407-1.799,3.883-1.91c0.578-0.044,1.27-0.05,1.95,0.031
					c0.008-0.045,0.014-0.09,0.022-0.134c-2.052-0.242-4.242-0.928-5.684,0.77c-0.533,0.627-1.692,0.15-1.494-0.701
					c0.421-1.811,1.921-2.82,3.718-3.016c1.092-0.119,2.234,0.015,3.324,0.092c0.151,0.011,0.3,0.018,0.447,0.025
					c0.011-0.242,0.022-0.484,0.025-0.722c-0.965-0.414-2.028-0.667-3.076-0.727c-0.514-0.029-1.009,0.188-1.454,0.448
					c-0.444,0.26-0.865,0.568-1.346,0.751c-0.481,0.183-1.051,0.225-1.489-0.045c-0.438-0.269-0.935-1.085-0.481-1.328
					C367.203,266.019,368.653,264.253,370.202,264.113z"/>
				<g>
					<path style="fill:#3F72AF;" d="M369.03,274.6l-0.898,1.374c-0.202,0.309-0.606,0.412-0.931,0.237l0,0
						c-0.325-0.174-0.462-0.568-0.316-0.907l0.65-1.507c0.165-0.382,0.622-0.542,0.988-0.345l0.248,0.133
						C369.138,273.783,369.258,274.251,369.03,274.6z"/>
					
						<rect x="364.853" y="262.768" transform="matrix(0.4732 -0.881 0.881 0.4732 -37.1219 468.4252)" style="fill:#112D4E;" width="16.471" height="4.965"/>
					<polygon style="fill:#112D4E;" points="370.867,273.405 368.94,275.839 366.553,274.557 367.517,271.606 					"/>
				</g>
				<g>
					<path style="fill:#FFAB91;" d="M373.137,265.259c-0.366-0.059-0.804-0.076-1.036,0.212c-0.198,0.246-0.149,0.606-0.053,0.906
						c0.269,0.837,0.841,1.572,1.586,2.039c0.744,0.467,1.655,0.663,2.526,0.541c1.1-0.153,1.752-1.614,0.829-2.409
						c-0.447-0.385-1.125-0.57-1.672-0.754C374.607,265.558,373.877,265.378,373.137,265.259z"/>
					<path style="fill:#FF8A65;" d="M371.631,264.751c0.158-0.365,0.478-0.431,0.764-0.332c0.013,0.002,0.023-0.003,0.036,0
						c1.794,0.331,3.522,0.855,5.21,1.544c0.85,0.347,0.149,1.591-0.693,1.248c-1.35-0.551-2.746-0.961-4.17-1.263
						c-0.01,1.576,3.129,2.671,4.181,3.015c0.276,0.09,0.429,0.293,0.481,0.517c0.087,0.178,0.111,0.389,0.016,0.614
						c-0.443,1.041-0.525,2.282,0.182,3.234c0.727,0.979,1.941,1.174,2.924,0.475c0.75-0.533,1.488,0.689,0.743,1.219
						c-1.448,1.03-3.393,0.754-4.574-0.555c-1.108-1.229-1.221-2.851-0.778-4.348C373.64,269.27,370.417,267.561,371.631,264.751z"
						/>
				</g>
				<path style="fill:#2B4E78;" d="M401.016,289.503c1.731-1.071,2.927-2.779,3.697-4.638c0.846-2.041,1.377-4.45,0.517-6.567
					c-0.242-0.596,0.725-0.854,0.965-0.264c0.938,2.312,0.357,4.952-0.553,7.18c-0.849,2.08-2.195,3.961-4.126,5.156
					C400.969,290.708,400.468,289.842,401.016,289.503z"/>
				<path style="fill:#2B4E78;" d="M419.164,278.414c0.514,0.236,0.839,0.698,1.142,1.156c0.361,0.547,0.697,1.109,1.008,1.686
					c0.612,1.135,1.124,2.323,1.542,3.542c0.209,0.61-0.757,0.871-0.965,0.264c-0.377-1.1-0.837-2.167-1.384-3.194
					c-0.268-0.504-0.555-0.997-0.861-1.478c-0.263-0.414-0.514-0.894-0.977-1.107C418.085,279.014,418.583,278.147,419.164,278.414z
					"/>
			</g>
			<path style="fill:#3E2723;" d="M456.693,215.891c0.515-2.755,2.298-5.077,4.026-7.283c0.518-0.66,1.047-1.315,1.694-1.856
				c1.15-0.961,1.972-1.084,2.197-2.736c0.871-6.397-0.234-15.708-6.118-19.676c-0.859-0.579-1.767-1.151-2.77-1.442
				c-1.05-0.305-1.96,0.129-2.96-0.054c-1.444-0.263-0.96-2.494-1.373-3.492c-0.892-2.155-3.547-3.208-5.838-2.771
				c-2.291,0.437-4.198,2.073-5.546,3.976c-0.539,0.761-1.015,1.59-1.21,2.503c-0.002,0.011-0.008,0.022-0.016,0.031
				c-1.434-1.396-3.415-1.985-5.234-1.151c-1.819,0.834-3.157,2.478-4.075,4.256c-2.611,5.06-2.133,11.353,0.382,16.461
				c2.514,5.109,6.856,9.132,11.662,12.186c2.359,1.499,4.893,2.808,7.639,3.33C451.898,218.696,454.383,217.465,456.693,215.891z"
				/>
			<g>
				<path style="fill:#09121F;" d="M417.812,382.678c-4.173-28.293-0.861-58.121,4.789-86.156c8.934,0.353,16.56,0.787,25.2,3.091
					c0.243,29.841-7.121,60.26-21.759,86.265L417.812,382.678z"/>
				<path style="fill:#FFAB91;" d="M466.227,440.789c-0.665,0.15-1.398,0.001-2.151-0.241c1.299,4.917,2.556,9.846,3.732,14.795
					c3.483,0.082,4.808-0.316,8.029-1.602c0.195-5.382,0.522-11.018,0.747-16.745C473.376,439.036,469.698,440.333,466.227,440.789z
					"/>
				<path style="fill:#112D4E;" d="M471.499,400.367c-4.032-10.923-11.16-20.491-19.955-26.789l-2.358,4.294
					c-1.798,3.273-2.017,7.472-0.587,11.223c6.276,16.463,10.678,40.423,15.195,57.518c0.402,1.521,4.365,0.938,6.536,0.612
					c0.944-0.142,7.567-1.543,7.606-2.522C478.421,432.355,475.555,411.355,471.499,400.367z"/>
				<path style="fill:#112D4E;" d="M448.472,388.984c-6.016-20.255-9.412-57.927-9.412-57.927s-16.981-14.07-16.981-32.991
					c8.894-0.917,34.939,4.562,43.818,5.618c4.471,29.505,1.496,60.661-9.307,88.478L448.472,388.984z"/>
				<path style="fill:#09121F;" d="M464.755,444.344c4.098-0.183,7.992-1.095,11.755-2.717c0.843-0.363,1.228,1.013,0.395,1.372
					c-3.885,1.675-7.911,2.584-12.134,2.772C463.854,445.813,463.838,444.385,464.755,444.344z"/>
				<path style="fill:#09121F;" d="M456.217,384.078c1.642-1.927,2.705-4.145,3.223-6.621c0.188-0.899,1.569-0.535,1.381,0.364
					c-0.568,2.713-1.787,5.148-3.583,7.255C456.641,385.776,455.624,384.775,456.217,384.078z"/>
				<path style="fill:#09121F;" d="M457.304,387.504c0.601-1.07,1.202-2.139,1.803-3.209c0.45-0.801,1.692-0.097,1.241,0.706
					c-0.601,1.07-1.202,2.139-1.803,3.209C458.094,389.011,456.852,388.307,457.304,387.504z"/>
				<g>
					<path style="fill:#FFAB91;" d="M434.495,436.384c-0.67,0.129-1.397-0.041-2.143-0.306c1.151,4.954,2.259,9.918,3.285,14.901
						c3.479,0.187,5.027,0.901,8.285-0.287c0.357-5.374,0.641-12.07,1.039-17.788C441.694,434.846,437.978,436.033,434.495,436.384z
						"/>
					<path style="fill:#09121F;" d="M440.842,396.862c-3.702-11.039-10.539-20.817-19.141-27.376l-2.486,4.221
						c-1.895,3.218-2.241,7.408-0.924,11.2c5.779,16.644,10.06,45.122,14.061,62.345c0.356,1.532,6.304,1.128,8.455,0.872
						c0.948-0.113,5.047-0.193,5.115-1.171C446.779,434.626,444.566,407.968,440.842,396.862z"/>
					<path style="fill:#112D4E;" d="M433.435,444.566c3.766,0.134,7.297-0.912,10.377-3.086c0.747-0.527,1.669,0.563,0.918,1.093
						c-3.412,2.408-7.262,3.562-11.437,3.414C432.376,445.954,432.519,444.533,433.435,444.566z"/>
					<path style="fill:#112D4E;" d="M424.379,379.621c1.014-1.547,2.028-3.095,3.042-4.642c0.505-0.77,1.668,0.056,1.165,0.824
						c-1.014,1.547-2.028,3.095-3.042,4.642C425.04,381.216,423.876,380.389,424.379,379.621z"/>
					<path style="fill:#112D4E;" d="M426.432,383.782c0.433-1.643,0.867-3.286,1.3-4.93c0.234-0.887,1.569-0.38,1.336,0.502
						c-0.433,1.643-0.867,3.286-1.3,4.93C427.535,385.171,426.2,384.664,426.432,383.782z"/>
				</g>
				<path style="fill:#FFFFFF;" d="M424.091,452.417l8.387-2.152l11.89-0.206c0,0,1.872,4.541,1.872,9.717h-14.174h-5.762h-11.862
					C414.466,454.928,419.237,452.417,424.091,452.417z"/>
				<path style="fill:#FFFFFF;" d="M457.825,452.417l8.387-2.152l11.89-0.206c0,0,1.872,4.541,1.872,9.717H465.8h-5.762h-11.861
					C448.2,454.928,452.971,452.417,457.825,452.417z"/>
			</g>
			<path style="fill:#3F72AF;" d="M448.185,227.402c4.003-1.111,8.222-1.549,12.451-1.209c7.997,0.643,18.232,5.525,16.578,15.141
				c-0.845,4.911-3.816,9.217-4.795,14.129c-3.547,17.813-4.52,35.841-3.035,55.549c0.216,2.867,1.242,6.656-1.485,7.566
				c-12.701,4.238-23.848,4.253-37.234,3.774c-3.044-0.109-6.274-0.425-9.034-1.587c-2.343-0.986-3.74-3.423-3.518-5.956
				c1.728-19.69,3.287-38.867,5.036-58.619c0.006-0.072,0.013-0.145,0.019-0.217C424.407,241.772,435.146,231.02,448.185,227.402z"
				/>
			<g>
				<path style="fill:#2B4E78;" d="M444.57,234.85c1.082,1.073,2.851,0.78,4.201,0.515c1.475-0.29,2.913-0.761,4.271-1.405
					c2.716-1.288,5.115-3.225,6.906-5.643c0.379-0.512,1.252-0.022,0.87,0.494c-2.014,2.72-4.703,4.901-7.809,6.26
					c-1.516,0.663-3.107,1.146-4.745,1.395c-1.527,0.232-3.228,0.254-4.4-0.908C443.406,235.104,444.113,234.396,444.57,234.85z"/>
				<path style="fill:#2B4E78;" d="M418.516,311.676c0.192-1.273,0.325-2.55,0.392-3.836c0.267-5.067-0.193-10.132,0.347-15.19
					c0.533-4.997,1.286-9.978,1.944-14.961c0.662-5.007,1.335-10.016,2.259-14.983c0.517-2.778,1.112-5.542,1.825-8.276
					c0.646-2.474,1.358-4.978,2.767-7.14c0.35-0.538,1.221-0.046,0.87,0.494c-1.232,1.89-1.902,4.035-2.483,6.197
					c-0.629,2.339-1.169,4.701-1.645,7.076c-0.96,4.795-1.657,9.637-2.307,14.482c-0.658,4.906-1.31,9.814-1.945,14.723
					c-0.316,2.441-0.551,4.882-0.59,7.345c-0.039,2.479,0.05,4.957,0.033,7.436c-0.018,2.681-0.288,5.289-0.658,7.94
					c-0.332,2.376-0.384,5.184,1.675,6.83c0.502,0.401-0.209,1.105-0.707,0.707c-1.589-1.27-2.164-3.351-2.154-5.315
					C418.148,314.021,418.341,312.845,418.516,311.676z"/>
				<path style="fill:#2B4E78;" d="M439.587,312.6c7.569-0.724,15.621-2.017,21.752-6.874c0.499-0.395,1.211,0.308,0.707,0.707
					c-6.367,5.043-14.59,6.414-22.459,7.167C438.946,313.661,438.951,312.661,439.587,312.6z"/>
			</g>
			<g>
				<g>
					<g>
						<path style="fill:#FFAB91;" d="M445.939,214.615c1.933,4.897,0.837,15.875,0.206,16.557c-0.632,0.683-0.991,1.813-0.381,2.516
							c0.62,0.715,1.765,0.512,2.66,0.202c4.29-1.485,8.203-4.046,11.281-7.383c-0.306-0.272-0.831-0.82-1.138-1.092
							c-3.637-3.232-2.318-13.497-1.879-18.342L445.939,214.615z"/>
						<path style="fill:#FF8A65;" d="M456.124,217.012c0.096-2.049,0.313-7.794,0.482-9.663l-10.668,7.267
							c0.832,2.107,1.102,5.341,1.09,8.396C450.045,220.991,453.153,219.066,456.124,217.012z"/>
						<g>
							<path style="fill:#FFAB91;" d="M433.464,196.165c-1.6,7.679-1.283,24.57,9.308,25.824c3.436,0.407,6.788-1.666,8.865-4.434
								c2.077-2.768,3.121-6.153,4.129-9.464c1.263-0.194,2.723-0.338,3.832-0.973c1.109-0.635,2.012-1.788,1.982-3.066
								c-0.029-1.277-1.272-2.5-2.516-2.206c-2.477,0.587-4.492,3.731-4.804,1.147c-2.274-18.844-13.359-8.941-16.995-13.438
								c-0.06-0.075-2.724,3.695-2.94,4.121C433.902,194.506,433.64,195.321,433.464,196.165z"/>
							<path style="fill:#FF8A65;" d="M459.713,203.643c-0.886-0.513-1.94,0.085-2.659,0.67c-0.471,0.383-1.466,1.394-0.977,2.054
								c0.009,0.012,0.026,0.014,0.039,0.012c0.581-0.097,0.973-0.927,1.433-1.272c0.662-0.496,1.487-0.506,2.142-0.964
								C459.856,204.027,459.921,203.764,459.713,203.643z"/>
							<path style="fill:#212121;" d="M434.692,201.981c-0.197-0.229-0.572-0.179-0.731,0.064c-0.302,0.461-0.254,1.003-0.201,1.532
								c0.054,0.536,0.04,1.167,0.329,1.635c0.236,0.383,0.736,0.316,0.911-0.078c0.221-0.496,0.129-1.135,0.106-1.666
								C435.084,202.932,435.054,202.401,434.692,201.981z"/>
							<path style="fill:#212121;" d="M444.191,201.324c-0.198-0.229-0.572-0.179-0.73,0.064c-0.302,0.461-0.254,1.003-0.201,1.532
								c0.054,0.536,0.04,1.166,0.329,1.635c0.237,0.384,0.736,0.316,0.911-0.078c0.221-0.496,0.129-1.135,0.106-1.666
								C444.584,202.274,444.554,201.743,444.191,201.324z"/>
						</g>
					</g>
				</g>
				<path style="fill:#3E2723;" d="M440.701,197.214c1.409-1.259,3.537-1.464,5.091-0.328c0.733,0.536,0.036,1.784-0.706,1.241
					c-1.018-0.745-2.395-0.78-3.364,0.085C441.039,198.822,440.014,197.828,440.701,197.214z"/>
				<path style="fill:#3E2723;" d="M433.064,198.002c0.663-0.666,1.72-0.816,2.526-0.316c0.779,0.483,0.078,1.727-0.706,1.241
					c-0.264-0.164-0.57-0.158-0.799,0.073C433.436,199.651,432.415,198.655,433.064,198.002z"/>
				<path style="fill:#212121;" d="M442.577,214.789c1.814-0.063,3.389-0.881,4.533-2.281c0.582-0.712,1.599,0.291,1.021,0.998
					c-1.375,1.682-3.373,2.635-5.537,2.711C441.675,216.248,441.659,214.821,442.577,214.789z"/>
				<path style="fill:#FF8A65;" d="M437.881,205.67c0.329-0.34,0.854,0.173,0.525,0.513c-0.736,0.76-1.444,1.596-1.703,2.65
					c-0.348,1.418,0.28,3.064,1.95,3.099c0.471,0.01,0.051,0.744-0.422,0.734c-1.449-0.031-2.552-1.06-2.765-2.494
					C435.202,208.398,436.715,206.875,437.881,205.67z"/>
			</g>
			<g>
				<path style="fill:#3F72AF;" d="M464.253,231.859c2.8-1.47,4.406-1.739,7.462-0.539c4.238,1.664,7.744,5.146,9.234,9.472
					c4.04,11.731,8.408,24.237,12.128,36.074c2.831,9.007-3.864,18.707-7.788,27.293c-4.647-1.881-9.085-4.023-13.731-5.905
					c0.246-6.217,1.723-12.528,3.431-18.51c-7.055-14.217-9.106-21.516-14.804-36.329"/>
				<g>
					<path style="fill:#FFAB91;" d="M455.944,329.927c0-0.029,0.001-0.058,0.001-0.087c0.064-5.369,3.605-10.067,8.649-11.909
						c0.319-0.117,0.637-0.229,0.953-0.337c3.486-6.701,5.994-13.909,7.421-21.327c2.357-0.912,4.959-0.292,7.224,0.828
						c2.265,1.12,4.025,3.219,4.731,5.646c-3.341,4.881-11.401,12.544-14.742,17.426c0.79,1.586,1.049,3.419,0.365,5.054
						c-0.577,1.378-1.506,2.696-2.791,3.408c0.014,0.054,0.027,0.11,0.043,0.163c0.233,0.774,0.954,1.283,1.13,2.048
						c0.086,0.375-0.151,0.889-0.575,0.94c-1.232,0.148-2.148-1.033-2.574-2.075c-0.004-0.01-0.008-0.023-0.013-0.033
						c-0.03,0.924,0.131,1.79,0.569,2.666c0.505,1.01-0.772,2-1.601,1.193c-1.076-1.047-1.552-2.573-1.516-4.053
						c0.014-0.58,0.076-1.269,0.224-1.937c-0.044-0.012-0.088-0.023-0.131-0.035c-0.445,2.018-1.344,4.129,0.203,5.732
						c0.572,0.592-0.018,1.698-0.845,1.417c-1.76-0.599-2.616-2.191-2.632-3.999c-0.01-1.098,0.236-2.221,0.421-3.299
						c0.026-0.149,0.048-0.296,0.069-0.442c-0.24-0.035-0.479-0.07-0.716-0.097c-0.508,0.919-0.865,1.952-1.028,2.989
						c-0.08,0.508,0.087,1.023,0.302,1.491c0.214,0.468,0.479,0.917,0.614,1.414c0.143,0.528,0.117,1.139-0.254,1.552
						c-0.438,0.488-1.239,0.346-1.55-0.231C457.193,332.727,455.932,331.303,455.944,329.927z"/>
				</g>
				<path style="fill:#2B4E78;" d="M477.49,278.842c1.96-0.412,3.957,0.02,5.873,0.459c0.626,0.143,0.459,1.13-0.17,0.986
					c-1.841-0.421-3.733-0.844-5.617-0.448c-0.264,0.056-0.52-0.21-0.541-0.455C477.009,279.088,477.225,278.898,477.49,278.842z"/>
				<path style="fill:#2B4E78;" d="M479.145,280.342c0.638,0.067,1.276,0.134,1.915,0.201c0.261,0.027,0.462,0.326,0.408,0.578
					c-0.061,0.279-0.299,0.437-0.578,0.408c-0.638-0.067-1.276-0.134-1.915-0.201c-0.261-0.027-0.462-0.326-0.408-0.578
					C478.628,280.471,478.866,280.313,479.145,280.342z"/>
				<path style="fill:#2B4E78;" d="M464.433,253.923c3.255,8.383,6.858,16.629,10.797,24.713c0.281,0.577-0.661,0.913-0.941,0.339
					c-3.939-8.084-7.542-16.33-10.797-24.713C463.259,253.662,464.199,253.322,464.433,253.923z"/>
				<path style="fill:#2B4E78;" d="M463.237,257.648c1.136,1.69,2.575,3.139,4.251,4.295c0.222,0.153,0.231,0.508,0.069,0.704
					c-0.184,0.224-0.481,0.223-0.704,0.069c-1.743-1.201-3.253-2.735-4.434-4.491C462.061,257.691,462.877,257.112,463.237,257.648z
					"/>
				<path style="fill:#2B4E78;" d="M472.659,295.563c2.569-1.079,5.585-0.807,7.997,0.557c2.384,1.348,4.113,3.578,5.118,6.1
					c0.238,0.598-0.703,0.938-0.941,0.339c-0.899-2.257-2.451-4.318-4.591-5.528c-2.206-1.248-4.891-1.514-7.244-0.526
					C472.405,296.753,472.066,295.812,472.659,295.563z"/>
			</g>
		</g>
	</g>
	<g>
		<g>
			<path style="fill:#3E2723;" d="M260.229,155.909c0.672-4.576-1.921-9.261-5.999-12.089c-4.078-2.828-9.438-3.924-14.589-3.646
				c-0.051,0.003-0.103,0.006-0.154,0.009c-10.136,0.598-16.928,10.768-13.946,20.473c0.979,3.185,2.495,6.215,4.604,8.929
				c3.124,4.021,7.819,7.635,13.295,7.597c5.015-0.035,9.469-3.213,11.997-7.086C257.965,166.224,259.576,160.356,260.229,155.909z"
				/>
			<g>
				<g>
					<path style="fill:#AB7361;" d="M252.228,196.271c-0.647,0.747-1.849,0.535-2.782,0.212c-4.481-1.55-8.571-4.226-11.789-7.712
						c0.324-0.286,0.871-0.859,1.189-1.139c3.803-3.38,2.421-10.003,1.967-15.063l11.229,3.772
						c-0.293,0.741-0.517,1.625-0.691,2.583c-0.423,2.372-0.504,5.241-0.417,7.818c0.124,3.554,0.573,6.548,0.896,6.903
						C252.489,194.361,252.863,195.537,252.228,196.271z"/>
					<path style="fill:#96513C;" d="M250.933,186.742c-0.137-0.087-0.274-0.18-0.411-0.268c-3.361-2.179-5.571-5.776-5.932-9.766
						l-0.006-0.056l6.766,2.272C250.927,181.296,250.846,184.165,250.933,186.742z"/>
					<g>
						<path style="fill:#AB7361;" d="M259.615,153.763c3.045,7.61,5.795,25.048-4.875,28.267c-3.462,1.044-7.288-0.478-9.929-2.948
							c-2.641-2.47-4.332-5.763-5.972-8.986c-1.335,0.03-2.864,0.148-4.12-0.303c-1.257-0.451-2.396-1.474-2.598-2.794
							c-0.202-1.32,0.854-2.805,2.187-2.728c8.689,0.5,15.983-8.999,20.193-16.617c0.049-0.088,3.475,3.307,3.775,3.705
							C258.863,152.136,259.281,152.928,259.615,153.763z"/>
					</g>
				</g>
				<path style="fill:#3E2723;" d="M251.438,155.82c-1.871-0.767-3.896-0.453-5.514,0.726c-0.647,0.472,0.2,1.385,0.841,0.918
					c1.269-0.925,2.855-1.047,4.29-0.459C251.798,157.309,252.175,156.122,251.438,155.82z"/>
				<path style="fill:#3E2723;" d="M261.308,155.819c-1.314-1.213-3.285-1.464-4.807-0.469c-0.665,0.434-0.091,1.541,0.581,1.101
					c1.031-0.674,2.379-0.649,3.308,0.209C260.975,157.201,261.898,156.363,261.308,155.819z"/>
				<path style="fill:#212121;" d="M250.608,160.73c-0.129-0.79-1.342-0.511-1.214,0.278c0.131,0.804,0.263,1.609,0.394,2.413
					c0.129,0.79,1.343,0.511,1.214-0.279C250.871,162.339,250.74,161.535,250.608,160.73z"/>
				<path style="fill:#212121;" d="M260.281,159.75c-0.129-0.79-1.343-0.511-1.214,0.279c0.132,0.804,0.263,1.609,0.394,2.413
					c0.129,0.79,1.343,0.511,1.214-0.278C260.544,161.359,260.413,160.555,260.281,159.75z"/>
				<path style="fill:#96513C;" d="M237.793,166.729c-0.875-1.391-2.573-1.878-4.026-1.058c-0.696,0.393-0.119,1.496,0.581,1.101
					c0.832-0.469,1.821-0.293,2.344,0.538C237.116,167.984,238.221,167.41,237.793,166.729z"/>
			</g>
			<g>
				<path style="fill:#E53935;" d="M248.984,172.101c0.155,1.029,0.692,2.02,1.479,2.681c1.085,0.911,2.655,1.206,3.996,0.75
					c0.043-0.015,0.08-0.039,0.121-0.056C253.523,173.544,251.791,172.285,248.984,172.101z"/>
				<path style="fill:#B71C1C;" d="M256.87,172.141c-2.527-0.882-5.218-1.294-7.893-1.208c-0.06,0.384-0.051,0.779,0.008,1.168
					c2.807,0.184,4.539,1.443,5.597,3.375C255.844,174.968,256.575,173.48,256.87,172.141z"/>
			</g>
			<path style="fill:#96513C;" d="M254.384,177.605c-0.076-0.289-0.342-0.392-0.611-0.357c-1.265,0.163-2.602-0.009-3.784-0.49
				c-0.25-0.102-0.536-0.069-0.682,0.188c-0.12,0.211-0.064,0.579,0.188,0.682c1.45,0.59,2.979,0.788,4.532,0.588
				C254.296,178.181,254.447,177.843,254.384,177.605z"/>
			<path style="fill:#96513C;" d="M258.755,167.04c-0.109-1.017-0.879-1.656-1.651-2.223c-0.218-0.16-0.56-0.027-0.682,0.188
				c-0.147,0.257-0.03,0.521,0.188,0.682c0.482,0.355,1.078,0.793,1.151,1.421c0.087,0.748-0.452,1.353-0.998,1.776
				c-0.214,0.165-0.174,0.533,0,0.707c0.211,0.211,0.493,0.166,0.707,0C258.248,168.99,258.865,168.062,258.755,167.04z"/>
			<path style="fill:#3E2723;" d="M218.231,148.811c-1.767-3.849-1.295-8.555,0.909-12.171c2.204-3.616,6.003-6.139,10.122-7.125
				c4.221-1.011,8.942-0.397,12.406,2.219c3.464,2.616,5.373,7.371,4.092,11.519c-1.757,5.683-8.705,9.546-13.958,11.331
				C226.417,156.413,220.71,154.21,218.231,148.811z"/>
		</g>
		<g>
			<g>
				<path style="fill:#3F72AF;" d="M271.341,267.859c-1.388-8.403-2.462-16.642-7.096-24.578
					c-10.533-0.412-31.842,1.242-32.725,2.204c-2.097,2.285-14.073,17.969-14.871,24.168c-1.564,12.147-0.723,24.489,0.515,36.532
					c1.211,11.778,4.217,24.338,4.262,36.288c3.631,0.435,4.624,0.982,8.254,1.416c6.656-19.149,10.705-39.379,13.268-59.576
					c0.813,0.116,2.282,0.271,3.094,0.387c3.076,19.775,5.09,40.713,5.607,60.852c2.558,0.643,5.406,0.805,8.034,0.427
					c0.837-0.12,3.047-9.698,3.389-10.902c3.545-12.487,6.503-25.188,8.427-38.06C272.991,287.036,272.839,276.928,271.341,267.859z
					"/>
				<g>
					<path style="fill:#AB7361;" d="M256.252,388.261c0.485,0,0.971-0.218,1.456-0.503c-0.135,3.617-0.238,7.236-0.282,10.856
						c-2.406,0.6-3.388,0.531-5.825,0.141c-0.975-3.707-2.082-7.569-3.132-11.511C251.014,388.159,253.771,388.486,256.252,388.261z
						"/>
					<path style="fill:#3F72AF;" d="M244.708,356.201c1.322-9.92,5.496-19.288,11.684-26.226l2.787,3.156
						c2.125,2.406,3.1,5.885,2.608,9.301c-2.16,14.99-3.514,30.137-4.079,45.325c-0.485,0.286-0.971,0.503-1.456,0.503
						c-2.481,0.225-5.238-0.102-7.783-1.017C245.733,376.98,243.378,366.181,244.708,356.201z"/>
				</g>
				<g>
					<path style="fill:#AB7361;" d="M187.89,374.529c0.323,0.362,0.809,0.579,1.346,0.75c-2.787,2.31-5.554,4.644-8.282,7.024
						c-2.051-1.394-2.654-2.172-3.987-4.249c2.113-3.197,4.257-6.596,6.495-10.006C184.476,370.556,186.069,372.829,187.89,374.529z
						"/>
					<path style="fill:#3F72AF;" d="M204.103,344.559c8.278-5.624,18.044-8.755,27.341-8.764l-0.496,4.181
						c-0.378,3.188-2.323,6.233-5.197,8.142c-12.616,8.378-24.813,17.463-36.514,27.161c-0.537-0.172-1.022-0.388-1.346-0.75
						c-1.821-1.7-3.415-3.973-4.428-6.481C189.292,359.169,195.775,350.217,204.103,344.559z"/>
				</g>
				<path style="fill:#FFFFFF;" d="M266.496,399.883l-6.826-1.752l-9.677-0.167c0,0-1.524,3.696-1.524,7.909h11.536h4.689h9.654
					C274.33,401.927,270.446,399.883,266.496,399.883z"/>
				<path style="fill:#FFFFFF;" d="M182.779,390.677l-1.007-6.975l-3.565-8.998c0,0-3.998,0.014-7.887,1.633l4.434,10.65
					l1.802,4.329l3.711,8.913C183.904,398.695,184.298,394.324,182.779,390.677z"/>
			</g>
			<path style="fill:#315887;" d="M221.903,331.148c-0.158-0.785-1.371-0.508-1.214,0.278c0.949,4.731,1.898,9.463,2.847,14.194
				c0.158,0.785,1.372,0.508,1.214-0.279C223.801,340.611,222.852,335.879,221.903,331.148z"/>
			<path style="fill:#315887;" d="M220.172,339.649c0.32-0.73-0.786-1.303-1.108-0.568c-0.586,1.34-1.173,2.679-1.759,4.019
				c-0.32,0.73,0.786,1.303,1.108,0.568C218.999,342.329,219.586,340.989,220.172,339.649z"/>
			<path style="fill:#315887;" d="M254.004,344.701c-1.527-3.892-2.097-7.915-1.759-12.082c0.065-0.799-1.179-0.852-1.244-0.054
				c-0.356,4.394,0.291,8.613,1.902,12.717C253.195,346.026,254.294,345.441,254.004,344.701z"/>
			<path style="fill:#315887;" d="M250.979,342.522c-0.132-0.79-1.345-0.511-1.214,0.279l0.774,4.646
				c0.132,0.79,1.345,0.511,1.214-0.278L250.979,342.522z"/>
			<path style="fill:#315887;" d="M190.704,371.946c-0.996-1.712-1.992-3.424-2.988-5.135c-0.404-0.695-1.451-0.021-1.049,0.67
				c0.996,1.712,1.992,3.424,2.988,5.135C190.059,373.311,191.106,372.638,190.704,371.946z"/>
			<path style="fill:#315887;" d="M254.674,384.487c-1.634-0.347-3.268-0.694-4.902-1.042c-0.777-0.165-1.166,1.019-0.383,1.185
				c1.634,0.347,3.268,0.695,4.902,1.042C255.068,385.837,255.457,384.653,254.674,384.487z"/>
		</g>
		<g>
			<g>
				<g>
					<g>
						<g>
							<path style="fill:#AB7361;" d="M302.396,208.374c3.587-12.36,6.393-24.668,8.521-37.225c-2.133-0.62-4.823-0.68-6.955-1.3
								c-4.531,11.004-9.58,24.624-14.256,36.359l7.325,4.304C299.087,211.721,301.731,210.665,302.396,208.374z"/>
							<g>
								<path style="fill:#AB7361;" d="M303.696,172.647c-0.303-4.025,0.459-8.82,1.762-13.049c2.54-1.064,5.337-1.45,7.624-0.721
									c0.802,0.255,1.304,1.051,1.23,1.889c-0.37,4.162-1.805,8.51-4.06,12.236L303.696,172.647z"/>
								<g>
									<path style="fill:#AB7361;" d="M311.077,162.476c-0.48,1.585,1.456,2.312,1.941,0.709c0.831-2.746,1.59-5.641,3.443-7.711
										c1.069-1.194,0.41-2.588-0.664-1.387C313.65,156.485,312.046,159.277,311.077,162.476z"/>
									<path style="fill:#AB7361;" d="M309.462,161.004c-0.416,1.589,1.519,2.321,1.941,0.709c0.849-3.241,1.347-5.891,3.25-8.589
										c0.946-1.342,0.158-2.946-0.785-1.608C311.846,154.383,310.366,157.555,309.462,161.004z"/>
									<path style="fill:#AB7361;" d="M307.376,160.917c-0.265,1.631,1.841,1.693,2.107,0.059c0.557-3.421,0.62-6.05,2.429-9.009
										c0.861-1.409,0.348-3.298-0.517-1.884C309.353,153.422,308.004,157.058,307.376,160.917z"/>
									<path style="fill:#AB7361;" d="M307.493,150.862c-1.347,3.498-2.039,7.048-2.164,10.684
										c-0.056,1.621,2.076,1.018,2.132-0.586c0.11-3.187-0.131-5.675,1.046-8.732C309.106,150.67,308.094,149.3,307.493,150.862z
										"/>
								</g>
							</g>
						</g>
					</g>
				</g>
			</g>
			<path style="fill:#96513C;" d="M307.807,163.987c1.603,1.696,1.043,4.21-0.954,5.286c-0.706,0.381-0.016,1.418,0.684,1.04
				c2.771-1.494,3.208-5.022,1.091-7.262C308.078,162.469,307.26,163.409,307.807,163.987z"/>
			<path style="fill:#96513C;" d="M306.212,158.781c1.337,1.123,1.793,2.871,1.25,4.518c-0.25,0.758,0.974,0.989,1.222,0.236
				c0.673-2.042-0.013-4.315-1.651-5.691C306.42,157.331,305.597,158.265,306.212,158.781z"/>
		</g>
		<g>
			<path style="fill:#112D4E;" d="M273.721,279.281c0.899-3.361-7.567-42.663-10.048-54.729c2.756-5.94,7.884-14.664,3.768-20.386
				c-7.168-9.965-12.125-16.839-23.618-16.839c-4.036,0-9.229-0.213-12.828,1.992s-6.549,6.721-6.19,11.592
				c0.356,4.822,3.662,8.453,5.392,12.816c1.964,4.952,5.968,18.043,3.255,22.73c-5.185,8.956-17.894,29.307-17.655,32.405
				C231.843,280.797,254.83,284.968,273.721,279.281z"/>
			<path style="fill:#D01968;" d="M253.111,196.528c0.193,3.846-8.05-0.25-8.708-0.623c-2.032-1.15-3.778-2.62-5.359-4.335
				c-0.544-0.59-1.462,0.251-0.918,0.841c2.858,3.101,6.435,5.487,10.528,6.61c2.224,0.61,5.866,0.854,5.701-2.439
				C254.315,195.789,253.071,195.727,253.111,196.528z"/>
			<path style="fill:#09121F;" d="M269.837,277.615c-17.339,4.29-35.924,0.358-50.058-10.556c-0.635-0.491-1.304,0.56-0.674,1.047
				c14.381,11.104,33.377,15.085,51.011,10.723C270.892,278.636,270.618,277.422,269.837,277.615z"/>
		</g>
		<path style="fill:#112D4E;" d="M280.221,193.671l-26.62-4.118l6.165,17.795l21.628,2.034
			C281.761,204.122,281.369,198.801,280.221,193.671z"/>
		<path style="fill:#AB7361;" d="M300.311,196.779l-20.09-3.108c1.148,5.13,1.54,10.451,1.173,15.712l17.025,1.601L300.311,196.779z
			"/>
		<path style="fill:#09121F;" d="M279.202,200.855c-0.12-1.026-0.285-2.045-0.465-3.062c-0.172-0.971-0.309-1.961-0.672-2.883
			c-0.233-0.593-1.203-0.344-0.967,0.254c0.336,0.853,0.472,1.76,0.632,2.658c0.18,1.007,0.353,2.017,0.473,3.033
			c0.233,1.982,0.271,3.987-0.174,5.943c-0.142,0.626,0.824,0.884,0.967,0.254C279.46,205.011,279.445,202.924,279.202,200.855z"/>
		<g>
			<path style="opacity:0.22;fill:#637373;" d="M349.708,154.945l15.43,19.91l-10.98,1.78l-4.44,10.18l-16.83-21.7l-1.21-1.56
				c-1.16,1.18-2.33,2.41-3.76,2.66c-2.49,0.43-5.31-2.32-7.92-2.32c-2.62,0-5.44,2.75-7.93,2.32c-1.43-0.25-2.59-1.48-3.76-2.66
				l-0.4,0.52l-6.81,8.78v-91.52c1.52,0.13,3.07,0.34,4.32-0.12c2.38-0.87,4.1-4.42,6.65-4.87c2.49-0.44,5.31,2.31,7.93,2.31
				c2.61,0,5.43-2.75,7.92-2.31c2.56,0.45,4.27,4,6.66,4.87c2.43,0.89,6.02-0.73,8.23,0.55c2.23,1.29,2.62,5.21,4.58,6.86
				c1.97,1.65,5.9,1.36,7.55,3.33c1.65,1.96,0.68,5.78,1.97,8.01c1.28,2.21,5.08,3.27,5.97,5.7c0.87,2.39-1.35,5.65-0.9,8.21
				c0.43,2.49,3.64,4.79,3.64,7.4c0,2.62-3.21,4.92-3.64,7.41c-0.45,2.56,1.77,5.81,0.9,8.2c-0.89,2.43-4.69,3.49-5.97,5.7
				c-1.29,2.23-0.32,6.06-1.97,8.02c-1.39,1.66-4.42,1.72-6.51,2.69L349.708,154.945z"/>
			<g>
				<g>
					<g>
						<polygon style="fill:#112D4E;" points="328.322,134.516 319.027,146.513 306.935,162.104 289.301,184.842 284.845,174.664 
							273.88,172.878 289.706,152.469 303.627,134.516 						"/>
						<polygon style="fill:#112D4E;" points="364.163,172.878 353.187,174.664 348.741,184.842 331.917,163.146 319.027,146.513 
							309.721,134.516 334.416,134.516 348.731,152.969 						"/>
					</g>
					<path style="opacity:0.22;fill:#637373;" d="M348.731,152.969c-0.5,0.213-0.968,0.457-1.351,0.787
						c-1.967,1.649-2.361,5.573-4.584,6.86c-2.212,1.287-5.807-0.33-8.232,0.553c-0.968,0.351-1.819,1.138-2.648,1.978
						l-12.89-16.633l-12.092,15.591c-0.489-0.404-0.989-0.734-1.531-0.936c-2.435-0.883-6.03,0.734-8.242-0.553
						c-2.223-1.287-2.616-5.211-4.573-6.86c-0.744-0.638-1.787-0.978-2.882-1.287l13.922-17.952h30.789L348.731,152.969z"/>
				</g>
				<g>
					<path style="fill:#3F72AF;" d="M364.64,119.304c0,2.614-3.205,4.916-3.641,7.405c-0.448,2.56,1.77,5.815,0.901,8.203
						c-0.885,2.43-4.685,3.496-5.963,5.705c-1.29,2.23-0.323,6.052-1.97,8.013c-1.652,1.967-5.586,1.673-7.552,3.325
						c-1.961,1.647-2.351,5.574-4.581,6.864c-2.209,1.278-5.803-0.338-8.233,0.546c-2.387,0.869-4.099,4.425-6.659,4.874
						c-2.489,0.436-5.308-2.314-7.922-2.314c-2.614,0-5.433,2.75-7.922,2.314c-2.56-0.448-4.271-4.004-6.659-4.874
						c-2.43-0.885-6.025,0.731-8.234-0.547c-2.23-1.29-2.62-5.217-4.581-6.864c-1.966-1.652-5.9-1.359-7.552-3.325
						c-1.647-1.961-0.68-5.783-1.97-8.013c-1.278-2.209-5.078-3.274-5.962-5.704c-0.869-2.387,1.349-5.643,0.901-8.203
						c-0.436-2.489-3.641-4.791-3.641-7.405c0-2.614,3.205-4.916,3.641-7.405c0.448-2.56-1.77-5.815-0.901-8.203
						c0.885-2.43,4.685-3.496,5.963-5.705c1.29-2.23,0.323-6.052,1.97-8.013c1.652-1.967,5.586-1.673,7.552-3.325
						c1.961-1.647,2.351-5.574,4.581-6.864c2.209-1.278,5.803,0.338,8.233-0.547c2.387-0.869,4.099-4.425,6.659-4.873
						c2.489-0.436,5.308,2.314,7.922,2.314c2.614,0,5.433-2.75,7.922-2.314c2.56,0.448,4.271,4.004,6.659,4.873
						c2.43,0.885,6.025-0.731,8.234,0.547c2.23,1.29,2.62,5.217,4.581,6.864c1.966,1.652,5.9,1.359,7.552,3.325
						c1.647,1.961,0.68,5.783,1.97,8.013c1.278,2.209,5.078,3.274,5.962,5.704c0.869,2.387-1.349,5.643-0.901,8.203
						C361.435,114.388,364.64,116.69,364.64,119.304z"/>
					<g>
						<path style="fill:#DBE2EF;" d="M319.021,156.464c-20.49,0-37.161-16.67-37.161-37.16c0-20.49,16.67-37.161,37.161-37.161
							c20.49,0,37.16,16.67,37.16,37.161C356.181,139.794,339.511,156.464,319.021,156.464z M319.021,83.388
							c-19.804,0-35.916,16.112-35.916,35.916c0,19.804,16.112,35.916,35.916,35.916c19.804,0,35.916-16.112,35.916-35.916
							C354.936,99.499,338.824,83.388,319.021,83.388z"/>
					</g>
					<circle style="fill:#DBE2EF;" cx="319.02" cy="119.304" r="30.55"/>
					<g>
						<text transform="matrix(1 0 0 1 296.863 116.8078)"><tspan x="0" y="0" style="fill:#637373; font-family:'Montserrat-Bold'; font-size:23.9664px;">ISO</tspan><tspan x="0.692" y="15.083" style="fill:#637373; font-family:'Montserrat-Bold'; font-size:17.5934px;">9001</tspan></text>
						
							<text transform="matrix(1 0 0 1 298.7453 139.9504)" style="fill:#637373; font-family:'Montserrat-Bold'; font-size:7.2927px;">CERTIFIED</text>
					</g>
				</g>
			</g>
		</g>
		<g>
			<g>
				<g>
					<g>
						<g>
							<g>
								<path style="fill:#AB7361;" d="M287.8,186.429c2.612-11.164,4.47-22.304,5.652-33.692c-2.114-0.63-4.73-0.766-6.845-1.396
									c-2.837,7.748-5.869,16.947-8.833,25.644c-1.396,4.094,0.708,8.851,4.967,11.232l0,0
									C284.823,189.382,287.316,188.499,287.8,186.429z"/>
								<g>
									<path style="fill:#AB7361;" d="M286.264,154.389c-0.389-4.018,0.426-10.508,1.639-14.764
										c2.516-1.118,5.149,0.117,7.452,0.797c0.807,0.238,1.326,1.023,1.27,1.863c-0.281,4.169-1.623,8.546-3.798,12.32
										L286.264,154.389z"/>
									<g>
										<path style="fill:#AB7361;" d="M293.427,144.063c-0.446,1.595,1.505,2.28,1.956,0.667c0.773-2.763,1.47-5.674,3.277-7.783
											c1.043-1.217,0.355-2.596-0.694-1.372C295.872,138.018,294.327,140.844,293.427,144.063z"/>
										<path style="fill:#AB7361;" d="M291.781,142.626c-0.382,1.597,1.568,2.288,1.956,0.667
											c0.779-3.258,1.221-5.918,3.066-8.657c0.917-1.361,0.095-2.949-0.819-1.591
											C294.023,135.956,292.61,139.159,291.781,142.626z"/>
										<path style="fill:#AB7361;" d="M289.693,142.583c-0.231,1.636,1.877,1.653,2.108,0.014
											c0.484-3.432,0.491-6.062,2.236-9.059c0.831-1.427,0.277-3.305-0.557-1.872
											C291.51,135.048,290.239,138.712,289.693,142.583z"/>
										<path style="fill:#AB7361;" d="M289.596,132.528c-1.271,3.526-1.888,7.09-1.935,10.727
											c-0.021,1.621,2.098,0.974,2.119-0.631c0.042-3.189-0.252-5.671,0.859-8.752
											C291.204,132.302,290.164,130.953,289.596,132.528z"/>
									</g>
								</g>
							</g>
						</g>
					</g>
				</g>
			</g>
			<g>
				<path style="fill:#AB7361;" d="M253.604,199.669c10.529-3.022,20.852-6.836,31.092-10.757l1.626-10.045
					c0.198-1.224-0.864-2.289-2.087-2.086c-10.31,1.708-20.549,3.845-30.686,6.389C252.148,188.617,251.725,194.184,253.604,199.669
					z"/>
				<path style="fill:#112D4E;" d="M226.508,194.328c-1.154,2.003-1.362,4.478-0.239,6.499c2.123,3.822,6.955,3.526,10.905,2.786
					c5.543-1.039,11.013-2.388,16.429-3.943c-1.879-5.486-1.455-11.053-0.055-16.499c-5.412,1.358-10.796,2.827-16.143,4.42
					C233.225,188.836,228.835,190.291,226.508,194.328z"/>
			</g>
			<path style="fill:#09121F;" d="M251.163,197.473c-0.726-1.65-1.127-3.44-1.154-5.244c-0.028-1.924,0.374-3.81,0.775-5.681
				c0.134-0.627-0.832-0.885-0.967-0.254c-0.431,2.017-0.865,4.064-0.803,6.137c0.057,1.917,0.508,3.783,1.279,5.536
				C250.552,198.556,251.42,198.057,251.163,197.473z"/>
		</g>
	</g>
	<g>
		<rect x="242.74" y="405.449" style="fill:#112D4E;" width="44.725" height="2.59"/>
		<rect x="230.23" y="423.261" style="fill:#112D4E;" width="44.725" height="2.59"/>
		<rect x="213.855" y="441.072" style="fill:#112D4E;" width="44.725" height="2.59"/>
		<path style="fill:#112D4E;" d="M264.052,403.452c6.773,0,15.194,3.485,18.517,13.265l11.378,33.484
			c1.036,3.05-1.231,6.215-4.452,6.215h-50.887c-3.221,0-5.488-3.165-4.452-6.215l11.379-33.484
			C248.858,406.936,257.279,403.452,264.052,403.452 M264.052,400.452c-8.946,0-17.892,5.1-21.358,15.299L229.968,453.2
			c-1.036,3.05,1.231,6.215,4.452,6.215h59.263c3.221,0,5.488-3.165,4.452-6.215l-12.726-37.449
			C281.944,405.552,272.998,400.452,264.052,400.452L264.052,400.452z"/>
	</g>
	<path style="fill:#112D4E;" d="M703.063,467.124H46.937c-2.029,0-3.674-1.645-3.674-3.674l0,0c0-2.029,1.645-3.674,3.674-3.674
		h656.126c2.029,0,3.674,1.645,3.674,3.674l0,0C706.737,465.479,705.092,467.124,703.063,467.124z"/>
	<g>
		<g>
			<g>
				<g>
					<path style="fill:#005C52;" d="M540.669,409.927c0.782-3.266,1.618-6.666,2.357-10.124c0.917,0.812,1.858,1.605,2.728,2.456
						c6.559,6.415,5.707,35.102,5.707,35.102s-0.546-0.289-1.456-0.789c-3.227-7.445-6.621-15.063-10.439-22.395
						C539.963,412.761,540.33,411.342,540.669,409.927z"/>
					<path style="fill:#005C52;" d="M539.107,396.139c-0.756,4.199-1.534,8.396-2.524,12.548
						c-4.224-7.469-8.974-14.502-14.553-20.565c0.477-2.342,0.915-4.693,1.311-7.052c0.591-3.52,1.389-7.201,1.99-10.912
						c5.326,2.544,9.751,6.826,11.251,12.448c1.13,4.236,0.595,8.975,2.656,12.812C539.194,395.658,539.15,395.898,539.107,396.139z
						"/>
					<path style="fill:#005C52;" d="M518.307,367.9c0.878,0.154,1.752,0.362,2.62,0.605c-0.074,0.443-0.147,0.888-0.219,1.336
						c-0.704,4.425-1.228,8.867-2.034,13.277c-0.081,0.444-0.17,0.886-0.255,1.33c-5.573-5.292-11.924-9.637-19.297-12.599
						c-1.553-1.213-3.375-1.988-5.359-2.023C501.849,368.151,510.172,366.468,518.307,367.9z"/>
					<path style="fill:#00796C;" d="M508.781,400.578c-1.83-2.796-2.658-6.285-3.092-9.654c-0.567-4.407-0.643-8.955-2.244-13.1
						c-0.887-2.294-2.398-4.471-4.324-5.974c12.908,5.186,22.685,14.614,30.632,25.944
						C522.707,397.78,515.602,398.692,508.781,400.578z"/>
					<path style="fill:#00796C;" d="M544.961,425.253c1.743,3.778,3.419,7.57,5.044,11.319c-3.13-1.72-10.667-5.997-15.948-10.107
						C537.659,425.805,541.297,425.384,544.961,425.253z"/>
					<path style="fill:#00796C;" d="M530.135,422.927c-0.506-0.569-0.922-1.117-1.213-1.632c-2.241-3.97-3.586-8.627-7.006-11.641
						c-2.804-2.471-6.635-3.492-9.698-5.588c6.693-1.589,13.628-2.212,20.42-1.959c3.834,6.007,7.224,12.438,10.36,18.976
						C538.666,421.35,534.375,421.999,530.135,422.927z"/>
					<path style="fill:#002B2B;" d="M555.374,464.943c-3.475-27.152-14.542-53.029-32.051-74.341
						c-1.099-1.338,1.149-2.81,2.235-1.488c17.811,21.679,29.064,48.15,32.531,75.828H555.374z"/>
				</g>
			</g>
			<g>
				<g>
					<path style="fill:#00796C;" d="M590.54,394.738c1.91-1.076,4-1.864,6.117-2.313c6.428-1.365,13.093-0.259,19.57,0.849
						c-1.577,0.083-3.004,0.75-4.205,1.758c-8.156,3.613-14.616,9.364-19.96,16.29C591.178,405.835,590.664,400.29,590.54,394.738z"
						/>
					<path style="fill:#00796C;" d="M575.789,420.509c1.669-1.751,3.709-3.221,4.858-5.35c1.705-3.159,1.084-7.034,1.888-10.532
						c0.597-2.598,1.984-4.864,3.841-6.74c0.288,6.147,1.033,12.28,2.212,18.323c-6.326,9.637-10.984,20.899-15.223,31.701
						c-0.71,0.423-1.135,0.667-1.135,0.667S570.752,425.792,575.789,420.509z"/>
					<path style="fill:#005C52;" d="M607.33,410.381c-0.328,3.52-1.182,7.225-3.708,9.698c-1.96,1.919-4.672,2.859-6.968,4.345
						c-4.253,0.052-8.514-0.079-12.776-0.24c6.683-12.521,15.322-23.472,28.144-29.152c-1.489,1.249-2.63,3.022-3.271,4.87
						C607.591,403.242,607.658,406.861,607.33,410.381z"/>
					<path style="fill:#005C52;" d="M592.735,428.684c-1.149,2.058-1.938,4.384-3.032,6.493
						c-2.08,4.005-12.806,10.628-16.339,12.733c2.551-6.5,5.252-13.167,8.377-19.546
						C585.408,428.508,589.073,428.644,592.735,428.684z"/>
					<path style="fill:#002B2B;" d="M569.509,464.943h-2.174c3.673-21.733,13.406-42.262,28.139-58.832
						c0.904-1.017,2.646,0.223,1.731,1.252C582.742,423.628,573.181,443.661,569.509,464.943z"/>
				</g>
			</g>
			<g>
				<g>
					<path style="fill:#005C52;" d="M557.531,363.014c-1.994-6.477-4.483-12.695-7.64-18.501c2.515-5.735,4.507-11.75,5.901-17.81
						c0.461,0.234,0.92,0.473,1.373,0.726c4.932,2.755,9.314,6.924,12.032,11.829C566.295,347.604,562.263,355.523,557.531,363.014z
						"/>
					<path style="fill:#005C52;" d="M570.049,367.196c0.424,2.149,1.42,4.098,2.497,6.02c-2.89,4.672-6.203,9.129-9.809,13.328
						c-0.94-6.149-2.124-12.227-3.67-18.128c4.887-7.327,9.172-15.049,12.451-23.198c0.458,1.953,0.655,3.965,0.502,6.013
						C571.62,356.612,569.006,361.901,570.049,367.196z"/>
					<path style="fill:#005C52;" d="M574.856,377.541c4.276,10.354-7.574,41.391-7.574,41.391s-0.503-0.541-1.334-1.463
						c-0.617-8.351-1.328-16.896-2.43-25.367C567.674,387.555,571.51,382.676,574.856,377.541z"/>
					<path style="fill:#005C52;" d="M551.874,324.948c-1.118,5.073-2.691,10.126-4.661,15.003
						c-3.62-5.728-7.977-10.989-13.273-15.608c-1.277-1.981-3.03-3.574-5.258-4.393
						C536.534,320.982,544.557,322.075,551.874,324.948z"/>
					<path style="fill:#00796C;" d="M533.494,350.365c0.108-0.636,0.229-1.269,0.36-1.893c1.093-5.201,2.798-10.367,2.619-15.68
						c-0.099-2.94-0.95-5.994-2.533-8.449c10.026,8.744,16.718,19.768,21.312,31.973
						C548.197,353.612,540.903,351.72,533.494,350.365z"/>
					<path style="fill:#00796C;" d="M543.697,374.313c-2.686-3.609-6.677-6.287-8.829-10.266c-1.565-2.893-1.998-6.179-1.844-9.496
						c7.994,1.463,15.845,3.577,23.334,6.756c0.236,0.1,0.467,0.146,0.694,0.168c1.784,5.541,3.188,11.284,4.319,17.136
						C555.514,377.03,549.628,375.536,543.697,374.313z"/>
					<path style="fill:#00796C;" d="M562.204,383.255c1.906,11.318,2.911,22.942,3.744,34.213
						c-4.137-4.594-16.597-18.874-17.803-25.55c-0.762-4.218-0.737-8.696-1.99-12.727
						C551.534,380.395,556.878,381.799,562.204,383.255z"/>
					<path style="fill:#002B2B;" d="M559.781,464.943c10.039-38.658,6.504-79.895-10.043-116.304
						c-0.857-1.885,2.195-2.891,3.042-1.029c16.661,36.659,20.276,78.372,10.31,117.333H559.781z"/>
				</g>
			</g>
		</g>
	</g>
</g>
</svg>
