<!DOCTYPE svg PUBLIC "-//W3C//DTD SVG 1.1//EN" "http://www.w3.org/Graphics/SVG/1.1/DTD/svg11.dtd">
<!-- Uploaded to: SVG Repo, www.svgrepo.com, Transformed by: SVG Repo Mixer Tools -->
<svg fill="#2652ff" width="800px" height="800px" viewBox="0 0 512 512" version="1.1" xml:space="preserve" xmlns="http://www.w3.org/2000/svg" xmlns:xlink="http://www.w3.org/1999/xlink">
<g id="SVGRepo_bgCarrier" stroke-width="0"/>
<g id="SVGRepo_tracerCarrier" stroke-linecap="round" stroke-linejoin="round"/>
<g id="SVGRepo_iconCarrier"> <g id="_x36_40_x2C__Country_x2C__flag_x2C__usa"> <g> <g> <g> <g> <g> <path d="M89.053,388.314c-4.773,0-8.998-3.43-9.841-8.293c-0.944-5.441,2.702-10.618,8.144-11.562 c30.574-5.304,40.438-26.399,52.926-53.106c14.229-30.431,31.938-68.302,86.846-87.881c5.203-1.855,10.923,0.859,12.777,6.061 c1.855,5.202-0.858,10.923-6.061,12.777c-47.044,16.775-61.483,47.653-75.446,77.515 c-13.162,28.147-26.771,57.253-67.625,64.34C90.195,388.266,89.62,388.314,89.053,388.314z"/> </g> <g> <path d="M67.741,367.002c-4.773,0-8.998-3.429-9.841-8.293c-0.944-5.441,2.702-10.618,8.144-11.562 c30.573-5.304,40.437-26.398,52.925-53.105c14.229-30.431,31.938-68.303,86.847-87.881c5.202-1.857,10.923,0.858,12.777,6.061 c1.855,5.202-0.858,10.923-6.061,12.777c-47.044,16.775-61.483,47.653-75.446,77.514 c-13.162,28.147-26.771,57.254-67.625,64.34C68.884,366.953,68.308,367.002,67.741,367.002z"/> </g> <g> <path d="M46.527,345.789c-4.773,0-8.998-3.43-9.841-8.293c-0.944-5.441,2.702-10.618,8.144-11.562 c30.574-5.304,40.438-26.399,52.926-53.107c0.878-1.879,1.764-3.771,2.663-5.674c2.36-4.993,8.32-7.129,13.315-4.766 c4.993,2.36,7.126,8.321,4.766,13.314c-0.887,1.877-1.76,3.743-2.626,5.597c-13.162,28.147-26.772,57.254-67.625,64.341 C47.67,345.74,47.095,345.789,46.527,345.789z"/> </g> <g> <path d="M111.041,410.289c-2.629,0-5.179-1.037-7.07-2.929l-85.715-85.715c-2.641-2.641-3.59-6.532-2.462-10.092 c1.128-3.56,4.145-6.194,7.824-6.832c30.573-5.304,40.438-26.399,52.926-53.106c14.229-30.431,31.938-68.302,86.846-87.881 c3.635-1.297,7.698-0.384,10.43,2.348l86.622,86.622c2.425,2.425,3.438,5.923,2.685,9.268s-3.168,6.071-6.397,7.223 c-47.063,16.782-61.744,47.424-75.94,77.058c-13.381,27.93-27.217,56.81-68.038,63.891 C112.181,410.24,111.608,410.289,111.041,410.289z M44.421,319.527l69.871,69.87c26.833-6.645,36.454-26.73,48.459-51.788 c13.112-27.368,29.135-60.809,72.938-81.374l-71.438-71.437c-42.423,17.186-56.225,46.703-69.591,75.289 C83.571,283.8,72.167,308.192,44.421,319.527z"/> </g> <g> <path d="M367.369,383.774c-2.56,0-5.118-0.977-7.071-2.929L232.156,252.704c-3.905-3.905-3.905-10.237,0-14.143 s10.237-3.905,14.143,0L374.44,366.703c3.905,3.905,3.905,10.237,0,14.143C372.487,382.798,369.929,383.774,367.369,383.774z"/> </g> <g> <path d="M130.864,299.741c-2.559,0-5.118-0.977-7.071-2.929l-40.408-40.407c-3.905-3.905-3.906-10.237,0-14.142 s10.237-3.906,14.142,0l40.408,40.407c3.905,3.905,3.906,10.237,0,14.143C135.982,298.765,133.423,299.741,130.864,299.741z"/> </g> </g> <g> <g> <path d="M450.209,224.289c-17.424,0-34.063-6.037-50.395-11.961c-30.989-11.242-63.031-22.867-108.16-1.462 c-4.991,2.367-10.954,0.24-13.32-4.75c-2.367-4.99-0.24-10.954,4.75-13.321c52.671-24.982,91.974-10.725,123.551,0.732 c27.715,10.054,49.606,17.996,74.976,0.127c4.518-3.181,10.755-2.097,13.935,2.417c3.18,4.515,2.098,10.754-2.417,13.934 C478.181,220.533,463.951,224.289,450.209,224.289z"/> </g> <g> <path d="M450.209,194.149c-17.424,0-34.063-6.037-50.395-11.961c-30.988-11.243-63.034-22.867-108.16-1.462 c-4.991,2.367-10.953,0.24-13.32-4.75c-2.367-4.99-0.24-10.954,4.75-13.321c52.673-24.983,91.973-10.724,123.551,0.732 c27.717,10.054,49.609,17.995,74.976,0.127c4.518-3.18,10.755-2.098,13.935,2.417s2.098,10.754-2.417,13.934 C478.181,190.393,463.951,194.149,450.209,194.149z"/> </g> <g> <path d="M450.21,164.148c-17.425,0-34.064-6.037-50.396-11.961c-1.924-0.698-3.861-1.401-5.816-2.101 c-5.2-1.861-7.906-7.585-6.045-12.785s7.59-7.904,12.785-6.045c1.981,0.709,3.946,1.422,5.896,2.129 c27.715,10.055,49.606,17.996,74.976,0.128c4.518-3.18,10.755-2.098,13.935,2.417s2.098,10.753-2.417,13.934 C478.182,160.393,463.951,164.148,450.21,164.148z"/> </g> <g> <path d="M449.628,255.559c-17.014,0-32.934-5.606-49.788-11.542c-18.017-6.345-36.646-12.906-58.003-12.906 c-16.578,0-32.993,3.963-50.183,12.116c-3.099,1.47-6.734,1.249-9.631-0.583c-2.897-1.833-4.654-5.023-4.654-8.452V111.69 c0-3.863,2.225-7.38,5.715-9.035c19.712-9.35,38.718-13.895,58.104-13.895c25.132,0,46.551,7.771,65.448,14.626 c15.316,5.557,29.783,10.805,43.479,10.805c11.145,0,21.152-3.393,31.495-10.678c3.053-2.149,7.049-2.42,10.364-0.701 c3.314,1.72,5.395,5.143,5.395,8.876v121.219c0,3.253-1.582,6.303-4.241,8.176C479.3,250.824,465.071,255.559,449.628,255.559 z M341.837,211.111c24.775,0,45.958,7.46,64.646,14.042c15.196,5.352,29.549,10.406,43.145,10.406 c9.801,0,18.727-2.572,27.741-8.043v-98.814c-8.755,3.682-17.775,5.491-27.254,5.491c-17.211,0-33.283-5.831-50.3-12.004 c-18.195-6.601-37.012-13.427-58.627-13.427c-14.512,0-28.903,3.081-43.819,9.398v101.012 C312.287,213.759,326.95,211.111,341.837,211.111z"/> </g> <g> <path d="M287.369,423.152c-5.522,0-10-4.478-10-10V231.934c0-5.523,4.478-10,10-10s10,4.477,10,10v181.219 C297.369,418.675,292.892,423.152,287.369,423.152z"/> </g> <g> <path d="M395.184,178.757c-5.522,0-10-4.477-10-10v-57.146c0-5.523,4.478-10,10-10s10,4.477,10,10v57.146 C405.184,174.28,400.706,178.757,395.184,178.757z"/> </g> </g> </g> </g> </g> </g> <g id="Layer_1"/> </g>
</svg>