<?xml version="1.0" encoding="utf-8"?>
<!-- Generator: Adobe Illustrator 27.5.0, SVG Export Plug-In . SVG Version: 6.00 Build 0)  -->
<svg version="1.1" xmlns="http://www.w3.org/2000/svg" xmlns:xlink="http://www.w3.org/1999/xlink" x="0px" y="0px"
	 viewBox="0 0 3710 3710" style="enable-background:new 0 0 3710 3710;" xml:space="preserve">
<g id="Background">
	<g>
		<g>
			<rect style="fill:#FFFFFF;" width="3710" height="3710"/>
		</g>
	</g>
</g>
<g id="Illustration">
	<g>
		<path style="fill:#F4F7FA;" d="M2933.753,2895.512c-75.71,78.04-143.453,123.914-195.319,158.545
			c-505.841,337.754-1084.072,240.406-1262.847,207.132c-288.431-53.683-531.907-91.554-741.096-280.548
			C259.149,2551.19,282.269,1655.321,645.487,1100.37c43.067-65.801,405.736-603.389,985.219-679.14
			c14.173-1.853,24.749-2.908,34.011-3.889c89.645-9.491,645.155-59.585,1098.118,319.908
			c64.84,54.322,169.185,152.306,265.947,301.748C3382.589,1585.422,3383.71,2431.714,2933.753,2895.512z"/>
		<g>
			<g>
				
					<linearGradient id="SVGID_1_" gradientUnits="userSpaceOnUse" x1="1779.7494" y1="1466.3453" x2="1135.0665" y2="2196.353" gradientTransform="matrix(0.9895 -0.1447 0.1447 0.9895 -639.3816 136.1145)">
					<stop  offset="0.0036" style="stop-color:#E38DDD"/>
					<stop  offset="1" style="stop-color:#9571F6"/>
				</linearGradient>
				<path style="fill:url(#SVGID_1_);" d="M1919.848,2409.165c-534.433,91.769-698.777,20.636-747.303-64.758
					c-28.214-49.648-31.126-128.49-111.61-228.02c-67.832-83.882-106.855-78.699-135.908-143.016
					c-50.395-111.563,45.73-174.278,6.557-282.323c-42.89-118.296-177.826-97.471-236.319-238.745
					c-31.996-77.277,5.562-90.309-22.918-167.323c-58.056-156.987-229.098-143.349-285.922-284.94
					c-33.081-82.429-16.056-189.07,38.37-251.883c109.162-125.986,370.537-77.669,518.376,39.156
					c19.044,15.05,162.377,131.613,176.254,304.22c8.373,104.144-36.491,152.705,0.476,216.112
					c52.15,89.453,170.245,42.219,222.112,121.688c70.278,107.679-96.423,271.19-16.105,392.372
					c31.087,46.903,63.948,34.307,95.026,88.172c51.11,88.586-8.452,173.471,3.306,247.206
					C1436.862,2236.263,1536.568,2332.958,1919.848,2409.165z"/>
				<path style="opacity:0.28;fill:#FFFFFF;" d="M931.258,1033.404c69.35,160.023-43.697,261.156,37.504,387.384
					c65.946,102.514,169.935,81.559,198.372,176.999c27.252,91.47-60.834,135.658-36.738,240.139
					c19.861,86.118,86.729,86.553,153.523,197.933c67.234,112.114,40.05,179.326,74.58,247.81
					c37.068,73.519,142.242,142.46,425.301,146.489c42.462-5.744,87.722-12.693,136.049-20.991
					c-383.281-76.208-482.986-172.902-495.611-252.08c-11.757-73.734,47.805-158.62-3.305-247.205
					c-31.078-53.864-63.939-41.268-95.026-88.172c-80.318-121.182,86.383-284.693,16.106-392.372
					c-51.867-79.469-169.962-32.235-222.112-121.688c-36.966-63.407,7.898-111.968-0.476-216.112
					c-13.877-172.607-157.21-289.171-176.254-304.22C795.331,670.49,533.956,622.173,424.794,748.159
					c-0.525,0.605-1.022,1.242-1.54,1.855c73,2.593,162.504,17.466,255.176,61.655
					C750.398,845.985,875.989,905.872,931.258,1033.404z"/>
			</g>
			<g>
				<g>
					<defs>
						<path id="SVGID_00000025409348169312208590000008740193673702197422_" d="M1747.95,2464.345
							c-180.75-45.974-232.079-101.709-240.014-148.487c-12.988-76.559,91.176-123.744,77.233-210.99
							c-16.064-100.513-167.655-121.361-162.984-187.437c5.048-71.42,183.516-66.312,220.349-169.134
							c33.39-93.211-95.346-147.454-94.356-282.844c1.182-161.645,185.528-199.583,217.925-383.602
							c22.121-125.656-41.914-232.468-92.166-316.289c-113.069-188.603-345.369-371.984-608.24-353.397
							c-35.855,2.535-245.13,17.333-296.965,140.04c-52.546,124.389,72.889,321.342,201.218,425.72
							c93.014,75.654,170.966,89.186,175.077,148.751c5.542,80.3-132.405,109.654-145.498,226.667
							c-6.922,61.866,24.806,114.716,56.016,166.701c70.743,117.833,139.73,113.439,149.852,178.732
							c13.85,89.343-110.936,125.839-138.637,259.51c-19.736,95.239,22.57,178.236,46.409,225.004
							C1206.096,2365.597,1456.376,2470.009,1747.95,2464.345z"/>
					</defs>
					
						<linearGradient id="SVGID_00000075122157513656117270000012407609264599426436_" gradientUnits="userSpaceOnUse" x1="1214.9449" y1="417.5737" x2="1367.5923" y2="1685.011">
						<stop  offset="0" style="stop-color:#AA80F9"/>
						<stop  offset="0.9964" style="stop-color:#6165D7"/>
					</linearGradient>
					
						<use xlink:href="#SVGID_00000025409348169312208590000008740193673702197422_"  style="overflow:visible;fill:url(#SVGID_00000075122157513656117270000012407609264599426436_);"/>
					<clipPath id="SVGID_00000116916310051193937620000000046623365910339478_">
						<use xlink:href="#SVGID_00000025409348169312208590000008740193673702197422_"  style="overflow:visible;"/>
					</clipPath>
					<path style="opacity:0.7;clip-path:url(#SVGID_00000116916310051193937620000000046623365910339478_);fill:#FFFFFF;" d="
						M702.248,489.871c113.783,52.057,227.329,104.687,340.699,157.698c56.776,26.318,113.323,53.112,169.397,80.953
						c28.058,13.875,56.049,27.913,83.838,42.398c27.777,14.506,55.399,29.393,82.292,45.771c13.43,8.212,26.68,16.816,39.392,26.35
						c6.396,4.7,12.523,9.843,18.529,15.142c5.901,5.45,11.58,11.211,16.751,17.517c5.125,6.342,9.67,13.276,13.288,20.705
						c3.632,7.424,6.268,15.326,8.016,23.309c3.255,15.992,3.719,32.632,0.685,48.687c-2.938,16.067-8.986,31.318-16.596,45.431
						c-7.618,14.155-16.92,27.133-26.633,39.621c-19.534,24.942-41.315,47.56-62.146,70.771
						c-20.861,23.154-41.061,46.842-57.723,72.793c-8.183,13.03-15.669,26.491-21.556,40.625
						c-5.734,14.172-10.263,28.813-12.86,43.844c-4.791,30.025-2.945,61.399,6.387,90.377c4.711,14.482,11.422,28.267,19.386,41.356
						c7.992,13.091,17.352,25.418,26.98,37.647c9.647,12.24,19.675,24.339,28.877,37.27c9.235,12.872,17.671,26.582,23.987,41.387
						c6.46,14.724,10.657,30.474,12.53,46.425c1.904,15.961,1.742,32.033-0.134,47.929c-1.925,15.891-5.784,31.619-11.723,46.513
						c-5.974,14.875-13.7,28.978-22.54,42.145c-17.484,26.5-39.185,49.445-54.316,76.062c-7.596,13.235-13.091,27.519-15.572,42.406
						c-2.328,14.884-1.94,30.274,0.996,45.2c2.94,14.906,8.35,29.273,15.845,42.563c7.611,13.237,16.948,25.528,27.292,37.032
						c20.531,23.154,44.517,43.701,63.999,68.913c9.725,12.544,18.076,26.437,23.74,41.479c5.549,15.083,8.303,31.167,8.302,47.163
						c-0.085,15.99-2.785,32.119-8.62,47.082c-5.828,14.981-14.458,28.492-22.954,41.564c-8.349,13.054-16.671,26.314-18.987,41.177
						c-2.796,14.768,0.678,30.139,7.573,43.56c7.139,13.414,17.182,25.307,28.533,35.743c11.339,10.485,23.809,19.799,36.779,28.35
						c26.089,16.936,53.924,31.21,82.404,43.955c28.477,12.784,57.596,24.167,87.005,34.726
						c29.423,10.53,59.121,20.332,89.047,29.392c59.811,18.272,120.323,34.239,181.082,49.13l-0.106,0.446
						c-60.905-14.317-121.582-29.715-181.619-47.437c-30.039-8.785-59.865-18.317-89.445-28.588
						c-29.566-10.301-58.869-21.436-87.593-34.005c-28.726-12.533-56.87-26.617-83.443-43.513
						c-13.22-8.538-25.991-17.879-37.728-28.528c-11.754-10.587-22.325-22.823-29.962-37.042
						c-7.422-14.213-11.353-30.959-8.385-47.164c1.111-8.136,4.211-15.78,7.66-22.998c3.512-7.248,7.818-13.883,11.979-20.549
						c8.456-13.157,16.683-26.251,22.149-40.528c5.463-14.252,7.93-29.482,7.942-44.765c-0.087-15.288-2.785-30.47-8.107-44.728
						c-5.449-14.22-13.444-27.422-22.93-39.521c-18.966-24.327-42.925-44.672-64.043-68.187
						c-10.621-11.69-20.403-24.381-28.462-38.232c-7.949-13.909-13.79-29.138-16.98-44.913c-3.181-15.746-3.715-32.096-1.29-48.128
						c2.566-16.01,8.435-31.398,16.325-45.309c15.807-27.968,37.391-51.082,54.297-76.854c8.568-12.811,15.911-26.316,21.579-40.482
						c5.624-14.181,9.252-29.092,11.062-44.24c3.495-30.311,0.596-61.664-11.853-89.493c-11.966-28.131-32.264-51.929-51.727-76.438
						c-9.734-12.321-19.366-24.938-27.709-38.544c-8.314-13.602-15.419-28.114-20.417-43.389
						c-9.901-30.611-11.888-63.393-6.897-95.073c2.703-15.831,7.434-31.219,13.408-46.039c6.128-14.778,13.87-28.753,22.293-42.21
						c17.132-26.78,37.666-50.894,58.603-74.225c20.908-23.366,42.544-45.944,61.558-70.324
						c9.454-12.197,18.415-24.77,25.607-38.205c7.194-13.403,12.756-27.611,15.421-42.339c2.761-14.714,2.267-29.837-0.678-44.492
						c-3.032-14.625-9.604-28.061-19.034-39.718c-4.729-5.813-10.023-11.235-15.588-16.423
						c-5.702-5.064-11.541-10.021-17.735-14.608c-12.278-9.291-25.256-17.804-38.476-25.96
						c-26.478-16.278-53.904-31.213-81.517-45.779c-27.631-14.549-55.512-28.677-83.476-42.65l-84.045-41.673
						c-27.98-13.981-56.285-27.288-84.424-40.945c-112.755-54.205-225.336-108.792-337.679-163.95L702.248,489.871z"/>
				</g>
			</g>
			<g>
				<g>
					<defs>
						<path id="SVGID_00000144338278401238002710000013799495185489742473_" d="M1644.546,2415.9
							c-43.673,22.747-114.788,56.131-206.809,82.42c-189.515,54.142-515.525,91.853-627.563-54.589
							c-13.771-18-50.161-65.565-45.336-124.325c5.016-61.091,50.121-79.95,43.405-118.142
							c-9.183-52.221-99.007-48.261-188.308-108.202c-75.84-50.906-167.1-158.503-158.285-285.073
							c9.666-138.784,133.894-217.695,147.407-225.984c91.819-56.321,233.32-76.692,321.789-5.55
							c78.281,62.949,85.608,173.881,90.443,247.086c10.942,165.642-58.342,240.145-8.437,298.148
							c45.447,52.822,122.532,13.85,177.776,84.324c23.608,30.116,16.866,46.59,53.766,105.524
							c27.919,44.592,58.071,77.155,70.47,88.708C1410.817,2489.652,1625.516,2422.105,1644.546,2415.9z"/>
					</defs>
					
						<linearGradient id="SVGID_00000108310507009821174810000001334060707049872552_" gradientUnits="userSpaceOnUse" x1="1073.3715" y1="1925.3724" x2="960.2064" y2="2961.9685">
						<stop  offset="0.0036" style="stop-color:#E38DDD"/>
						<stop  offset="1" style="stop-color:#9571F6"/>
					</linearGradient>
					
						<use xlink:href="#SVGID_00000144338278401238002710000013799495185489742473_"  style="overflow:visible;fill:url(#SVGID_00000108310507009821174810000001334060707049872552_);"/>
					<clipPath id="SVGID_00000167361847560427981210000005287829514389969064_">
						<use xlink:href="#SVGID_00000144338278401238002710000013799495185489742473_"  style="overflow:visible;"/>
					</clipPath>
					<path style="opacity:0.5;clip-path:url(#SVGID_00000167361847560427981210000005287829514389969064_);fill:#FFFFFF;" d="
						M1525.77,2471.022c-90.164,0-179.698-5.894-267.51-17.646c-265.547-35.539-295.573-95.034-305.44-114.586
						c-15.339-30.395-12.554-55.952-9.605-83.009c3.308-30.372,6.73-61.779-13.18-105.37
						c-18.163-39.759-41.843-58.226-64.742-76.084c-22.354-17.431-45.468-35.456-62.475-73
						c-21.913-48.375-15.273-87.617-8.244-129.163c3.851-22.765,7.832-46.304,7.41-72.671
						c-1.667-104.146-73.52-210.806-213.561-317.017l2.152-2.837c140.958,106.906,213.283,214.502,214.969,319.798
						c0.428,26.692-3.581,50.397-7.46,73.32c-6.935,40.995-13.486,79.718,7.978,127.1c16.643,36.746,38.392,53.707,61.419,71.663
						c23.237,18.123,47.266,36.861,65.79,77.414c20.318,44.481,16.687,77.819,13.482,107.233
						c-2.889,26.518-5.619,51.565,9.244,81.02c9.658,19.136,39.048,77.369,302.735,112.659
						c130.478,17.464,264.812,21.972,399.274,13.396l0.226,3.553C1614.029,2469.614,1569.816,2471.022,1525.77,2471.022z"/>
				</g>
			</g>
		</g>
		<g>
			<g>
				
					<linearGradient id="SVGID_00000075130700422621802020000003674032464916708285_" gradientUnits="userSpaceOnUse" x1="922.2659" y1="2097.1973" x2="1700.6212" y2="2097.1973">
					<stop  offset="0" style="stop-color:#FFC444"/>
					<stop  offset="0.9964" style="stop-color:#F36F56"/>
				</linearGradient>
				<polygon style="fill:url(#SVGID_00000075130700422621802020000003674032464916708285_);" points="1700.621,3250.772 
					922.266,3191.563 922.266,1001.269 1700.621,943.622 				"/>
				<g>
					<defs>
						<polygon id="SVGID_00000006686061879988073900000002987793169046927774_" points="982.426,3095.828 982.426,1097.125 
							1700.621,1048.851 1700.621,3145.543 						"/>
					</defs>
					<use xlink:href="#SVGID_00000006686061879988073900000002987793169046927774_"  style="overflow:visible;fill:#FFFFFF;"/>
					<clipPath id="SVGID_00000106869804822422691860000010834844294211905471_">
						<use xlink:href="#SVGID_00000006686061879988073900000002987793169046927774_"  style="overflow:visible;"/>
					</clipPath>
					<path style="clip-path:url(#SVGID_00000106869804822422691860000010834844294211905471_);fill:#D8DEE8;" d="M3831.488,1567.929
						l-772.344,22.68c-2.573-424.079-4.695-1030.028-0.51-1086.263c-0.213,2.862-1.651,18.001-9.069,35.094l-102.324-88.51
						c-10.97,25.494-11.303,46.815-12.192,103.793c-0.505,32.331-0.856,78.737-1.045,137.929
						c-0.318,99.066-0.2,235.792,0.358,406.394c0.945,290.234,2.854,582.148,2.872,585.063l0.581,88.194l264.961-4.938v635.298
						l-499.691-9.505l-298.546-597.429l-410.104,7.299l550.814-996.981l-87.122-106.438l-605.534,1105.944l-260.568,4.638
						c0.366-100.303,0.967-278.611,1.326-456.179c0.318-156.843,0.386-282.411,0.205-373.21
						c-0.363-181.07-1.028-183.139-4.725-194.616l-48.676,42.94c-1.943-6.061-2.369-11.193-2.434-12.161
						c2.55,37.674,1.411,587.593-0.111,994.194l-272.101,4.843c-49.417-292.321-164.957-975.352-168.842-994.224l-90.629,57.51
						l-0.221-1.121c4.935,26.412,107.059,633.703,175.271,1040.063l9.82,58.49l570.174-4.031l-354.228,646.961l-695.192-24.807
						v154.25l741.086,34.395l448.5-811.79l446.525-3.157l208.93,421.832l-552.01-10.5v1198.257l57.824,5.521V2470.731
						l540.607,13.368l545.193,1100.748l100.365-99.881l-498.332-997.226l519.449,12.845v-734.467l561.691-10.469V1567.929z"/>
				</g>
			</g>
			<g>
				
					<linearGradient id="SVGID_00000116193120783270810280000008216155355383778433_" gradientUnits="userSpaceOnUse" x1="2479.1123" y1="1567.3619" x2="3381.0339" y2="3890.4895">
					<stop  offset="0" style="stop-color:#FFC444"/>
					<stop  offset="0.9964" style="stop-color:#F36F56"/>
				</linearGradient>
				<polygon style="fill:url(#SVGID_00000116193120783270810280000008216155355383778433_);" points="2231.511,3124.917 
					3139.297,3124.917 3139.297,1072.519 2231.511,1072.519 				"/>
				<g>
					<defs>
						
							<rect id="SVGID_00000058567487413007972980000009933955920857648317_" x="1715.451" y="1680.913" transform="matrix(-1.836970e-16 1 -1 -1.836970e-16 4746.606 -550.5974)" width="1866.302" height="834.182"/>
					</defs>
					<use xlink:href="#SVGID_00000058567487413007972980000009933955920857648317_"  style="overflow:visible;fill:#FFFFFF;"/>
					<clipPath id="SVGID_00000012450990557128182960000001183580914600411051_">
						<use xlink:href="#SVGID_00000058567487413007972980000009933955920857648317_"  style="overflow:visible;"/>
					</clipPath>
					<path style="clip-path:url(#SVGID_00000012450990557128182960000001183580914600411051_);fill:#D8DEE8;" d="M3395.745,1682.595
						h-690.016c-2.406-346.936-4.389-842.727-0.477-888.407c-0.199,2.324-1.543,14.596-8.482,28.017l-96.337-80.646
						c-10.398,20.117-10.715,37.656-11.558,84.533c-0.479,26.601-0.812,64.812-0.992,113.572
						c-0.302,81.609-0.189,194.278,0.34,334.88c0.896,239.176,2.707,479.728,2.724,482.13l0.551,72.666h247.334v515.136h-473.136
						l-296.721-503.657h-426.04l567.251-832.925l-87.142-96.107l-632.703,929.033h-287.713c0.411-89.909,1.085-249.73,1.489-408.886
						c0.357-140.574,0.434-253.124,0.23-334.523c-0.407-162.332-1.155-164.236-5.307-174.806l-54.863,34.907
						c-2.197-5.596-2.679-10.246-2.753-11.121c2.884,34.079,1.596,528.687-0.126,894.429H827.921
						c-58.143-269.479-195.602-906.176-200.263-923.964l-109.395,46.403l-0.268-1.062c5.992,24.992,129.088,594.63,210.364,971.418
						l11.64,53.949h650.405L992.12,2572.385H153.417v146.745h891.357l498.223-731.566h468.307l210.269,356.912h-567.71V3390.37
						h61.337v-967.839h552.358l521.074,884.473l92.264-88.025l-469.214-796.448h488.487v-593.192h495.576V1682.595z"/>
				</g>
			</g>
			<g>
				
					<linearGradient id="SVGID_00000016064018648975764830000010999155063156137600_" gradientUnits="userSpaceOnUse" x1="1483.0701" y1="2095.8787" x2="2468.6343" y2="2101.8518">
					<stop  offset="0" style="stop-color:#FFC444"/>
					<stop  offset="0.9964" style="stop-color:#F36F56"/>
				</linearGradient>
				<polygon style="fill:url(#SVGID_00000016064018648975764830000010999155063156137600_);" points="2231.511,3124.917 
					1700.621,3250.772 1700.621,943.622 2231.511,1072.519 				"/>
				<g>
					<defs>
						<polygon id="SVGID_00000005978382884836076160000010660439559474878370_" points="1700.621,3145.543 1700.621,1048.851 
							2231.511,1166.129 2231.511,3031.308 						"/>
					</defs>
					<use xlink:href="#SVGID_00000005978382884836076160000010660439559474878370_"  style="overflow:visible;fill:#D8DEE8;"/>
					<clipPath id="SVGID_00000109740737373314267230000009717507423007776949_">
						<use xlink:href="#SVGID_00000005978382884836076160000010660439559474878370_"  style="overflow:visible;"/>
					</clipPath>
					<path style="clip-path:url(#SVGID_00000109740737373314267230000009717507423007776949_);fill:#A2A7AE;" d="M2762.064,1736.574
						l-297.299-29.709c-1.119-328.021-2.042-796.895-0.222-839.52c-0.093,2.168-0.718,13.574-3.949,25.286l-45.397-90.799
						c-4.961,17.678-5.112,34.428-5.515,79.199c-0.229,25.411-0.388,61.964-0.474,108.646
						c-0.144,78.134-0.091,186.073,0.163,320.805c0.428,229.151,1.293,459.61,1.302,461.91l0.263,69.597l114.796,7.536v479.411
						l-225.533,12.342l-154.951-505.026l-243.551-15.334l318.692-814.523l-46.06-109.198l-366.611,917.805l-188.045-11.839
						c0.279-102.685,0.738-285.193,1.012-466.935c0.243-160.507,0.295-289.035,0.156-382.031
						c-0.277-185.474-0.785-187.788-3.608-200.646l-37.616,29.764c-1.518-6.857-1.851-12.303-1.903-13.325
						c1.993,39.79,1.103,609.299-0.087,1030.525l-226.652-14.27c-44.364-330.349-152.344-1133.923-156.084-1157.037l-89.319,33.677
						l-0.223-1.4c4.971,32.858,105.093,764.335,169.19,1233.438l9.053,66.24l460.47,13.202l-271.793,680.428l-687.584,74.245
						v196.266l725.28-103.184l330.612-844.988l273.22,7.834l112.538,360.356l-318.052,17.406v1124.258l36.622-10.954V2443.958
						l305.278-22.274l252.773,809.398l41.663-93.182l-221.384-721.547l229.978-16.78v-548.245l208.853,13.71V1736.574z"/>
				</g>
			</g>
		</g>
		<g>
			
				<linearGradient id="SVGID_00000093157759750650032170000000722885375651017657_" gradientUnits="userSpaceOnUse" x1="1144.7017" y1="2754.5791" x2="2136.7883" y2="2754.5791">
				<stop  offset="0.0036" style="stop-color:#26264F"/>
				<stop  offset="1" style="stop-color:#444B8C"/>
			</linearGradient>
			<path style="fill:url(#SVGID_00000093157759750650032170000000722885375651017657_);" d="M1176.3,3235.341l-14.323-13.454
				c-22.839-21.453-23.062-57.172-0.488-79.713l885.068-883.788l90.232,91.965l-878.701,882.889
				C1235.679,3255.754,1199.066,3256.726,1176.3,3235.341z"/>
			
				<linearGradient id="SVGID_00000011005847420682721950000005235744805318940804_" gradientUnits="userSpaceOnUse" x1="1797.3005" y1="1854.4712" x2="3137.7183" y2="1854.4712">
				<stop  offset="0.0036" style="stop-color:#26264F"/>
				<stop  offset="1" style="stop-color:#444B8C"/>
			</linearGradient>
			<path style="fill:url(#SVGID_00000011005847420682721950000005235744805318940804_);" d="M2952.216,1390.188
				c-254.674-280.658-680.391-304.944-949.809-44.047c-274.364,265.684-273.068,715.437,1.451,993.979
				c268.074,272.003,690.494,270.924,945.062,7.542C3199.09,2088.834,3201.099,1664.462,2952.216,1390.188z M2082.084,2261.765
				c-228.717-233.653-229.557-609.574-0.877-832.245c225.224-219.307,582.529-200.643,797.288,34.511
				c210.639,230.642,209.152,588.665-2.47,806.5C2661.273,2491.591,2306.293,2490.814,2082.084,2261.765z"/>
			
				<linearGradient id="SVGID_00000095323040977963347610000001838997453388574859_" gradientUnits="userSpaceOnUse" x1="1144.7017" y1="2754.5786" x2="2136.7878" y2="2754.5786">
				<stop  offset="0.0036" style="stop-color:#26264F"/>
				<stop  offset="1" style="stop-color:#444B8C"/>
			</linearGradient>
			<path style="opacity:0.3;fill:url(#SVGID_00000095323040977963347610000001838997453388574859_);" d="M2046.557,2258.386
				l-112.85,112.687c13.615,47.871,8.742,82.041-1.365,106.652c-38.022,92.59-161.586,79.419-253.133,212.976
				c-45.939,67.019-22.62,81.705-69.91,136.575c-78.181,90.714-151.503,61.694-220.18,142.94
				c-69.466,82.178-37.641,162.961-89.125,186.849c-22.026,10.22-57.862,9.309-119.993-33.374l-18.511,18.484
				c-22.574,22.541-22.351,58.258,0.488,79.714l14.323,13.452c22.766,21.384,59.379,20.412,81.787-2.103l878.701-882.888
				L2046.557,2258.386z"/>
			<path style="opacity:0.1;fill:#FFFFFF;" d="M2924.994,2301.428c-222.063,228.797-589.385,228.313-821.591-8.612
				c-237.041-241.856-237.958-631.23-0.972-861.757c233.279-226.921,603.091-207.277,825.176,36.185
				C3145.288,1705.877,3143.71,2076.081,2924.994,2301.428z"/>
			
				<linearGradient id="SVGID_00000173124327164596056230000012361068607760027806_" gradientUnits="userSpaceOnUse" x1="3151.1558" y1="3335.136" x2="2487.9905" y2="2592.6179" gradientTransform="matrix(0.924 -0.3824 0.3824 0.924 -1030.0721 309.8341)">
				<stop  offset="0.0036" style="stop-color:#26264F"/>
				<stop  offset="1" style="stop-color:#444B8C"/>
			</linearGradient>
			<path style="fill:url(#SVGID_00000173124327164596056230000012361068607760027806_);" d="M2987.815,1406.937
				c-254.675-280.658-680.391-304.943-949.809-44.047c-274.364,265.685-273.068,715.437,1.451,993.98
				c268.074,272.002,690.494,270.924,945.063,7.542C3234.688,2105.583,3236.698,1681.212,2987.815,1406.937z M2117.682,2278.515
				c-228.716-233.654-229.557-609.574-0.877-832.245c225.226-219.307,582.53-200.642,797.289,34.511
				c210.639,230.642,209.151,588.665-2.47,806.5C2696.872,2508.339,2341.892,2507.563,2117.682,2278.515z"/>
			
				<linearGradient id="SVGID_00000080191555940592320790000000886142312327553708_" gradientUnits="userSpaceOnUse" x1="1872.9139" y1="1871.5541" x2="3137.3047" y2="1871.5541">
				<stop  offset="0.0036" style="stop-color:#26264F"/>
				<stop  offset="1" style="stop-color:#444B8C"/>
			</linearGradient>
			<path style="fill:url(#SVGID_00000080191555940592320790000000886142312327553708_);" d="M2961.786,1433.01
				c-240.595-264.541-642.108-286.763-895.85-40.566c-258.128,250.452-257.005,674.014,1.233,936.668
				c252.52,256.839,651.097,256.489,891.625,8.081C3195.395,2092.841,3197.212,1691.867,2961.786,1433.01z M2117.682,2278.515
				c-228.716-233.654-229.557-609.574-0.877-832.245c225.226-219.307,582.53-200.642,797.289,34.511
				c210.639,230.642,209.151,588.665-2.47,806.5C2696.872,2508.339,2341.892,2507.563,2117.682,2278.515z"/>
		</g>
		<g>
			
				<linearGradient id="SVGID_00000109718239502900953200000005823279854210035592_" gradientUnits="userSpaceOnUse" x1="2704.2773" y1="2577.4995" x2="2250.0576" y2="3266.9409">
				<stop  offset="0" style="stop-color:#311944"/>
				<stop  offset="1" style="stop-color:#893976"/>
			</linearGradient>
			<path style="fill:url(#SVGID_00000109718239502900953200000005823279854210035592_);" d="M2663.605,2849.337
				c0,76.635-62.972,140.936-140.895,143.63c-78.195,2.703-141.785-57.615-141.785-134.733c0-77.118,63.59-141.439,141.785-143.658
				C2600.634,2712.365,2663.605,2772.702,2663.605,2849.337z"/>
			
				<linearGradient id="SVGID_00000176029416714996900950000004626248740398878395_" gradientUnits="userSpaceOnUse" x1="2728.7385" y1="2577.4995" x2="2274.5188" y2="3266.9409">
				<stop  offset="0" style="stop-color:#FF9085"/>
				<stop  offset="1" style="stop-color:#FB6FBB"/>
			</linearGradient>
			<path style="fill:url(#SVGID_00000176029416714996900950000004626248740398878395_);" d="M2688.066,2849.337
				c0,76.635-62.971,140.936-140.895,143.63c-78.195,2.703-141.785-57.615-141.785-134.733c0-77.118,63.59-141.439,141.785-143.658
				C2625.095,2712.365,2688.066,2772.702,2688.066,2849.337z"/>
		</g>
		<g>
			<defs>
				<path id="SVGID_00000160877582188201345250000006426808798385801643_" d="M2093.787,2263.517
					c-228.716-233.653-555.644-991.378-320.381-1310.99c375.079-509.555,1165.373-405.362,1444.612-54.538
					c341.851,429.487-118.667,1156.458-330.288,1374.293C2672.977,2493.341,2317.998,2492.565,2093.787,2263.517z"/>
			</defs>
			<clipPath id="SVGID_00000035491236068268100190000005821914202413417632_">
				<use xlink:href="#SVGID_00000160877582188201345250000006426808798385801643_"  style="overflow:visible;"/>
			</clipPath>
			<g style="clip-path:url(#SVGID_00000035491236068268100190000005821914202413417632_);">
				
					<linearGradient id="SVGID_00000128466488122887925030000003490280089059626127_" gradientUnits="userSpaceOnUse" x1="2391.9709" y1="1102.8436" x2="3136.0059" y2="3019.2944">
					<stop  offset="0" style="stop-color:#311944"/>
					<stop  offset="1" style="stop-color:#893976"/>
				</linearGradient>
				<path style="fill:url(#SVGID_00000128466488122887925030000003490280089059626127_);" d="M3235.565,1370.05
					c0,310.106-438.422,884.346-639.482,1131.602c-50.294,61.85-144.592,64.24-195.186,4.703
					c-204.38-240.501-662.133-815.339-662.133-1135.142c0-413.33,343.146-743.465,759.922-737.47
					C2908.435,639.637,3235.565,969.253,3235.565,1370.05z"/>
				
					<linearGradient id="SVGID_00000105385818009851233060000000440359366135951006_" gradientUnits="userSpaceOnUse" x1="2418.439" y1="1102.8436" x2="3162.4739" y2="3019.2944">
					<stop  offset="0" style="stop-color:#FF9085"/>
					<stop  offset="1" style="stop-color:#FB6FBB"/>
				</linearGradient>
				<path style="fill:url(#SVGID_00000105385818009851233060000000440359366135951006_);" d="M3262.033,1370.05
					c0,310.106-438.422,884.346-639.482,1131.602c-50.294,61.85-144.592,64.24-195.186,4.703
					c-204.38-240.501-662.133-815.339-662.133-1135.142c0-413.33,343.146-743.465,759.922-737.47
					C2934.903,639.637,3262.033,969.253,3262.033,1370.05z"/>
				<path style="fill:#FFFFFF;" d="M2938.897,1370.301c0,225.039-184.365,409.172-413.743,411.29
					c-231.563,2.138-420.909-181.704-420.909-410.641c0-228.937,189.345-413.073,420.909-411.295
					C2754.532,961.416,2938.897,1145.262,2938.897,1370.301z"/>
				<g style="opacity:0.3;">
					
						<linearGradient id="SVGID_00000000212805521321299420000004555211650662228155_" gradientUnits="userSpaceOnUse" x1="2153.9924" y1="1205.6783" x2="2898.199" y2="3122.5713">
						<stop  offset="0" style="stop-color:#FF9085"/>
						<stop  offset="1" style="stop-color:#FB6FBB"/>
					</linearGradient>
					<path style="fill:url(#SVGID_00000000212805521321299420000004555211650662228155_);" d="M2521.848,2201.507
						c47.432-308.446,252.625-408.854,217.53-697.95c-40.539-333.927-341.676-424.472-348.989-723.729
						c-1.178-48.187,5.496-94.552,18.075-138.85c-362.336,50.469-643.232,356.514-643.232,730.235
						c0,319.803,457.754,894.641,662.133,1135.143c29.792,35.058,74.758,48.621,116.955,41.232
						C2508.044,2413.597,2506.944,2298.425,2521.848,2201.507z"/>
				</g>
			</g>
		</g>
		<g>
			
				<linearGradient id="SVGID_00000126316081324881273800000017776946839322718615_" gradientUnits="userSpaceOnUse" x1="1196.3336" y1="1286.6868" x2="806.4728" y2="3155.8762">
				<stop  offset="0" style="stop-color:#FFC444"/>
				<stop  offset="0.9964" style="stop-color:#F36F56"/>
			</linearGradient>
			<path style="fill:url(#SVGID_00000126316081324881273800000017776946839322718615_);" d="M1283.357,1822.563
				c33.918-36.214-59.979-172.262-110.236-231.876c-43.906-52.08-89.032-105.61-144.448-98.833
				c-48.654,5.951-95.997,57.26-98.833,106.435C922.21,1730.58,1235.137,1874.045,1283.357,1822.563z"/>
			
				<linearGradient id="SVGID_00000059999634175326181510000014129880618062003087_" gradientUnits="userSpaceOnUse" x1="1315.786" y1="3238.9805" x2="1432.5426" y2="3238.9805" gradientTransform="matrix(-0.9996 0.0289 0.0289 0.9996 2205.6753 -31.2392)">
				<stop  offset="0" style="stop-color:#444B8C"/>
				<stop  offset="0.9964" style="stop-color:#26264F"/>
			</linearGradient>
			<path style="fill:url(#SVGID_00000059999634175326181510000014129880618062003087_);" d="M876.11,3220.587
				c-6.385,5.19-7.559,18.15-8.325,26.622c-0.345,3.784-0.515,5.678-0.092,7.014c3.085,9.75,21.994,10.775,51.647,13.805
				c46.859,4.788,60.804,8.475,64.471,1.503c3.437-6.535-4.88-17.235-5.817-18.415c-5.035-6.342-11.215-8.649-23.163-12.582
				c-22.107-7.277-37.045-11.261-41.568-12.467C885.021,3218.527,880.304,3217.179,876.11,3220.587z"/>
			<path style="fill:#D8DEE8;" d="M903.977,3177.778l4.69,53.398c-1.331,2.578-17.203,10.313-29.81,3.68l-12.049-52.488
				L903.977,3177.778z"/>
			
				<linearGradient id="SVGID_00000096769041395608888460000005870810066526129026_" gradientUnits="userSpaceOnUse" x1="1733.689" y1="3175.3262" x2="1857.7354" y2="3175.3262" gradientTransform="matrix(-0.9642 0.2651 0.2651 0.9642 2192.8501 -308.9189)">
				<stop  offset="0" style="stop-color:#444B8C"/>
				<stop  offset="0.9964" style="stop-color:#26264F"/>
			</linearGradient>
			<path style="fill:url(#SVGID_00000096769041395608888460000005870810066526129026_);" d="M1247.734,3213.724
				c-7.652,8.45-9.396,24.011-2.742,31.678c6.541,7.537,16.376,1.884,44.27,2.717c29.879,0.893,37.681,7.95,57.985,2.347
				c8.203-2.267,22.69-7.767,22.415-13.625c-0.193-4.119-7.569-6.246-32.203-14.5c-34.967-11.713-34.813-12.353-42.239-13.583
				C1276.569,3205.67,1257.841,3202.566,1247.734,3213.724z"/>
			<path style="fill:#D8DEE8;" d="M1266.878,3164.992l14.986,49.849c-1.133,2.674-16.368,11.594-29.442,5.943l-22.257-48.384
				L1266.878,3164.992z"/>
			
				<linearGradient id="SVGID_00000094604009802280146660000010017874202993352891_" gradientUnits="userSpaceOnUse" x1="1322.2618" y1="3010.4246" x2="991.4069" y2="2264.5986">
				<stop  offset="0" style="stop-color:#AA80F9"/>
				<stop  offset="0.9964" style="stop-color:#6165D7"/>
			</linearGradient>
			<path style="fill:url(#SVGID_00000094604009802280146660000010017874202993352891_);" d="M1133.725,2073.214
				c2.147,167.532,13.579,355.901,41.01,560.554c27.11,202.268,65.103,385.026,106.547,545.736
				c-19.121,5.144-38.241,10.288-57.36,15.433c-48.509-45.232-109.702-116.434-139.229-217.054
				c-18.326-62.451-12.219-94.542-23.843-171.356c-18.509-122.304-56-186.381-94.749-285.007
				c-34.821-88.625-75.98-218.691-98.049-392.548C956.611,2110.387,1045.168,2091.8,1133.725,2073.214z"/>
			
				<linearGradient id="SVGID_00000038378518406137359900000004902235495398575804_" gradientUnits="userSpaceOnUse" x1="708.7902" y1="3047.3164" x2="377.9411" y2="2301.5037" gradientTransform="matrix(0.9925 -0.1225 0.1225 0.9925 83.0051 108.1241)">
				<stop  offset="0" style="stop-color:#AA80F9"/>
				<stop  offset="0.9964" style="stop-color:#6165D7"/>
			</linearGradient>
			<path style="fill:url(#SVGID_00000038378518406137359900000004902235495398575804_);" d="M961.133,2057.229
				c-11.703,213.072-21.328,430.11-28.621,650.992c-5.475,165.75-9.494,329.397-12.165,490.891
				c-19.53,2.411-39.061,4.824-58.594,7.234c-18.872-35.136-43.938-88.856-61.109-157.709
				c-20.856-83.623-16.026-133.283-25.172-219.952c-10.262-97.206-25.168-118.383-51.573-241.008
				c-53.593-248.861-80.391-373.293-20.607-450.695C722.696,2111.855,783.536,2048.821,961.133,2057.229z"/>
			
				<linearGradient id="SVGID_00000002383868524995013410000005780832190110779838_" gradientUnits="userSpaceOnUse" x1="1061.3434" y1="1258.5313" x2="671.4834" y2="3127.717">
				<stop  offset="0" style="stop-color:#FFC444"/>
				<stop  offset="0.9964" style="stop-color:#F36F56"/>
			</linearGradient>
			<path style="fill:url(#SVGID_00000002383868524995013410000005780832190110779838_);" d="M676.485,1521.719
				c45.739-12.862,112.774-27.904,194.87-32.544c117.091-6.618,175.637-9.927,217.124,17.956
				c95.82,64.402,21.636,213.041,60.859,581.503c5.602,52.619,6.858,105.613,10.914,158.374
				c6.717,87.356,8.247,92.099,2.168,100.952c-38.117,55.509-180.324-28.218-388.758,4.879
				c-116.623,18.518-169.516,61.182-201.466,30.41c-37.261-35.885-5.299-132.406,22.214-215.496
				c31.581-95.375,51.091-96.602,69.016-168.431c18.737-75.076,7.404-113.732,4.486-232.122
				C666.516,1710.551,666.813,1626.247,676.485,1521.719z"/>
			<g style="opacity:0.3;">
				
					<linearGradient id="SVGID_00000072976990387310941040000010156855668538302375_" gradientUnits="userSpaceOnUse" x1="726.0665" y1="2857.127" x2="874.0273" y2="2154.3159">
					<stop  offset="0" style="stop-color:#FFC444"/>
					<stop  offset="0.9964" style="stop-color:#F36F56"/>
				</linearGradient>
				<path style="fill:url(#SVGID_00000072976990387310941040000010156855668538302375_);" d="M959.923,2213.459
					c-54.478-4.263-89.819,26.536-136.845,2.534c-64.484-32.914-85.203-135.322-81.094-207.802
					c6.244-110.124,69.126-139.152,58.286-210.336c-5.862-38.496-33.346-89.605-132.027-141.821
					c-1.316,43.947-1.065,81.406-0.332,111.166c2.918,118.39,14.251,157.046-4.486,232.122
					c-17.926,71.828-37.435,73.056-69.016,168.431c-27.513,83.09-59.474,179.611-22.214,215.496
					c31.951,30.771,84.843-11.892,201.466-30.41c179.598-28.518,309.954,29.626,366.99,10.769
					C1071.731,2249.719,1009.221,2217.316,959.923,2213.459z"/>
			</g>
			
				<linearGradient id="SVGID_00000080179053964638612730000018172286337529144462_" gradientUnits="userSpaceOnUse" x1="794.2744" y1="1202.8285" x2="404.4142" y2="3072.0151">
				<stop  offset="0" style="stop-color:#FFC444"/>
				<stop  offset="0.9964" style="stop-color:#F36F56"/>
			</linearGradient>
			<path style="fill:url(#SVGID_00000080179053964638612730000018172286337529144462_);" d="M750.795,1529.279
				c-38.907-31.969-117.141,4.219-138.053,13.892c-116.621,53.944-221.33,199.309-195.386,352.93
				c3.89,23.04,21.933,130.802,113.184,183.018c82.336,47.114,193.513,34.997,282.59-31.732
				c12.172-10.803,24.348-21.603,36.522-32.405c11.976-12.945,23.955-25.89,35.93-38.837c-18.826-15.66-50.814-38.25-95.739-52.746
				c-59.229-19.113-102.35,15.182-129.831-10.891c-18.966-17.994-19.008-49.775-14.325-69.036
				c9.44-38.821,43.661-49.738,72.224-77.292C785.017,1701.442,797.38,1567.558,750.795,1529.279z"/>
			<g>
				
					<linearGradient id="SVGID_00000142160464962437000520000000868966268943138212_" gradientUnits="userSpaceOnUse" x1="1126.6504" y1="2246.3892" x2="1063.5638" y2="2067.6436">
					<stop  offset="0" style="stop-color:#311944"/>
					<stop  offset="1" style="stop-color:#893976"/>
				</linearGradient>
				<polygon style="fill:url(#SVGID_00000142160464962437000520000000868966268943138212_);" points="1309.936,2030.784 
					788.425,2022.998 927.104,2089.927 1311.27,2064.783 				"/>
				
					<linearGradient id="SVGID_00000156563587020084983960000004302024344150551231_" gradientUnits="userSpaceOnUse" x1="851.0531" y1="1987.4143" x2="874.1848" y2="2147.2339">
					<stop  offset="0" style="stop-color:#311944"/>
					<stop  offset="1" style="stop-color:#893976"/>
				</linearGradient>
				<path style="fill:url(#SVGID_00000156563587020084983960000004302024344150551231_);" d="M770.02,2036.857v0.002
					c0,9.759,6.107,18.477,15.279,21.813L951.94,2124l0.759-45.291l-164.274-55.711
					C779.207,2020.349,770.02,2027.268,770.02,2036.857z"/>
			</g>
			<path style="fill:#FFFFFF;" d="M850.324,2006c-3.201-0.715,15.593-38.161,30.347-33.84c14.75,4.322,86.909,46.141,93.468,63.36
				c6.56,17.219,6.56,17.219,6.56,17.219s-31.476,2.461-50.996-4.098C910.18,2042.08,876.351,2011.803,850.324,2006z"/>
			<g>
				<g>
					
						<linearGradient id="SVGID_00000119080298360728817200000008207570917542338480_" gradientUnits="userSpaceOnUse" x1="1309.3981" y1="2001.4121" x2="1186.4021" y2="1826.7579">
						<stop  offset="0" style="stop-color:#444B8C"/>
						<stop  offset="0.9964" style="stop-color:#26264F"/>
					</linearGradient>
					<path style="fill:url(#SVGID_00000119080298360728817200000008207570917542338480_);" d="M966.534,1760.933l-36.761,334.703
						c-1.268,11.549,14.9,28.755,26.505,28.206l539.269-33.105c8.862-0.421,16.24-6.943,17.74-15.686l67.686-323.265
						c2.019-11.764-19.127-23.914-31.059-23.581l-565.12,15.89C975.356,1744.362,967.563,1751.547,966.534,1760.933z"/>
					
						<linearGradient id="SVGID_00000121241702219128903420000003091404359852883135_" gradientUnits="userSpaceOnUse" x1="1073.4697" y1="2290.4619" x2="1342.6405" y2="1743.7092">
						<stop  offset="0" style="stop-color:#311944"/>
						<stop  offset="1" style="stop-color:#893976"/>
					</linearGradient>
					<path style="fill:url(#SVGID_00000121241702219128903420000003091404359852883135_);" d="M978.858,1770.691l-36.761,334.707
						c-1.268,11.549,8.082,21.498,19.687,20.951l546.09-25.853c8.86-0.42,16.238-6.942,17.739-15.684l55.792-324.744
						c2.021-11.766-7.232-22.438-19.165-22.101l-565.122,15.89C987.683,1754.12,979.886,1761.308,978.858,1770.691z"/>
				</g>
				
					<linearGradient id="SVGID_00000127027766215385970280000004315617099552882617_" gradientUnits="userSpaceOnUse" x1="941.9821" y1="1939.538" x2="1533.3127" y2="1939.538">
					<stop  offset="0" style="stop-color:#311944"/>
					<stop  offset="1" style="stop-color:#893976"/>
				</linearGradient>
				<path style="opacity:0.3;fill:url(#SVGID_00000127027766215385970280000004315617099552882617_);" d="M1299.522,2022.066
					c-47.683-20.209-30.853-58.749-87.16-106.771c-74.282-63.353-149.995-35.877-176.501-84.982
					c-8.254-15.294-12.197-39.091,2.181-77.607l-40.923,1.15c-9.436,0.263-17.233,7.452-18.261,16.835l-36.761,334.707
					c-1.266,11.547,8.084,21.498,19.687,20.951l546.09-25.853c8.86-0.42,16.238-6.941,17.739-15.684l7.699-44.812
					c-16.569-9.221-36.369-17.605-59.471-22.292C1393.726,2001.458,1354.418,2045.333,1299.522,2022.066z"/>
			</g>
			<path style="fill:#D8DEE8;" d="M1542.277,2053.681c0.888-2.696-0.994-5.474-3.83-5.618c-11.542-0.589-38.31-0.828-53.088,8.222
				c-19.197,11.759-44.019,33.216-23.115,44.042l19.519,10.112c0.896,0.465,1.873,0.609,2.857,0.394
				c6.936-1.525,36.127-8.001,39.32-9.609C1526.846,2099.76,1537.976,2066.73,1542.277,2053.681z"/>
			<g>
				<path style="fill:#FFFFFF;" d="M880.097,1361.247c0.291,34.713-3.582,62.243-7.245,81.097
					c-4.196,21.602-7.221,27.182-11.081,31.711c-5.809,6.816-14.613,12.534-64.356,24.87c-27.069,6.71-30.551,6.528-31.149,9.214
					c-2.916,13.104,70.896,57.766,147.153,47.001c46.671-6.587,89.134-33.213,86.528-47.196
					c-2.624-14.071-49.242-6.521-63.137-31.979c-9.666-17.71,1.169-42.852,13.976-63.673
					C938.381,1389.049,892.501,1384.489,880.097,1361.247z"/>
				<g>
					
						<linearGradient id="SVGID_00000178181308229208915650000017319346084405132678_" gradientUnits="userSpaceOnUse" x1="1207.1879" y1="1370.3219" x2="1118.8934" y2="1146.0701" gradientTransform="matrix(-1 0.0037 0.0037 1 2039.0248 162.9159)">
						<stop  offset="0" style="stop-color:#311944"/>
						<stop  offset="1" style="stop-color:#6B3976"/>
					</linearGradient>
					<path style="fill:url(#SVGID_00000178181308229208915650000017319346084405132678_);" d="M966.719,1374.972
						c11.014-14.631,11.694-40.175-0.997-56.321c-10.922-13.894-28.109-15.875-38.398-17.065
						c-29.816-3.442-67.436,9.004-80.522,36.446c-7.754,16.263,9.019,50.053,11.645,56.128c2.975,6.869,8.366,9.225,13.355,14.419
						c6.913,7.202,17.737,18.655,35.403,37.809c1.372-5.652,3.46-12.649,6.775-20.232c1.276-2.92,6.403-14.32,14.159-23.774
						C943.678,1383.432,956.278,1388.838,966.719,1374.972z"/>
					<path style="fill:#FFFFFF;" d="M882.005,1430.28c0,0,19.601,32.157,58.627,29.618c34.941-2.275,40.059-80.633,17.741-97.261
						c-7.446-5.547-22.358-7.85-34.482-4.453c-7.161,2.008-9.587,4.983-21.352,8.033c-10.854,2.817-13.917,1.614-17.194,4.369
						c-4.097,3.45-7.099,11.903-0.256,34.81c-6.667-6.749-14.668-9.34-20.339-6.663c-0.903,0.429-3.303,2.06-4.653,4.533
						C855.213,1412.217,863.387,1423.647,882.005,1430.28z"/>
					
						<linearGradient id="SVGID_00000054986829970705837670000001219040958541953174_" gradientUnits="userSpaceOnUse" x1="1180.2148" y1="1381.0599" x2="1091.8308" y2="1156.5806" gradientTransform="matrix(-1 0.0037 0.0037 1 2039.0248 162.9159)">
						<stop  offset="0" style="stop-color:#311944"/>
						<stop  offset="1" style="stop-color:#6B3976"/>
					</linearGradient>
					<path style="fill:url(#SVGID_00000054986829970705837670000001219040958541953174_);" d="M883.766,1365.901
						c1.685,1.257-3.466,7.543-3.849,16.441c-0.748,17.272,16.735,38.005,34.57,39.763c10.545,1.039,13.442-5.317,30.874-7.158
						c10.792-1.14,19.776,0.233,25.427,1.468c5.477,18.944,0.323,37.83-12.339,46.592c-13.631,9.435-31.045,3.711-38.325,1.318
						c-4.87-1.601-20.477-6.699-28.633-21.01c-8.499-14.914-0.158-23.904-9.908-33.991c-4.918-5.088-11.377-7.292-17.666-17.142
						c-1.708-2.677-2.847-5.044-3.545-6.636C869.388,1375.992,881.326,1364.081,883.766,1365.901z"/>
					<path style="fill:#FFFFFF;" d="M958.104,1423.437c0,0-7.547,3.943-20.587,3.209c-0.634-0.037-1.334,0.15-1.415,0.478
						c-0.299,1.237,8.066,6.784,15.775,4.618c5.473-1.54,9.731-6.721,8.995-8.04
						C960.559,1423.147,959.322,1423.219,958.104,1423.437z"/>
				</g>
			</g>
		</g>
	</g>
</g>
</svg>
