<svg width="815" height="267" viewBox="0 0 815 267" fill="none" xmlns="http://www.w3.org/2000/svg">
<path d="M0 98C0 43.8761 43.8761 0 98 0V169C98 223.124 54.1239 267 0 267V98Z" fill="#52A6E3"/>
<path d="M1 267C1 212.876 44.8761 169 99 169H225C225 223.124 181.124 267 127 267H1Z" fill="#0084E3"/>
<path d="M51.9531 232C46.4844 232 43.75 229.07 43.75 223.211V72.7422C43.75 66.8828 46.4844 63.9531 51.9531 63.9531H70.9375C75.625 63.9531 77.9688 66.8828 77.9688 72.7422V202.938H146.289C152.148 202.938 155.078 205.477 155.078 210.555V224.383C155.078 229.461 152.148 232 146.289 232H51.9531Z" fill="white"/>
<path d="M716.258 223.797C712.43 221.062 711.375 218.133 713.094 215.008L719.07 204.109C721.18 200.203 724.461 199.734 728.914 202.703C733.367 205.672 738.602 207.859 744.617 209.266C750.711 210.672 756.258 211.375 761.258 211.375C764.773 211.375 768.055 211.023 771.102 210.32C774.148 209.617 776.727 208.25 778.836 206.219C780.945 204.188 782 201.219 782 197.312C782 194.969 781.375 192.977 780.125 191.336C778.875 189.695 777.273 188.445 775.32 187.586C773.367 186.727 771.297 186.023 769.109 185.477C766.219 184.773 762.039 183.602 756.57 181.961C751.18 180.32 745.984 178.406 740.984 176.219C736.844 174.422 732.781 171.922 728.797 168.719C724.891 165.438 722 161.805 720.125 157.82C718.328 153.836 717.43 148.914 717.43 143.055C717.43 135.164 719.695 128.25 724.227 122.312C728.836 116.375 734.773 112.273 742.039 110.008C749.305 107.742 758.367 106.609 769.227 106.609C776.57 106.609 783.719 107.664 790.672 109.773C797.625 111.883 802.586 113.875 805.555 115.75C810.242 118.719 811.414 121.883 809.07 125.242L801.922 135.672C799.734 138.797 796.219 139.031 791.375 136.375C787.703 134.344 784.07 132.703 780.477 131.453C776.961 130.203 773.016 129.578 768.641 129.578C765.672 129.578 762.82 129.891 760.086 130.516C757.352 131.141 755.008 132.312 753.055 134.031C751.18 135.75 750.242 138.016 750.242 140.828C750.242 143.797 751.102 146.141 752.82 147.859C754.617 149.5 756.648 150.711 758.914 151.492C761.258 152.273 763.484 153.016 765.594 153.719C769.969 155.125 774.383 156.492 778.836 157.82C783.289 159.07 787.82 160.594 792.43 162.391C796.414 163.953 800.281 166.18 804.031 169.07C807.781 171.961 810.516 175.633 812.234 180.086C813.953 184.539 814.812 189.617 814.812 195.32C814.812 202.898 812.547 209.93 808.016 216.414C803.484 222.898 797.508 227.508 790.086 230.242C782.664 232.977 774.031 234.344 764.188 234.344C753.172 234.344 743.797 233.562 736.062 232C728.328 230.438 721.727 227.703 716.258 223.797Z" fill="#0084E3"/>
<path d="M660.242 93.25C654.773 93.25 652.039 90.3203 652.039 84.4609V68.7578C652.039 62.8984 654.773 59.9688 660.242 59.9688H678.523C683.992 59.9688 686.727 62.8984 686.727 68.7578V84.4609C686.727 94.5391 686.062 103.016 684.734 109.891C683.406 116.688 680.008 122.195 674.539 126.414C670.555 129.461 667.43 129.773 665.164 127.352L660.711 122.547C657.898 119.578 658.328 116.648 662 113.758C664.5 111.805 666.18 109.266 667.039 106.141C667.898 103.016 668.328 98.7188 668.328 93.25H660.242Z" fill="#0084E3"/>
<path d="M505.672 170.477C505.672 153.289 509.383 138.367 516.805 125.711C524.305 112.977 537.234 106.609 555.594 106.609C562.625 106.609 568.641 107.625 573.641 109.656C578.641 111.688 583.172 116.062 587.234 122.781H587.703C587.391 119.656 587.234 116.531 587.234 113.406V66.0625C587.234 61.375 589.578 59.0312 594.266 59.0312H613.016C617.703 59.0312 620.047 61.375 620.047 66.0625V224.969C620.047 229.656 617.703 232 613.016 232H594.5C590.594 232 588.484 229.656 588.172 224.969L587.703 218.172H587.234C583.172 224.891 578.641 229.266 573.641 231.297C568.641 233.328 562.625 234.344 555.594 234.344C537.234 234.344 524.305 228.016 516.805 215.359C509.383 202.625 505.672 187.664 505.672 170.477ZM540.359 170.477C540.359 182.977 541.961 192.938 545.164 200.359C548.445 207.703 555.359 211.375 565.906 211.375C571.766 211.375 576.766 208.094 580.906 201.531C585.125 194.891 587.234 186.297 587.234 175.75V165.203C587.234 154.656 585.125 146.102 580.906 139.539C576.766 132.898 571.766 129.578 565.906 129.578C555.359 129.578 548.445 133.289 545.164 140.711C541.961 148.055 540.359 157.977 540.359 170.477Z" fill="#0084E3"/>
<path d="M373.953 199.188C373.953 183.562 381.414 172.234 396.336 165.203C411.258 158.172 428.289 154.422 447.43 153.953V149.266C447.43 142.078 445.633 137 442.039 134.031C438.445 131.062 433.445 129.578 427.039 129.578C422.508 129.578 418.484 130.242 414.969 131.57C411.531 132.82 408.523 134.305 405.945 136.023C403.445 137.664 401.18 139.344 399.148 141.062C395.555 144.188 392.586 144.344 390.242 141.531L380.516 129.578C378.094 126.609 378.68 123.562 382.273 120.438C385.008 118.016 388.172 115.906 391.766 114.109C395.438 112.312 400.281 110.633 406.297 109.07C412.312 107.43 420.125 106.609 429.734 106.609C445.984 106.609 458.445 110.359 467.117 117.859C475.867 125.359 480.242 136.414 480.242 151.023V224.969C480.242 229.656 477.898 232 473.211 232H453.992C449.773 232 447.664 229.656 447.664 224.969V221.453H447.43C442.82 225.906 437.273 229.188 430.789 231.297C424.383 233.328 418.484 234.344 413.094 234.344C400.281 234.344 390.555 231.219 383.914 224.969C377.273 218.641 373.953 210.047 373.953 199.188ZM408.641 198.484C408.641 201.219 409.188 203.602 410.281 205.633C411.375 207.586 413.094 209.031 415.438 209.969C417.781 210.906 420.398 211.375 423.289 211.375C427.273 211.375 431.141 210.828 434.891 209.734C438.641 208.641 442.82 206.062 447.43 202V176.57C434.305 178.055 425.516 179.969 421.062 182.312C416.609 184.656 413.406 187.078 411.453 189.578C409.578 192.078 408.641 195.047 408.641 198.484Z" fill="#0084E3"/>
<path d="M236.375 170.477C236.375 150.711 241.297 135.125 251.141 123.719C261.062 112.312 275.047 106.609 293.094 106.609C314.031 106.609 329.578 112 339.734 122.781C349.891 133.562 354.969 150.906 354.969 174.812C354.969 179.5 352.781 181.844 348.406 181.844H271.062C272.312 194.812 275.516 202.977 280.672 206.336C285.828 209.695 291.805 211.375 298.602 211.375C305.086 211.375 310.047 210.516 313.484 208.797C316.922 207.078 319.812 204.734 322.156 201.766C324.812 198.328 328.094 197.781 332 200.125L343.719 207.273C348.328 210.086 348.992 213.445 345.711 217.352C340.945 223.055 335.359 227.312 328.953 230.125C322.547 232.938 312.43 234.344 298.602 234.344C276.18 234.344 260.203 228.641 250.672 217.234C241.141 205.828 236.375 190.242 236.375 170.477ZM271.18 158.406H322.156C322.156 149.969 320.047 143.094 315.828 137.781C311.609 132.391 304.891 129.695 295.672 129.695C288.328 129.695 282.508 132.273 278.211 137.43C273.914 142.508 271.57 149.5 271.18 158.406Z" fill="#0084E3"/>
</svg>
