<?xml version="1.0" encoding="utf-8"?>
<!-- Generator: Adobe Illustrator 27.5.0, SVG Export Plug-In . SVG Version: 6.00 Build 0)  -->
<svg version="1.1" xmlns="http://www.w3.org/2000/svg" xmlns:xlink="http://www.w3.org/1999/xlink" x="0px" y="0px"
	 viewBox="0 0 750 500" style="enable-background:new 0 0 750 500;" xml:space="preserve">
<g id="BACKGROUND">
	<rect style="fill:#FFFFFF;" width="750" height="500"/>
</g>
<g id="OBJECTS">
	<g>
		<g>
			<path style="fill:#C9D5E1;" d="M224.627,200.65c-0.207,0-0.415-0.014-0.624-0.042l-15.878-2.116
				c-1.233-0.165-2.33-0.799-3.085-1.788c-0.756-0.988-1.082-2.212-0.917-3.446l1.341-10.064c0.149-1.12-0.41-2.206-1.392-2.702
				c-1.48-0.748-2.933-1.589-4.317-2.501c-0.921-0.607-2.141-0.553-3.039,0.134l-8.064,6.168c-0.989,0.756-2.213,1.082-3.446,0.917
				c-1.233-0.164-2.329-0.799-3.085-1.788l-9.731-12.724c-1.561-2.04-1.17-4.971,0.871-6.532l8.065-6.168
				c0.897-0.686,1.269-1.85,0.924-2.897c-0.518-1.575-0.949-3.197-1.283-4.822c-0.221-1.077-1.123-1.901-2.243-2.051l-10.064-1.341
				c-1.234-0.164-2.33-0.799-3.086-1.788c-0.756-0.988-1.082-2.212-0.917-3.446l2.116-15.877c0.164-1.233,0.799-2.329,1.788-3.085
				c0.989-0.756,2.212-1.081,3.446-0.917l10.064,1.341c1.123,0.153,2.206-0.411,2.702-1.392c0.749-1.482,1.59-2.935,2.501-4.318
				c0.606-0.92,0.552-2.141-0.134-3.038l-6.168-8.065c-0.756-0.988-1.082-2.212-0.917-3.446c0.165-1.234,0.799-2.33,1.788-3.085
				l12.723-9.731c0.988-0.756,2.215-1.081,3.446-0.917c1.234,0.165,2.33,0.799,3.086,1.788l6.168,8.064
				c0.686,0.897,1.85,1.27,2.896,0.925c1.577-0.518,3.199-0.95,4.823-1.283c1.077-0.221,1.901-1.123,2.05-2.243l1.341-10.064
				c0.164-1.234,0.799-2.33,1.788-3.086c0.989-0.756,2.212-1.082,3.446-0.918l15.878,2.115c2.546,0.339,4.342,2.688,4.003,5.234
				l-1.341,10.065c-0.149,1.12,0.41,2.205,1.392,2.701c1.48,0.747,2.933,1.589,4.318,2.501c0.92,0.605,2.14,0.552,3.038-0.134
				l8.065-6.168c0.988-0.756,2.21-1.082,3.446-0.918c1.234,0.165,2.33,0.799,3.086,1.788l9.731,12.723
				c1.561,2.041,1.17,4.97-0.87,6.532l-8.065,6.168c-0.897,0.686-1.268,1.85-0.924,2.897c0.517,1.573,0.948,3.195,1.283,4.822
				c0.221,1.077,1.123,1.901,2.243,2.05l10.064,1.341c2.546,0.339,4.342,2.688,4.003,5.234l-2.116,15.878
				c-0.165,1.233-0.799,2.33-1.788,3.085c-0.988,0.756-2.21,1.083-3.446,0.917l-10.064-1.341c-1.12-0.149-2.206,0.41-2.702,1.392
				c-0.75,1.485-1.591,2.938-2.501,4.318c-0.606,0.919-0.552,2.14,0.134,3.038l6.168,8.064c0.756,0.989,1.082,2.212,0.918,3.446
				c-0.165,1.234-0.799,2.33-1.788,3.085l-12.723,9.731c-0.988,0.756-2.211,1.081-3.446,0.917c-1.234-0.165-2.33-0.799-3.085-1.788
				l-6.168-8.064c-0.687-0.897-1.85-1.268-2.896-0.925c-1.573,0.517-3.195,0.949-4.822,1.283c-1.077,0.221-1.901,1.123-2.05,2.243
				l-1.341,10.064c-0.164,1.233-0.799,2.329-1.788,3.085C226.628,200.319,225.644,200.65,224.627,200.65z M198.342,175.573
				c0.876,0,1.75,0.248,2.511,0.749c1.321,0.87,2.707,1.672,4.119,2.386c1.741,0.879,2.734,2.788,2.473,4.751l-1.341,10.064
				c-0.094,0.705,0.092,1.403,0.523,1.967c0.432,0.564,1.057,0.927,1.762,1.02l15.878,2.116c0.701,0.091,1.402-0.093,1.966-0.524
				c0.564-0.432,0.927-1.057,1.02-1.761l1.341-10.064c0.261-1.963,1.72-3.545,3.63-3.938c1.552-0.319,3.1-0.731,4.6-1.224
				c1.855-0.611,3.907,0.038,5.11,1.61l6.168,8.064c0.431,0.564,1.057,0.927,1.761,1.021c0.707,0.095,1.403-0.092,1.967-0.524
				l12.723-9.731c1.164-0.891,1.388-2.563,0.496-3.728l-6.168-8.064c-1.202-1.572-1.289-3.724-0.215-5.353
				c0.867-1.316,1.67-2.702,2.386-4.119c0.878-1.741,2.78-2.735,4.751-2.473l10.064,1.341c1.451,0.189,2.794-0.831,2.988-2.285
				v0.001l2.116-15.878c0.193-1.453-0.832-2.794-2.285-2.987l-10.064-1.341c-1.963-0.261-3.545-1.72-3.938-3.63
				c-0.319-1.552-0.731-3.1-1.224-4.601c-0.609-1.854,0.038-3.908,1.61-5.11l8.065-6.168c1.165-0.891,1.387-2.563,0.496-3.728
				l-9.731-12.723c-0.432-0.564-1.057-0.927-1.761-1.021c-0.701-0.097-1.402,0.091-1.966,0.523l-8.065,6.168
				c-1.571,1.203-3.723,1.29-5.353,0.215c-1.321-0.87-2.707-1.673-4.119-2.386c-1.74-0.879-2.734-2.788-2.473-4.751l1.341-10.065
				c0.193-1.453-0.832-2.793-2.285-2.987l-15.877-2.115c-0.704-0.095-1.403,0.092-1.967,0.524c-0.564,0.432-0.927,1.057-1.021,1.762
				l-1.341,10.064c-0.262,1.963-1.72,3.545-3.63,3.938c-1.549,0.318-3.097,0.73-4.601,1.224c-1.854,0.61-3.907-0.037-5.109-1.61
				l-6.168-8.064c-0.892-1.167-2.564-1.388-3.728-0.497l-12.723,9.731c-0.564,0.431-0.927,1.057-1.02,1.761
				c-0.094,0.704,0.092,1.403,0.524,1.967l6.168,8.064c1.203,1.572,1.289,3.723,0.215,5.353c-0.869,1.319-1.672,2.706-2.386,4.119
				c-0.879,1.74-2.792,2.73-4.751,2.473l-10.064-1.341c-0.706-0.096-1.403,0.092-1.967,0.523c-0.564,0.432-0.927,1.057-1.021,1.761
				l-2.116,15.878c-0.094,0.704,0.092,1.402,0.523,1.967c0.432,0.564,1.057,0.927,1.762,1.021l10.064,1.341
				c1.963,0.262,3.546,1.721,3.938,3.631c0.318,1.549,0.73,3.097,1.225,4.6c0.609,1.854-0.038,3.907-1.61,5.11l-8.065,6.168
				c-1.165,0.891-1.388,2.563-0.497,3.728l9.731,12.724c0.431,0.564,1.057,0.926,1.761,1.02c0.7,0.094,1.402-0.092,1.967-0.524
				l8.064-6.168C196.338,175.896,197.342,175.573,198.342,175.573z M223.781,167.295c-0.681,0-1.365-0.027-2.053-0.084
				c-7.291-0.598-14.014-4.264-18.445-10.058c-4.431-5.793-6.209-13.242-4.876-20.435c2.379-12.852,14.451-22.089,27.475-21.014
				c7.291,0.598,14.014,4.264,18.445,10.057c4.431,5.793,6.209,13.242,4.877,20.436
				C246.949,158.371,236.001,167.295,223.781,167.295z M223.824,117.621c-11.273,0-21.372,8.232-23.451,19.463
				c-1.229,6.638,0.41,13.51,4.499,18.855c4.088,5.345,10.292,8.728,17.02,9.279c12.027,0.984,23.15-7.529,25.345-19.385
				c1.229-6.638-0.411-13.511-4.499-18.856c-4.088-5.345-10.291-8.727-17.02-9.279C225.084,117.646,224.451,117.621,223.824,117.621
				z"/>
			<path style="fill:#C9D5E1;" d="M594.194,136.14l1.773-23.278c0.224-2.937-1.976-5.499-4.913-5.723l-14.755-1.124
				c-2.235-0.17-4.156-1.712-4.73-3.879c-0.61-2.303-1.35-4.557-2.211-6.752c-0.82-2.088-0.187-4.468,1.515-5.93l11.228-9.639
				c2.235-1.919,2.492-5.286,0.573-7.521l-15.206-17.714c-1.919-2.235-5.286-2.492-7.521-0.573l-11.228,9.639
				c-1.702,1.461-4.151,1.726-6.091,0.599c-2.04-1.184-4.156-2.256-6.339-3.209c-2.055-0.896-3.288-3.028-3.118-5.263l1.124-14.755
				c0.224-2.937-1.976-5.499-4.913-5.723l-23.278-1.773c-2.937-0.224-5.499,1.976-5.723,4.913l-1.124,14.755
				c-0.17,2.235-1.712,4.156-3.879,4.73c-2.303,0.61-4.557,1.35-6.752,2.211c-2.088,0.82-4.468,0.187-5.93-1.515l-9.639-11.228
				c-1.919-2.235-5.286-2.491-7.521-0.573l-17.714,15.206c-2.235,1.919-2.491,5.286-0.573,7.521l9.639,11.228
				c1.461,1.702,1.726,4.151,0.599,6.091c-1.184,2.04-2.256,4.155-3.208,6.339c-0.896,2.055-3.028,3.288-5.263,3.118l-14.755-1.124
				c-2.937-0.224-5.499,1.976-5.723,4.913l-1.773,23.278c-0.224,2.937,1.976,5.499,4.913,5.723l14.755,1.124
				c2.235,0.17,4.156,1.712,4.73,3.879c0.61,2.303,1.35,4.557,2.211,6.752c0.82,2.088,0.187,4.468-1.515,5.93l-11.228,9.639
				c-2.235,1.919-2.491,5.286-0.573,7.521l15.206,17.714c1.919,2.235,5.286,2.491,7.521,0.573l11.228-9.639
				c1.702-1.461,4.151-1.726,6.091-0.599c2.04,1.184,4.155,2.256,6.339,3.208c2.055,0.896,3.288,3.028,3.118,5.263l-1.124,14.755
				c-0.224,2.937,1.976,5.499,4.913,5.723l23.278,1.773c2.937,0.224,5.499-1.976,5.723-4.913l1.124-14.755
				c0.17-2.235,1.712-4.156,3.879-4.73c2.303-0.61,4.557-1.35,6.752-2.211c2.088-0.82,4.468-0.188,5.93,1.515l9.639,11.228
				c1.919,2.235,5.286,2.491,7.521,0.573l17.714-15.206c2.235-1.919,2.491-5.286,0.573-7.521l-9.639-11.228
				c-1.461-1.702-1.726-4.151-0.599-6.091c1.184-2.04,2.256-4.156,3.208-6.339c0.896-2.055,3.028-3.288,5.263-3.118l14.755,1.124
				C591.408,141.277,593.97,139.077,594.194,136.14z M510.499,154.313c-21.499-0.546-37.751-19.478-35.034-40.811
				c2.326-18.266,18.361-32.032,36.768-31.564c21.499,0.546,37.751,19.478,35.034,40.811
				C544.941,141.015,528.906,154.781,510.499,154.313z"/>
			<path style="fill:#C9D5E1;" d="M550.851,405.67c-3.416,0-6.561-2.261-7.524-5.708l-5.086-18.198
				c-0.665-2.378-2.729-4.077-5.136-4.228c-3.056-0.191-6.125-0.561-9.122-1.1c-2.379-0.423-4.789,0.732-6,2.881l-9.27,16.464
				c-2.113,3.752-6.887,5.086-10.638,2.974l-25.974-14.627c-1.818-1.023-3.129-2.693-3.689-4.703
				c-0.562-2.009-0.308-4.116,0.717-5.934l9.27-16.464c1.21-2.15,0.95-4.813-0.646-6.625c-2.02-2.29-3.927-4.723-5.67-7.229
				c-1.378-1.981-3.904-2.865-6.277-2.201l-18.198,5.086c-4.145,1.16-8.465-1.271-9.624-5.419l-8.023-28.709
				c-0.562-2.01-0.308-4.117,0.716-5.935c1.023-1.817,2.694-3.128,4.703-3.689l18.197-5.086c2.378-0.665,4.077-2.729,4.228-5.137
				c0.191-3.048,0.562-6.116,1.1-9.121c0.427-2.378-0.731-4.789-2.881-6l-16.464-9.271c-1.818-1.023-3.129-2.693-3.689-4.703
				c-0.562-2.009-0.308-4.116,0.717-5.934l14.626-25.975c1.023-1.818,2.693-3.128,4.703-3.689c2.01-0.561,4.116-0.308,5.935,0.717
				l16.463,9.27c2.151,1.212,4.814,0.951,6.625-0.646c2.291-2.02,4.724-3.927,7.229-5.669c1.98-1.377,2.864-3.9,2.2-6.278
				l-5.086-18.198c-0.561-2.009-0.308-4.116,0.717-5.934c1.023-1.818,2.693-3.128,4.702-3.689l28.709-8.024
				c2.011-0.562,4.118-0.307,5.935,0.716c1.818,1.024,3.129,2.694,3.689,4.703l5.087,18.198c0.665,2.377,2.729,4.077,5.136,4.228
				c3.047,0.19,6.116,0.561,9.122,1.1c2.376,0.427,4.789-0.732,6-2.882l9.27-16.463c1.023-1.818,2.693-3.128,4.703-3.69
				c2.01-0.561,4.117-0.307,5.934,0.717l25.975,14.626c1.818,1.023,3.129,2.694,3.689,4.703c0.562,2.009,0.308,4.117-0.717,5.935
				l-9.271,16.463c-1.21,2.15-0.95,4.813,0.646,6.625c2.018,2.288,3.925,4.72,5.67,7.228c1.378,1.982,3.904,2.865,6.277,2.201
				l18.198-5.086c4.144-1.16,8.464,1.272,9.624,5.419l8.023,28.709c0.562,2.01,0.308,4.117-0.716,5.935
				c-1.023,1.817-2.694,3.128-4.703,3.689l-18.197,5.086c-2.378,0.665-4.077,2.728-4.228,5.137
				c-0.191,3.049-0.562,6.118-1.101,9.121c-0.426,2.378,0.732,4.789,2.882,6l16.464,9.271c3.753,2.113,5.086,6.886,2.973,10.637
				l-14.626,25.974c-1.023,1.818-2.694,3.129-4.703,3.69c-2.011,0.561-4.118,0.307-5.935-0.717l-16.463-9.272
				c-2.151-1.212-4.814-0.95-6.626,0.647c-2.289,2.019-4.722,3.926-7.229,5.67c-1.98,1.377-2.864,3.899-2.2,6.277l5.086,18.197
				c0.561,2.01,0.307,4.117-0.717,5.935c-1.023,1.818-2.693,3.129-4.703,3.689l-28.708,8.024
				C552.25,405.577,551.545,405.67,550.851,405.67z M522.998,374.349c0.444,0,0.892,0.039,1.338,0.119
				c2.922,0.524,5.914,0.886,8.894,1.072c3.256,0.204,6.043,2.488,6.937,5.685l5.086,18.198c0.862,3.085,4.073,4.895,7.16,4.032
				l28.709-8.024c1.495-0.418,2.737-1.393,3.499-2.745c0.761-1.351,0.95-2.92,0.533-4.415l-5.086-18.196
				c-0.894-3.197,0.306-6.597,2.983-8.459c2.445-1.7,4.816-3.56,7.049-5.527c2.451-2.159,6.04-2.517,8.929-0.89l16.463,9.271
				c2.793,1.569,6.342,0.579,7.915-2.212l14.626-25.974c1.571-2.792,0.58-6.342-2.212-7.914l-16.463-9.271
				c-2.891-1.627-4.446-4.88-3.87-8.095c0.525-2.929,0.887-5.921,1.073-8.893c0.204-3.256,2.488-6.044,5.685-6.938l18.197-5.086
				c1.495-0.418,2.738-1.393,3.499-2.745c0.762-1.352,0.951-2.92,0.533-4.414l-8.023-28.709c-0.862-3.085-4.079-4.894-7.159-4.033
				l-18.198,5.087c-3.196,0.895-6.596-0.305-8.459-2.984c-1.701-2.447-3.561-4.818-5.527-7.048
				c-2.159-2.451-2.517-6.038-0.889-8.929l9.27-16.463c0.762-1.353,0.951-2.92,0.533-4.415c-0.418-1.495-1.393-2.737-2.744-3.498
				l-25.975-14.627c-1.355-0.763-2.921-0.952-4.415-0.533c-1.494,0.418-2.737,1.393-3.499,2.745l-9.271,16.463
				c-1.628,2.891-4.878,4.447-8.096,3.869c-2.931-0.526-5.923-0.886-8.893-1.072c-3.256-0.204-6.043-2.489-6.937-5.686
				l-5.087-18.198c-0.418-1.495-1.393-2.737-2.745-3.498c-1.352-0.761-2.924-0.951-4.414-0.533l-28.709,8.024
				c-1.495,0.418-2.737,1.393-3.499,2.745c-0.762,1.352-0.951,2.92-0.533,4.415l5.086,18.198c0.893,3.196-0.306,6.595-2.983,8.458
				c-2.443,1.699-4.815,3.559-7.05,5.528c-2.448,2.159-6.039,2.518-8.928,0.889l-16.464-9.271c-1.354-0.763-2.921-0.952-4.415-0.534
				c-1.494,0.418-2.737,1.393-3.499,2.745l-14.626,25.974c-0.762,1.353-0.951,2.921-0.533,4.415
				c0.418,1.495,1.393,2.737,2.744,3.499l16.464,9.272c2.892,1.627,4.446,4.881,3.869,8.096c-0.525,2.93-0.886,5.921-1.072,8.893
				c-0.204,3.256-2.488,6.044-5.685,6.938l-18.197,5.086c-1.495,0.418-2.738,1.393-3.499,2.745c-0.762,1.352-0.951,2.92-0.533,4.414
				l8.023,28.709c0.863,3.086,4.08,4.895,7.159,4.032l18.198-5.086c3.196-0.894,6.596,0.306,8.459,2.984
				c1.699,2.444,3.559,4.815,5.527,7.049c2.159,2.449,2.517,6.037,0.889,8.928l-9.271,16.464c-0.762,1.352-0.951,2.921-0.533,4.415
				c0.418,1.495,1.393,2.737,2.744,3.499l25.974,14.627c2.793,1.57,6.342,0.579,7.915-2.212l9.27-16.464
				C517.642,375.848,520.248,374.349,522.998,374.349z M538.392,344.363c-19.839,0-38.479-12.771-44.967-32.146l0,0
				c-4.246-12.678-2.93-26.611,3.61-38.227c6.541-11.616,17.773-19.966,30.816-22.909c23.292-5.258,47.497,8.367,55.083,31.02
				c4.246,12.678,2.93,26.611-3.61,38.227c-6.541,11.616-17.773,19.966-30.816,22.909
				C545.138,343.998,541.747,344.363,538.392,344.363z M537.979,251.955c-3.214,0-6.458,0.35-9.688,1.078
				c-12.491,2.818-23.249,10.815-29.513,21.939c-6.264,11.123-7.524,24.468-3.457,36.61c7.264,21.689,30.428,34.738,52.747,29.703
				c12.491-2.818,23.249-10.815,29.513-21.939c6.264-11.123,7.524-24.468,3.457-36.61
				C574.825,264.185,556.975,251.955,537.979,251.955z"/>
			<path style="fill:#748BE9;" d="M270.591,350.798l14.499-22.003c1.83-2.776,1.062-6.51-1.714-8.339l-13.947-9.191
				c-2.113-1.392-3.164-3.966-2.544-6.419c0.659-2.607,1.164-5.236,1.516-7.875c0.335-2.51,2.262-4.513,4.743-5.022l16.36-3.363
				c3.257-0.67,5.354-3.852,4.685-7.109l-5.306-25.811c-0.669-3.257-3.852-5.354-7.109-4.685l-16.36,3.363
				c-2.48,0.51-5.041-0.57-6.339-2.744c-1.364-2.286-2.865-4.503-4.499-6.639c-1.537-2.01-1.587-4.789-0.195-6.902l9.19-13.947
				c1.829-2.776,1.062-6.51-1.714-8.339l-22.003-14.499c-2.776-1.829-6.51-1.062-8.339,1.714l-9.191,13.947
				c-1.392,2.113-3.966,3.164-6.419,2.544c-2.607-0.659-5.236-1.164-7.875-1.516c-2.51-0.335-4.513-2.262-5.023-4.743l-3.363-16.36
				c-0.669-3.257-3.852-5.354-7.109-4.684l-25.811,5.306c-3.257,0.669-5.354,3.852-4.684,7.109l3.363,16.36
				c0.51,2.48-0.57,5.041-2.744,6.339c-2.286,1.365-4.503,2.865-6.639,4.499c-2.01,1.537-4.789,1.587-6.902,0.195l-13.947-9.191
				c-2.776-1.829-6.51-1.062-8.339,1.714l-14.499,22.003c-1.829,2.776-1.062,6.51,1.714,8.339l13.947,9.191
				c2.113,1.392,3.164,3.966,2.544,6.419c-0.659,2.607-1.164,5.236-1.516,7.875c-0.335,2.51-2.262,4.513-4.743,5.022l-16.36,3.363
				c-3.257,0.669-5.354,3.852-4.685,7.109l5.306,25.811c0.67,3.257,3.852,5.354,7.109,4.684l16.36-3.363
				c2.48-0.51,5.041,0.57,6.339,2.745c1.365,2.286,2.865,4.503,4.499,6.639c1.537,2.01,1.587,4.789,0.195,6.902l-9.191,13.947
				c-1.829,2.776-1.062,6.51,1.714,8.339l22.003,14.499c2.776,1.829,6.51,1.062,8.339-1.714l9.191-13.947
				c1.392-2.113,3.966-3.164,6.419-2.544c2.607,0.659,5.236,1.164,7.875,1.516c2.51,0.335,4.513,2.262,5.022,4.742l3.363,16.36
				c0.67,3.257,3.852,5.354,7.109,4.685l25.811-5.306c3.257-0.669,5.354-3.852,4.685-7.109l-3.363-16.36
				c-0.51-2.48,0.57-5.042,2.745-6.339c2.286-1.365,4.503-2.865,6.639-4.499c2.01-1.537,4.789-1.587,6.902-0.195l13.947,9.191
				C265.028,354.342,268.762,353.575,270.591,350.798z M178.036,322.893c-20.919-12.314-26.589-39.9-12.224-59.467
				c12.3-16.754,35.665-21.557,53.576-11.013c20.919,12.314,26.589,39.9,12.224,59.467
				C219.312,328.634,195.947,333.437,178.036,322.893z"/>
			<g>
				<path style="fill:#C9D5E1;" d="M149.921,163.082l-40.721-0.037c-1.114-0.001-2.026,0.91-2.027,2.023l-0.004,4.015
					c0,0.107,0.06,0.204,0.154,0.253l0.937,0.481l16.308,8.373l4.528,2.4c0.27,0.143,0.59,0.139,0.857-0.012l20.125-11.91
					l1.515-0.896c0.11-0.066,0.228-0.105,0.348-0.123l0.002-2.541C151.945,163.99,151.039,163.083,149.921,163.082z"/>
				<path style="fill:#C9D5E1;" d="M107.167,171.911l-0.019,20.461c0,0.241,0.28,0.373,0.466,0.219l15.223-12.654
					c0.157-0.13,0.129-0.378-0.052-0.471l-15.204-7.807C107.392,171.561,107.167,171.698,107.167,171.911z"/>
				<path style="fill:#C9D5E1;" d="M151.92,192.525l0.02-22.195c0-0.22-0.239-0.357-0.429-0.245l-15.429,9.13
					c-0.168,0.1-0.188,0.335-0.039,0.461l15.408,13.065C151.636,192.897,151.919,192.766,151.92,192.525z"/>
				<path style="fill:#C9D5E1;" d="M150.792,194.733l-16.671-14.135c-0.092-0.078-0.224-0.09-0.328-0.028l-2.875,1.701
					c-0.444,0.251-0.928,0.376-1.411,0.376c-0.451-0.001-0.9-0.11-1.312-0.329l-3.19-1.691c-0.044,0.059-0.094,0.115-0.153,0.164
					l-16.73,13.907c-0.181,0.15-0.399,0.223-0.617,0.223c-0.123,0-0.244-0.028-0.359-0.074l0,0c-0.001,1.114,0.91,2.026,2.024,2.027
					l40.721,0.037c1.114,0.001,2.026-0.91,2.027-2.024l0-0.074c-0.154,0.095-0.327,0.148-0.503,0.148
					C151.195,194.962,150.974,194.886,150.792,194.733z"/>
			</g>
			<g>
				<path style="fill:#C9D5E1;" d="M643.78,150.136l-40.751-0.037c-1.11-0.001-2.011,0.898-2.012,2.008l-0.004,3.985
					c0,0.106,0.059,0.203,0.154,0.251l0.937,0.478l16.308,8.311l4.528,2.382c0.27,0.142,0.591,0.138,0.857-0.012l20.125-11.821
					l1.515-0.89c0.11-0.065,0.229-0.104,0.348-0.122l0.002-2.522C645.789,151.037,644.89,150.137,643.78,150.136z"/>
				<path style="fill:#C9D5E1;" d="M601.011,158.898l-0.019,20.313c0,0.239,0.277,0.37,0.461,0.218l15.226-12.563
					c0.157-0.129,0.129-0.376-0.051-0.469l-15.208-7.75C601.233,158.551,601.011,158.687,601.011,158.898z"/>
				<path style="fill:#C9D5E1;" d="M645.763,179.362l0.02-22.035c0-0.218-0.237-0.354-0.425-0.243l-15.432,9.064
					c-0.168,0.099-0.188,0.333-0.039,0.459l15.412,12.97C645.483,179.732,645.763,179.602,645.763,179.362z"/>
				<path style="fill:#C9D5E1;" d="M644.636,181.551l-16.673-14.031c-0.091-0.077-0.221-0.088-0.324-0.027l-2.877,1.69
					c-0.444,0.249-0.928,0.373-1.411,0.373c-0.451,0-0.9-0.109-1.312-0.326l-3.19-1.678c-0.044,0.059-0.094,0.114-0.153,0.163
					l-16.73,13.804c-0.181,0.149-0.399,0.222-0.617,0.221c-0.123,0-0.244-0.027-0.359-0.073l0,0
					c-0.001,1.11,0.898,2.011,2.009,2.012l40.751,0.037c1.11,0.001,2.011-0.898,2.012-2.009v-0.074
					c-0.154,0.094-0.327,0.147-0.503,0.146C645.038,181.778,644.818,181.704,644.636,181.551z"/>
			</g>
			<g>
				<g>
					<path style="fill:#FFFFFF;" d="M303.551,74.411c0,2.978-2.414,5.392-5.392,5.392c-2.978,0-5.392-2.414-5.392-5.392
						c0-2.978,2.414-5.392,5.392-5.392C301.137,69.018,303.551,71.433,303.551,74.411z"/>
					<path style="fill:#C9D5E1;" d="M298.159,80.303c-3.249,0-5.892-2.644-5.892-5.893c0-3.249,2.643-5.893,5.892-5.893
						s5.893,2.644,5.893,5.893C304.051,77.66,301.408,80.303,298.159,80.303z M298.159,69.518c-2.698,0-4.892,2.195-4.892,4.893
						c0,2.698,2.194,4.893,4.892,4.893c2.698,0,4.893-2.195,4.893-4.893C303.051,71.713,300.856,69.518,298.159,69.518z"/>
				</g>
				<g>
					<path style="fill:#FFFFFF;" d="M300.386,45.057c0,1.23-0.997,2.228-2.228,2.228c-1.23,0-2.227-0.997-2.227-2.228
						c0-1.23,0.997-2.227,2.227-2.227C299.389,42.83,300.386,43.827,300.386,45.057z"/>
					<path style="fill:#C9D5E1;" d="M298.159,47.785c-1.504,0-2.728-1.223-2.728-2.727c0-1.504,1.224-2.727,2.728-2.727
						s2.728,1.224,2.728,2.727C300.886,46.562,299.663,47.785,298.159,47.785z M298.159,43.33c-0.953,0-1.728,0.775-1.728,1.727
						c0,0.952,0.775,1.727,1.728,1.727s1.728-0.775,1.728-1.727C299.886,44.105,299.111,43.33,298.159,43.33z"/>
				</g>
				<g>
					<path style="fill:#FFFFFF;" d="M311.582,70.224h-26.847V58.936c0-7.413,6.01-13.423,13.423-13.423h0
						c7.413,0,13.423,6.01,13.423,13.423V70.224z"/>
					<path style="fill:#C9D5E1;" d="M312.082,70.724h-27.847V58.937c0-7.678,6.246-13.924,13.923-13.924
						c7.677,0,13.923,6.246,13.923,13.924V70.724z M285.235,69.724h25.847V58.937c0-7.126-5.797-12.924-12.923-12.924
						s-12.923,5.798-12.923,12.924V69.724z"/>
				</g>
				<g>
					<path style="fill:#FFFFFF;" d="M311.001,74.36h-25.685c-2.284,0-4.135-1.852-4.135-4.136l0,0c0-2.284,1.852-4.135,4.135-4.135
						h25.685c2.284,0,4.135,1.852,4.135,4.135l0,0C315.137,72.508,313.285,74.36,311.001,74.36z"/>
					<path style="fill:#C9D5E1;" d="M311.001,74.86h-25.685c-2.556,0-4.635-2.08-4.635-4.636c0-2.556,2.079-4.635,4.635-4.635
						h25.685c2.556,0,4.636,2.08,4.636,4.635C315.637,72.78,313.557,74.86,311.001,74.86z M285.316,66.589
						c-2.004,0-3.635,1.631-3.635,3.635c0,2.005,1.631,3.636,3.635,3.636h25.685c2.005,0,3.636-1.631,3.636-3.636
						c0-2.004-1.631-3.635-3.636-3.635H285.316z"/>
				</g>
			</g>
			<g>
				<g>
					<path style="fill:#FFFFFF;" d="M489.897,440.174c0,3.529-2.861,6.39-6.39,6.39c-3.529,0-6.39-2.861-6.39-6.39
						s2.861-6.39,6.39-6.39C487.037,433.784,489.897,436.645,489.897,440.174z"/>
					<path style="fill:#C9D5E1;" d="M483.508,447.564c-4.074,0-7.39-3.316-7.39-7.39s3.315-7.39,7.39-7.39
						c4.074,0,7.39,3.315,7.39,7.39S487.582,447.564,483.508,447.564z M483.508,434.784c-2.972,0-5.39,2.418-5.39,5.39
						s2.418,5.39,5.39,5.39c2.972,0,5.39-2.418,5.39-5.39S486.479,434.784,483.508,434.784z"/>
				</g>
				<g>
					<path style="fill:#FFFFFF;" d="M486.147,405.392c0,1.458-1.182,2.639-2.639,2.639c-1.458,0-2.639-1.182-2.639-2.639
						c0-1.458,1.182-2.639,2.639-2.639C484.965,402.752,486.147,403.934,486.147,405.392z"/>
					<path style="fill:#C9D5E1;" d="M483.508,409.031c-2.007,0-3.64-1.633-3.64-3.64s1.633-3.64,3.64-3.64
						c2.007,0,3.64,1.633,3.64,3.64S485.515,409.031,483.508,409.031z M483.508,403.752c-0.904,0-1.64,0.735-1.64,1.64
						s0.735,1.64,1.64,1.64s1.64-0.735,1.64-1.64S484.412,403.752,483.508,403.752z"/>
				</g>
				<g>
					<path style="fill:#FFFFFF;" d="M499.414,435.213h-31.812v-13.376c0-8.785,7.121-15.906,15.906-15.906h0
						c8.785,0,15.906,7.121,15.906,15.906V435.213z"/>
					<path style="fill:#C9D5E1;" d="M500.414,436.213h-33.813v-14.376c0-9.321,7.584-16.905,16.906-16.905
						s16.906,7.584,16.906,16.905V436.213z M468.602,434.213h29.813v-12.376c0-8.219-6.687-14.905-14.906-14.905
						s-14.906,6.687-14.906,14.905V434.213z"/>
				</g>
				<g>
					<path style="fill:#FFFFFF;" d="M498.725,440.113H468.29c-2.706,0-4.9-2.194-4.9-4.9l0,0c0-2.706,2.194-4.9,4.9-4.9h30.435
						c2.706,0,4.9,2.194,4.9,4.9l0,0C503.626,437.919,501.432,440.113,498.725,440.113z"/>
					<path style="fill:#C9D5E1;" d="M498.726,441.113H468.29c-3.254,0-5.9-2.647-5.9-5.9c0-3.254,2.647-5.9,5.9-5.9h30.436
						c3.254,0,5.9,2.647,5.9,5.9C504.626,438.467,501.979,441.113,498.726,441.113z M468.29,431.313c-2.15,0-3.9,1.75-3.9,3.9
						c0,2.15,1.75,3.9,3.9,3.9h30.436c2.15,0,3.9-1.75,3.9-3.9c0-2.15-1.75-3.9-3.9-3.9H468.29z"/>
				</g>
			</g>
		</g>
		<g>
			<path style="fill:#EB8D2E;" d="M349.265,38.019c0,1.353-1.097,2.45-2.45,2.45c-1.353,0-2.45-1.097-2.45-2.45
				c0-1.353,1.097-2.45,2.45-2.45C348.168,35.57,349.265,36.667,349.265,38.019z"/>
			<path style="fill:#EB8D2E;" d="M656.368,123.512c0,1.353-1.097,2.45-2.45,2.45s-2.45-1.097-2.45-2.45
				c0-1.353,1.097-2.45,2.45-2.45S656.368,122.16,656.368,123.512z"/>
			<path style="fill:#EB8D2E;" d="M681.756,266.073c0,1.353-1.097,2.45-2.449,2.45c-1.353,0-2.45-1.097-2.45-2.45
				c0-1.353,1.097-2.45,2.45-2.45C680.659,263.624,681.756,264.72,681.756,266.073z"/>
			<path style="fill:#EB8D2E;" d="M140.842,425.767c0,1.353-1.097,2.45-2.449,2.45c-1.353,0-2.45-1.097-2.45-2.45
				c0-1.353,1.097-2.45,2.45-2.45C139.745,423.317,140.842,424.414,140.842,425.767z"/>
			<path style="fill:#EB8D2E;" d="M133.267,125.962c0,1.353-1.097,2.45-2.45,2.45c-1.353,0-2.45-1.097-2.45-2.45
				c0-1.353,1.097-2.45,2.45-2.45C132.171,123.512,133.267,124.609,133.267,125.962z"/>
			<path style="fill:#111111;" d="M213.807,48.51c0,0.676-0.548,1.225-1.225,1.225c-0.676,0-1.225-0.548-1.225-1.225
				c0-0.676,0.548-1.225,1.225-1.225C213.259,47.285,213.807,47.833,213.807,48.51z"/>
			<path style="fill:#111111;" d="M590.611,42.83c0,0.676-0.548,1.225-1.225,1.225c-0.677,0-1.225-0.548-1.225-1.225
				c0-0.677,0.548-1.225,1.225-1.225C590.063,41.605,590.611,42.153,590.611,42.83z"/>
			<circle style="fill:#C9D5E1;" cx="62.584" cy="262.475" r="1.225"/>
			<circle style="fill:#C9D5E1;" cx="609.5" cy="400.368" r="1.225"/>
			<path style="fill:#C9D5E1;" d="M663.516,70.941c0,0.677-0.548,1.225-1.225,1.225s-1.225-0.548-1.225-1.225
				c0-0.676,0.548-1.225,1.225-1.225S663.516,70.264,663.516,70.941z"/>
			<path style="fill:#C9D5E1;" d="M217.638,452.595c0,0.676-0.548,1.225-1.225,1.225c-0.676,0-1.225-0.548-1.225-1.225
				s0.548-1.225,1.225-1.225C217.09,451.371,217.638,451.919,217.638,452.595z"/>
			<path style="fill:#111111;" d="M321.229,458.901c0,0.676-0.548,1.225-1.225,1.225c-0.676,0-1.225-0.548-1.225-1.225
				c0-0.676,0.548-1.225,1.225-1.225C320.681,457.676,321.229,458.224,321.229,458.901z"/>
			<circle style="fill:#111111;" cx="653.919" cy="315.605" r="1.225"/>
			<path style="fill:#748BE9;" d="M268.414,81.535c0,0.957-0.775,1.732-1.732,1.732c-0.956,0-1.732-0.775-1.732-1.732
				c0-0.956,0.775-1.732,1.732-1.732C267.638,79.803,268.414,80.578,268.414,81.535z"/>
			<path style="fill:#748BE9;" d="M619.775,234.319c0,0.956-0.775,1.732-1.732,1.732c-0.956,0-1.732-0.775-1.732-1.732
				c0-0.956,0.775-1.732,1.732-1.732C619,232.587,619.775,233.362,619.775,234.319z"/>
			<path style="fill:#748BE9;" d="M104.843,355.103c0,0.956-0.775,1.732-1.732,1.732c-0.956,0-1.732-0.775-1.732-1.732
				c0-0.956,0.775-1.732,1.732-1.732C104.067,353.371,104.843,354.147,104.843,355.103z"/>
			<circle style="fill:#748BE9;" cx="519.104" cy="434.335" r="1.732"/>
			<path style="fill:#C9D5E1;" d="M145.476,94.908h-38.563c-4.58,0-8.306-3.726-8.306-8.306v-3.335c0-0.276,0.224-0.5,0.5-0.5
				c0.276,0,0.5,0.224,0.5,0.5v3.335c0,4.028,3.277,7.306,7.306,7.306h38.563c0.276,0,0.5,0.224,0.5,0.5
				S145.752,94.908,145.476,94.908z"/>
			<path style="fill:#C9D5E1;" d="M164.117,89.027h-41.177c-0.276,0-0.5-0.224-0.5-0.5c0-0.276,0.224-0.5,0.5-0.5h41.177
				c0.276,0,0.5,0.224,0.5,0.5C164.617,88.803,164.393,89.027,164.117,89.027z"/>
			<path style="fill:#C9D5E1;" d="M690.534,222.896h-38.563c-0.276,0-0.5-0.224-0.5-0.5s0.224-0.5,0.5-0.5h38.563
				c4.028,0,7.306-3.277,7.306-7.306v-3.335c0-0.276,0.224-0.5,0.5-0.5c0.276,0,0.5,0.224,0.5,0.5v3.335
				C698.84,219.17,695.114,222.896,690.534,222.896z"/>
			<path style="fill:#C9D5E1;" d="M674.508,217.015H633.33c-0.276,0-0.5-0.224-0.5-0.5c0-0.276,0.224-0.5,0.5-0.5h41.178
				c0.276,0,0.5,0.224,0.5,0.5C675.008,216.791,674.784,217.015,674.508,217.015z"/>
			<path style="fill:#C9D5E1;" d="M322.796,421.739h-28.657c-0.276,0-0.5-0.224-0.5-0.5c0-0.276,0.224-0.5,0.5-0.5h28.657
				c0.276,0,0.5,0.224,0.5,0.5C323.296,421.516,323.072,421.739,322.796,421.739z"/>
			<path style="fill:#C9D5E1;" d="M87.832,237.895H59.175c-0.276,0-0.5-0.224-0.5-0.5c0-0.276,0.224-0.5,0.5-0.5h28.657
				c0.276,0,0.5,0.224,0.5,0.5C88.332,237.672,88.108,237.895,87.832,237.895z"/>
			<path style="fill:#C9D5E1;" d="M334.366,428.487h-28.657c-0.276,0-0.5-0.224-0.5-0.5s0.224-0.5,0.5-0.5h28.657
				c0.276,0,0.5,0.224,0.5,0.5S334.643,428.487,334.366,428.487z"/>
			<path style="fill:#C9D5E1;" d="M618.043,89.956h-28.657c-0.276,0-0.5-0.224-0.5-0.5c0-0.276,0.224-0.5,0.5-0.5h28.657
				c0.276,0,0.5,0.224,0.5,0.5C618.543,89.733,618.319,89.956,618.043,89.956z"/>
			<path style="fill:#C9D5E1;" d="M629.613,96.705h-28.657c-0.276,0-0.5-0.224-0.5-0.5c0-0.276,0.224-0.5,0.5-0.5h28.657
				c0.276,0,0.5,0.224,0.5,0.5C630.113,96.481,629.89,96.705,629.613,96.705z"/>
		</g>
	</g>
	<g>
		<g>
			<circle style="fill:#111111;" cx="411.293" cy="205.194" r="146.198"/>
			<circle style="fill:#748BE9;" cx="407" cy="201.9" r="146.198"/>
			<g>
				
					<ellipse transform="matrix(0.7071 -0.7071 0.7071 0.7071 -22.9667 346.6829)" style="fill:#748BE9;" cx="407" cy="201.065" rx="135.421" ry="135.421"/>
				<path style="fill:#111111;" d="M407.068,336.986c-0.882,0-1.758-0.009-2.643-0.025c-36.299-0.688-70.157-15.47-95.339-41.623
					c-25.181-26.153-38.67-60.548-37.983-96.847c0.688-36.299,15.469-70.158,41.623-95.339c53.989-51.98,140.204-50.35,192.186,3.64
					c25.181,26.153,38.671,60.548,37.983,96.847c-0.688,36.299-15.47,70.158-41.623,95.339
					C475.757,323.546,442.39,336.984,407.068,336.986z M406.976,66.207c-33.695,0-67.423,12.504-93.555,37.665
					c-25.961,24.996-40.634,58.605-41.317,94.638c-0.682,36.032,12.708,70.174,37.704,96.135
					c24.996,25.961,58.605,40.635,94.638,41.316c36.012,0.68,70.173-12.707,96.135-37.704
					c25.961-24.995,40.634-58.605,41.316-94.637c0.683-36.032-12.708-70.173-37.704-96.135
					C477.753,80.025,442.383,66.207,406.976,66.207z"/>
			</g>
			
				<ellipse transform="matrix(0.2289 -0.9734 0.9734 0.2289 118.1073 551.2319)" style="fill:#FFFFFF;" cx="407" cy="201.065" rx="116.785" ry="116.784"/>
			<g>
				<g>
					<path style="fill:#111111;" d="M346.469,137.596c-0.022,0-0.045,0-0.068-0.001c-0.93-0.018-1.797-0.396-2.442-1.066
						l-9.825-10.205c-1.331-1.383-1.29-3.592,0.094-4.924c1.383-1.331,3.592-1.289,4.924,0.094l9.825,10.204
						c0.645,0.67,0.991,1.551,0.973,2.481c-0.018,0.93-0.396,1.797-1.067,2.443C348.229,137.251,347.374,137.596,346.469,137.596z
						 M336.642,121.428c-0.62,0-1.24,0.23-1.721,0.693c-0.986,0.949-1.016,2.524-0.066,3.51l9.825,10.205
						c0.46,0.478,1.078,0.747,1.741,0.76c0.667,0.025,1.291-0.234,1.769-0.693v-0.001c0.478-0.46,0.747-1.078,0.76-1.741
						c0.013-0.663-0.234-1.291-0.694-1.769l-9.825-10.204C337.944,121.683,337.293,121.428,336.642,121.428z"/>
					<path style="fill:#111111;" d="M478.838,275.611c-0.914,0-1.827-0.356-2.51-1.065l-9.825-10.204
						c-0.646-0.67-0.99-1.551-0.973-2.481c0.018-0.93,0.396-1.797,1.066-2.442c1.382-1.331,3.591-1.292,4.924,0.093l9.824,10.205
						c0.645,0.67,0.991,1.551,0.974,2.48c-0.018,0.931-0.397,1.798-1.066,2.443l0,0
						C480.577,275.288,479.707,275.611,478.838,275.611z M469.012,259.445c-0.62,0-1.241,0.23-1.722,0.693
						c-0.478,0.46-0.748,1.078-0.76,1.741c-0.013,0.663,0.233,1.291,0.693,1.768l9.825,10.204c0.949,0.986,2.523,1.016,3.51,0.066
						l0,0c0.478-0.46,0.747-1.078,0.76-1.741c0.013-0.662-0.234-1.291-0.694-1.768l-9.824-10.205
						C470.313,259.699,469.663,259.445,469.012,259.445z"/>
				</g>
				<g>
					<path style="fill:#111111;" d="M333.629,272.598c-0.915,0-1.827-0.356-2.509-1.065c-0.645-0.67-0.991-1.551-0.973-2.481
						c0.018-0.93,0.396-1.797,1.067-2.442l10.204-9.825c0.669-0.645,1.54-1.009,2.481-0.973c0.93,0.018,1.797,0.396,2.443,1.067l0,0
						c1.331,1.383,1.289,3.592-0.094,4.924l-10.204,9.825C335.37,272.274,334.499,272.598,333.629,272.598z M343.831,256.81
						c-0.645,0-1.254,0.245-1.72,0.694l-10.204,9.825c-0.478,0.46-0.748,1.078-0.76,1.741c-0.013,0.663,0.234,1.291,0.694,1.769
						c0.95,0.986,2.524,1.016,3.51,0.066l10.204-9.825c0.986-0.949,1.016-2.523,0.066-3.51c-0.46-0.478-1.078-0.748-1.741-0.76
						C343.864,256.81,343.848,256.81,343.831,256.81z"/>
					<path style="fill:#111111;" d="M471.648,140.23c-0.022,0-0.045,0-0.068,0c-0.93-0.018-1.797-0.396-2.442-1.066
						c-1.331-1.382-1.29-3.591,0.093-4.923l10.205-9.825c0.67-0.645,1.503-0.992,2.482-0.973c0.93,0.018,1.797,0.396,2.442,1.066
						l0,0c1.331,1.383,1.289,3.592-0.094,4.924l-10.204,9.825C473.408,139.886,472.553,140.23,471.648,140.23z M481.85,124.441
						c-0.645,0-1.255,0.245-1.721,0.694l-10.205,9.825c-0.985,0.949-1.015,2.524-0.065,3.51c0.46,0.478,1.078,0.748,1.741,0.76
						c0.65,0.011,1.291-0.234,1.769-0.694l10.204-9.825c0.985-0.949,1.016-2.523,0.066-3.51c-0.46-0.478-1.078-0.748-1.741-0.76
						C481.882,124.441,481.865,124.441,481.85,124.441z"/>
				</g>
				<g>
					<path style="fill:#111111;" d="M315.42,199.567c-0.022,0-0.044,0-0.066-0.001l-7.214-0.137
						c-0.93-0.018-1.797-0.396-2.442-1.066c-0.645-0.67-0.991-1.551-0.973-2.481c0.018-0.93,0.397-1.798,1.066-2.443
						c0.67-0.645,1.585-0.978,2.481-0.973l7.214,0.137c1.92,0.037,3.452,1.628,3.416,3.547
						C318.866,198.048,317.31,199.567,315.42,199.567z M308.206,193.466c-1.347,0-2.456,1.083-2.482,2.436
						c-0.026,1.368,1.066,2.502,2.435,2.528l7.214,0.137c1.409,0.031,2.503-1.066,2.529-2.435l0,0
						c0.026-1.369-1.066-2.503-2.434-2.529l-7.214-0.137C308.237,193.466,308.221,193.466,308.206,193.466z"/>
					<path style="fill:#111111;" d="M507.399,203.576c-0.022,0-0.045,0-0.067-0.001l-8.92-0.169
						c-0.93-0.017-1.798-0.396-2.442-1.066c-0.646-0.67-0.991-1.551-0.974-2.481c0.018-0.93,0.396-1.798,1.066-2.443
						c0.67-0.646,1.558-1.002,2.481-0.973l8.92,0.169c0.93,0.018,1.798,0.396,2.442,1.066c0.646,0.67,0.991,1.551,0.974,2.481
						C510.844,202.057,509.289,203.576,507.399,203.576z M498.477,197.443c-0.646,0-1.254,0.245-1.721,0.694
						c-0.478,0.46-0.747,1.079-0.76,1.741c-0.013,0.663,0.233,1.291,0.693,1.769c0.46,0.477,1.079,0.747,1.742,0.76l8.92,0.169
						c0.016,0.001,0.031,0.001,0.048,0.001c1.347,0,2.455-1.083,2.48-2.435l0.5,0.009l-0.5-0.009
						c0.013-0.663-0.233-1.292-0.693-1.769c-0.46-0.478-1.079-0.747-1.742-0.76l-8.92-0.169
						C498.509,197.443,498.492,197.443,498.477,197.443z"/>
				</g>
				<g>
					<path style="fill:#111111;" d="M405.73,301.1c-0.022,0-0.045-0.001-0.067-0.001c-1.919-0.036-3.451-1.628-3.415-3.548
						l0.136-7.214c0.037-1.92,1.61-3.407,3.549-3.415l0,0c1.919,0.036,3.451,1.628,3.415,3.548l-0.137,7.214
						C409.175,299.58,407.62,301.1,405.73,301.1z M405.865,287.921c-1.347,0-2.455,1.083-2.481,2.436l-0.136,7.214
						c-0.013,0.662,0.233,1.291,0.693,1.769c0.46,0.478,1.078,0.747,1.741,0.76c0.66-0.017,1.29-0.234,1.769-0.693
						c0.477-0.46,0.747-1.078,0.76-1.741l0.137-7.214c0.013-0.662-0.233-1.291-0.693-1.769c-0.46-0.478-1.078-0.747-1.741-0.76
						C405.897,287.922,405.882,287.921,405.865,287.921z"/>
					<path style="fill:#111111;" d="M409.708,110.828c-0.023,0-0.046,0-0.068,0c-0.93-0.018-1.797-0.396-2.442-1.066
						c-0.645-0.67-0.99-1.551-0.973-2.481l0.169-8.92c0.018-0.93,0.396-1.797,1.065-2.443c0.671-0.645,1.546-1.008,2.482-0.973
						c1.919,0.037,3.451,1.628,3.415,3.547l-0.169,8.92c-0.018,0.93-0.397,1.797-1.066,2.443
						C411.467,110.483,410.612,110.828,409.708,110.828z M409.874,95.943c-0.646,0-1.255,0.246-1.721,0.694
						c-0.478,0.46-0.748,1.078-0.76,1.741l-0.169,8.92c-0.013,0.663,0.233,1.291,0.693,1.769c0.46,0.478,1.078,0.748,1.741,0.76
						c0.65,0.014,1.29-0.234,1.769-0.694c0.478-0.46,0.747-1.078,0.76-1.741l0.169-8.92c0.013-0.663-0.233-1.291-0.693-1.769
						c-0.46-0.478-1.078-0.747-1.741-0.76C409.906,95.943,409.89,95.943,409.874,95.943z"/>
				</g>
			</g>
			<g>
				<path style="fill:#111111;" d="M406.93,197.844L406.93,197.844c1.818,0.031,3.317-1.418,3.348-3.237l0.967-57.134
					c0.031-1.818-1.418-3.317-3.237-3.348l0,0c-1.818-0.031-3.317,1.418-3.348,3.237l-0.966,57.134
					C403.662,196.314,405.111,197.813,406.93,197.844z"/>
				<path style="fill:#111111;" d="M408.826,197.46L408.826,197.46c1.286-1.286,1.286-3.371,0-4.657l-33.762-33.762
					c-1.286-1.286-3.371-1.286-4.657,0l0,0c-1.286,1.286-1.286,3.371,0,4.657l33.762,33.762
					C405.455,198.747,407.54,198.747,408.826,197.46z"/>
			</g>
			
				<ellipse transform="matrix(0.6845 -0.729 0.729 0.6845 -15.7109 359.7392)" style="fill:#748BE9;" cx="407.74" cy="198.02" rx="11.937" ry="11.937"/>
			<g>
				<path style="fill:#748BE9;" d="M402.972,202.742c2.608,2.709,6.918,2.79,9.627,0.182c2.709-2.608,2.79-6.918,0.182-9.627
					c-2.608-2.709-6.918-2.791-9.627-0.182C400.446,195.723,400.364,200.033,402.972,202.742z"/>
				<path style="fill:#111111;" d="M407.881,205.329c-0.048,0-0.095-0.001-0.143-0.001c-1.952-0.037-3.772-0.832-5.126-2.238
					c-1.355-1.406-2.079-3.255-2.043-5.208c0.037-1.952,0.832-3.772,2.238-5.126c1.406-1.354,3.264-2.073,5.208-2.042
					c1.951,0.037,3.772,0.831,5.126,2.238c2.795,2.903,2.707,7.539-0.195,10.335C411.574,204.606,409.78,205.329,407.881,205.329z
					 M407.874,191.711c-1.64,0-3.189,0.624-4.373,1.764c-1.214,1.168-1.899,2.74-1.932,4.425c-0.031,1.685,0.595,3.281,1.764,4.495
					l0,0c1.168,1.214,2.739,1.9,4.425,1.932c1.713,0.03,3.281-0.595,4.495-1.763c2.505-2.413,2.581-6.415,0.168-8.921
					c-1.168-1.214-2.739-1.899-4.425-1.932C407.956,191.712,407.915,191.711,407.874,191.711z"/>
			</g>
		</g>
		<path style="fill:#111111;" d="M445.605,425.045l10.267-15.581c1.295-1.966,0.752-4.61-1.214-5.905l-9.876-6.508
			c-1.496-0.986-2.24-2.808-1.801-4.546c0.466-1.846,0.824-3.708,1.073-5.577c0.237-1.777,1.602-3.195,3.358-3.556l11.585-2.382
			c2.306-0.474,3.791-2.728,3.317-5.034l-3.757-18.277c-0.474-2.306-2.728-3.791-5.034-3.317l-11.585,2.382
			c-1.756,0.361-3.57-0.404-4.489-1.943c-0.966-1.619-2.029-3.189-3.186-4.701c-1.089-1.423-1.124-3.391-0.138-4.888l6.508-9.876
			c1.296-1.966,0.752-4.61-1.214-5.905l-15.581-10.267c-1.966-1.295-4.61-0.752-5.905,1.214l-6.508,9.876
			c-0.986,1.496-2.808,2.24-4.546,1.801c-1.846-0.467-3.708-0.824-5.577-1.073c-1.777-0.237-3.195-1.602-3.557-3.358l-2.382-11.585
			c-0.474-2.306-2.728-3.791-5.034-3.317l-18.277,3.757c-2.306,0.474-3.791,2.728-3.317,5.034l2.382,11.585
			c0.361,1.756-0.404,3.57-1.943,4.489c-1.619,0.966-3.189,2.029-4.701,3.186c-1.423,1.089-3.391,1.124-4.887,0.138l-9.876-6.508
			c-1.966-1.296-4.61-0.752-5.905,1.214l-10.267,15.581c-1.296,1.966-0.752,4.61,1.214,5.905l9.876,6.508
			c1.496,0.986,2.24,2.808,1.801,4.546c-0.466,1.846-0.824,3.708-1.073,5.577c-0.237,1.777-1.602,3.195-3.358,3.557l-11.585,2.382
			c-2.306,0.474-3.791,2.728-3.317,5.034l3.757,18.277c0.474,2.306,2.728,3.791,5.034,3.317l11.585-2.382
			c1.756-0.361,3.57,0.404,4.489,1.944c0.966,1.619,2.029,3.189,3.186,4.701c1.089,1.423,1.124,3.391,0.138,4.887l-6.508,9.876
			c-1.296,1.966-0.752,4.61,1.214,5.905l15.581,10.267c1.966,1.296,4.61,0.752,5.905-1.214l6.508-9.876
			c0.986-1.496,2.808-2.24,4.546-1.801c1.846,0.467,3.708,0.824,5.577,1.073c1.777,0.237,3.195,1.602,3.557,3.358l2.382,11.585
			c0.474,2.306,2.728,3.791,5.034,3.317l18.277-3.757c2.306-0.474,3.791-2.728,3.317-5.034l-2.382-11.585
			c-0.361-1.756,0.404-3.57,1.943-4.489c1.619-0.966,3.189-2.029,4.701-3.186c1.423-1.089,3.391-1.124,4.887-0.138l9.876,6.508
			C441.666,427.555,444.309,427.011,445.605,425.045z M380.064,405.285c-14.813-8.72-18.829-28.254-8.656-42.11
			c8.71-11.864,25.255-15.265,37.939-7.799c14.813,8.72,18.829,28.254,8.656,42.11C409.293,409.35,392.747,412.751,380.064,405.285z
			"/>
	</g>
	<g>
		<g>
			<g>
				<polygon style="fill:#FFA485;" points="246.822,399.612 238.008,410.029 256.27,424.658 264.913,415.776 				"/>
				<g>
					<path style="fill:#748BE9;" d="M258.741,424.847l-0.028,4.874l0.264,28.082c0.017,1.859-2.277,2.749-3.518,1.364
						l-31.136-34.757c-0.832-0.928-0.739-2.359,0.205-3.172l16.117-14.759L258.741,424.847z"/>
					<path style="fill:#111111;" d="M227.03,422.015c-0.831-0.928-0.739-2.359,0.206-3.172l13.453-12.32l-16.16,14.716
						c-0.945,0.813-1.037,2.244-0.206,3.172l31.137,34.757c1.24,1.385,3.535,0.495,3.517-1.364l-0.005-0.503
						c-0.29-0.108-0.569-0.265-0.806-0.529L227.03,422.015z"/>
					<path style="fill:#FFFFFF;" d="M254.64,453.096c-0.136,0-0.272-0.056-0.371-0.164l-29.138-32.195
						c-0.186-0.205-0.169-0.521,0.035-0.707c0.205-0.184,0.52-0.169,0.706,0.035l29.138,32.195c0.186,0.205,0.169,0.522-0.035,0.707
						C254.88,453.053,254.76,453.096,254.64,453.096z"/>
					<path style="fill:#FFFFFF;" d="M239.972,424.844c-0.331,0-0.664-0.038-0.994-0.114c-1.132-0.264-2.093-0.952-2.707-1.939
						c-0.614-0.985-0.807-2.152-0.544-3.284c0.264-1.132,0.952-2.093,1.938-2.707c0.987-0.613,2.153-0.804,3.285-0.544
						c1.132,0.264,2.093,0.952,2.707,1.939c0.614,0.985,0.807,2.152,0.544,3.284c-0.264,1.132-0.952,2.093-1.938,2.707l0,0
						C241.564,424.62,240.775,424.844,239.972,424.844z M239.958,417.141c-0.619,0-1.226,0.173-1.764,0.508
						c-0.76,0.473-1.29,1.213-1.493,2.084c-0.203,0.872-0.054,1.771,0.418,2.529c0.473,0.761,1.213,1.291,2.085,1.493
						c0.873,0.204,1.771,0.054,2.53-0.419l0,0c0.76-0.473,1.29-1.213,1.493-2.084c0.203-0.872,0.054-1.771-0.419-2.529
						c-0.473-0.761-1.213-1.291-2.085-1.493C240.469,417.17,240.212,417.141,239.958,417.141z"/>
					<path style="fill:#FFFFFF;" d="M252.93,430.236c-0.275,0-0.499-0.223-0.5-0.499c0-0.275,0.223-0.5,0.499-0.501l5.784-0.015
						c0.001,0,0.001,0,0.001,0c0.275,0,0.5,0.223,0.5,0.499c0.001,0.275-0.223,0.5-0.499,0.501l-5.784,0.015
						C252.931,430.236,252.93,430.236,252.93,430.236z"/>
					<path style="fill:#FFFFFF;" d="M252.878,434.645c-0.275,0-0.5-0.223-0.5-0.499c-0.001-0.275,0.223-0.5,0.499-0.501l5.783-0.015
						c0.001,0,0.001,0,0.001,0c0.275,0,0.5,0.223,0.5,0.499c0.001,0.275-0.223,0.5-0.499,0.501l-5.783,0.015
						C252.879,434.645,252.878,434.645,252.878,434.645z"/>
					<path style="fill:#FFFFFF;" d="M252.734,438.878c-0.275,0-0.499-0.223-0.5-0.499c0-0.275,0.223-0.5,0.499-0.501l5.783-0.015
						c0,0,0.001,0,0.001,0c0.275,0,0.5,0.223,0.5,0.499c0.001,0.275-0.223,0.5-0.499,0.501l-5.783,0.015
						C252.735,438.878,252.734,438.878,252.734,438.878z"/>
					<path style="fill:#FFFFFF;" d="M257.085,426.78c-0.108,0-0.208-0.017-0.299-0.05c-0.178-0.066-0.313-0.217-0.371-0.412
						c-0.315-1.07,2.125-6.396,2.635-7.077h0c0.825-1.101,2.394-1.326,3.497-0.501c1.102,0.826,1.326,2.396,0.501,3.498
						C262.811,422.554,258.853,426.78,257.085,426.78z M257.38,426.06h0.01H257.38z M259.851,419.841
						c-0.558,0.744-2.179,4.617-2.439,5.898c1.102-0.423,4.078-3.089,4.835-4.1c0.495-0.661,0.36-1.603-0.3-2.098
						C261.287,419.046,260.347,419.182,259.851,419.841L259.851,419.841z"/>
					<path style="fill:#FFFFFF;" d="M263.239,430.708c-0.239,0-0.483-0.034-0.724-0.107c-0.297-0.091-6.286-3.22-5.947-4.409
						c0.048-0.168,0.174-0.405,0.504-0.586c1.355-0.737,5.958-0.069,6.895,0.214h0c1.318,0.401,2.064,1.8,1.664,3.117
						C265.305,430.013,264.311,430.708,263.239,430.708z M257.691,426.408c0.852,0.811,4.2,2.957,5.115,3.235
						c0.789,0.24,1.628-0.209,1.869-0.998c0.24-0.79-0.207-1.629-0.998-1.869C262.486,426.415,258.681,426.056,257.691,426.408z"/>
				</g>
			</g>
			<g>
				<polygon style="fill:#FFA485;" points="205.893,370.186 194.764,378.083 208.812,396.795 219.393,390.343 				"/>
				<g>
					<path style="fill:#748BE9;" d="M211.158,397.594l-1.24,4.714l-6.731,27.265c-0.446,1.805-2.889,2.096-3.746,0.446
						l-21.51-41.411c-0.575-1.106-0.129-2.468,0.988-3.021l19.282-10.285L211.158,397.594z"/>
					<path style="fill:#111111;" d="M181.149,386.96c-0.574-1.106-0.129-2.468,0.988-3.021l16.095-8.586l-19.313,10.233
						c-1.117,0.553-1.563,1.915-0.988,3.021l21.51,41.411c0.857,1.65,3.301,1.359,3.746-0.446l0.12-0.488
						c-0.254-0.176-0.486-0.399-0.649-0.713L181.149,386.96z"/>
					<path style="fill:#FFFFFF;" d="M200.283,423.949c-0.18,0-0.354-0.097-0.443-0.268l-20.211-38.433
						c-0.129-0.244-0.035-0.547,0.21-0.675c0.245-0.129,0.547-0.036,0.675,0.21l20.211,38.433c0.129,0.244,0.035,0.547-0.21,0.675
						C200.441,423.931,200.362,423.949,200.283,423.949z"/>
					<path style="fill:#FFFFFF;" d="M194.059,393.054c-1.849,0-3.568-1.189-4.153-3.042c-0.72-2.288,0.555-4.736,2.842-5.457
						c1.109-0.349,2.287-0.246,3.317,0.291c1.031,0.536,1.79,1.442,2.14,2.551c0.721,2.287-0.554,4.734-2.841,5.456l0,0
						C194.929,392.989,194.49,393.054,194.059,393.054z M195.212,392.376h0.01H195.212z M194.059,385.352
						c-0.338,0-0.679,0.052-1.01,0.156c-1.762,0.556-2.743,2.441-2.188,4.203c0.555,1.762,2.441,2.739,4.202,2.189l0,0
						c1.762-0.556,2.744-2.441,2.188-4.202c-0.269-0.853-0.854-1.552-1.648-1.965C195.118,385.479,194.59,385.352,194.059,385.352z"
						/>
					<path style="fill:#FFFFFF;" d="M209.919,402.808c-0.041,0-0.083-0.005-0.124-0.016l-5.605-1.424
						c-0.268-0.067-0.43-0.34-0.361-0.607c0.067-0.269,0.343-0.434,0.607-0.361l5.605,1.424c0.268,0.067,0.43,0.34,0.361,0.607
						C210.346,402.657,210.142,402.808,209.919,402.808z"/>
					<path style="fill:#FFFFFF;" d="M208.771,407.064c-0.041,0-0.083-0.005-0.124-0.016l-5.605-1.424
						c-0.268-0.067-0.43-0.34-0.361-0.607c0.067-0.269,0.342-0.431,0.607-0.361l5.605,1.424c0.268,0.067,0.43,0.34,0.361,0.607
						C209.198,406.913,208.995,407.064,208.771,407.064z"/>
					<path style="fill:#FFFFFF;" d="M207.579,411.129c-0.041,0-0.083-0.005-0.124-0.016l-5.605-1.425
						c-0.268-0.067-0.43-0.34-0.361-0.607c0.067-0.269,0.343-0.433,0.607-0.361l5.605,1.425c0.268,0.067,0.43,0.34,0.361,0.608
						C208.006,410.978,207.802,411.129,207.579,411.129z"/>
					<path style="fill:#FFFFFF;" d="M209.452,399.097c-0.267,0-0.491-0.051-0.655-0.166c-0.156-0.108-0.25-0.287-0.257-0.491
						c-0.039-1.117,3.65-5.667,4.313-6.198c0.521-0.418,1.174-0.606,1.836-0.535c0.664,0.073,1.259,0.399,1.676,0.921
						c0.417,0.52,0.607,1.172,0.535,1.835c-0.073,0.663-0.399,1.259-0.92,1.676C215.691,396.368,211.411,399.096,209.452,399.097z
						 M214.413,392.691c-0.339,0-0.666,0.114-0.934,0.329l0,0c-0.726,0.582-3.259,3.93-3.829,5.105
						c1.172-0.136,4.718-1.978,5.703-2.768c0.312-0.251,0.508-0.607,0.552-1.006c0.043-0.397-0.07-0.788-0.321-1.1
						c-0.251-0.313-0.607-0.508-1.005-0.552C214.523,392.694,214.468,392.691,214.413,392.691z M213.165,392.631h0.01H213.165z"/>
					<path style="fill:#FFFFFF;" d="M214.676,404.468c-0.442,0-0.889-0.117-1.294-0.363c-0.266-0.161-5.288-4.683-4.664-5.75
						c0.088-0.15,0.27-0.349,0.635-0.441c1.498-0.386,5.789,1.415,6.625,1.924l0,0c1.177,0.715,1.552,2.255,0.836,3.432
						C216.345,404.041,215.52,404.468,214.676,404.468z M209.753,398.845c0.623,0.997,3.332,3.908,4.149,4.406
						c0.704,0.429,1.628,0.203,2.058-0.502c0.429-0.706,0.205-1.629-0.501-2.059h0C214.396,400.044,210.798,398.733,209.753,398.845
						z"/>
				</g>
			</g>
			<g>
				<path style="fill:#111111;" d="M338.326,319.058l-12.951-58.577l-33.954-2.376l-31.721-7.942
					c-1.077-0.27-2.184,0.31-2.578,1.347l-5.078,13.398c-3.311,8.737-4.104,18.227-2.288,27.392l5.485,27.633
					c0.148,0.747-0.102,1.517-0.662,2.034l-50.956,47.068c-0.756,0.699-0.923,1.83-0.401,2.717l12.284,20.882
					c0.624,1.061,2.001,1.399,3.045,0.746l55.081-34.399l-28.656,39.155c-0.788,1.076-0.623,2.576,0.379,3.456l18.22,16.001
					c1.052,0.924,2.648,0.838,3.595-0.192l63.684-69.257C337.836,340.193,340.611,329.39,338.326,319.058z"/>
				<path style="fill:#FFFFFF;" d="M261.862,369.498c-0.145,0-0.288-0.063-0.387-0.183c-0.175-0.214-0.144-0.529,0.07-0.704
					l29.803-24.429c6.515-5.085,13.048-15.208,12.342-23.97l-7.666-45.322c-0.046-0.271,0.138-0.53,0.41-0.576
					c0.277-0.051,0.53,0.138,0.577,0.41l7.671,45.365c0.739,9.153-5.998,19.636-12.709,24.874l-29.794,24.421
					C262.086,369.461,261.974,369.498,261.862,369.498z"/>
			</g>
		</g>
		<g>
			<g>
				<g>
					<g>
						<path style="fill:#FFA485;" d="M391.032,171.285l-5.581-5.792l-1.496-0.992c-1.933-1.282-4.53-0.837-5.925,1.016l-1.896,2.518
							l-0.165-0.229l-1.435-5.386c-0.291-1.092-1.242-1.88-2.369-1.963l-0.443-0.033c-0.779-0.057-1.417,0.611-1.323,1.387
							l0.896,7.409l0.024,5.31c0.003,0.734,0.208,1.4,0.549,1.967l-0.064,0.068l-21.167,22.482l-11.905-19.229l-13.895,40.611
							l4.437,7.847c7.548,14.643,28.526,14.52,35.902-0.21l17.3-34.549l9.241-12.961
							C393.75,177.703,393.462,173.807,391.032,171.285z"/>
						<g>
							<line style="fill:#FFA485;" x1="351.214" y1="198.433" x2="344.282" y2="206.025"/>
							<path style="fill:#E06A4B;" d="M344.282,206.525c-0.121,0-0.241-0.043-0.337-0.131c-0.204-0.186-0.219-0.502-0.032-0.706
								l6.932-7.592c0.187-0.205,0.503-0.219,0.706-0.032c0.204,0.186,0.219,0.502,0.032,0.706l-6.932,7.592
								C344.553,206.47,344.417,206.525,344.282,206.525z"/>
						</g>
						<path style="fill:#111111;" d="M403.068,187.046l-28.005-28.005c-1.286-1.286-3.371-1.286-4.657,0
							c-1.286,1.286-1.286,3.371,0,4.657l27.522,27.522c0.442-0.637,0.951-1.241,1.531-1.799
							C400.539,188.382,401.767,187.599,403.068,187.046z"/>
						<g>
							<path style="fill:#FFA485;" d="M388.67,165.792c-0.672-0.587-1.71-0.428-2.174,0.334l-1.252,2.054l-4.289,7.018
								c-0.606,0.992-0.413,2.275,0.457,3.045l0.581,0.514c0.342,0.303,0.872,0.24,1.133-0.135l6.682-9.577
								c0.543-0.818,0.396-1.911-0.343-2.558L388.67,165.792z"/>
							<path style="fill:#E06A4B;" d="M382.499,179.449c-0.307,0-0.605-0.112-0.837-0.317l-0.582-0.514
								c-1.054-0.932-1.286-2.48-0.553-3.68l5.542-9.072c0.298-0.489,0.794-0.82,1.36-0.907c0.564-0.086,1.138,0.08,1.569,0.456
								l0.796,0.695c0.924,0.809,1.107,2.189,0.43,3.211l-6.688,9.587c-0.206,0.296-0.53,0.49-0.888,0.532
								C382.599,179.446,382.549,179.449,382.499,179.449z M387.725,165.936c-0.048,0-0.096,0.003-0.143,0.011
								c-0.273,0.042-0.514,0.202-0.658,0.439l-5.542,9.073c-0.48,0.786-0.328,1.799,0.361,2.41l0.582,0.514
								c0.076,0.068,0.162,0.068,0.206,0.064c0.044-0.005,0.127-0.026,0.185-0.111l6.682-9.577c0.396-0.597,0.287-1.416-0.261-1.896
								l-0.796-0.695C388.168,166.017,387.95,165.936,387.725,165.936z"/>
						</g>
						<g>
							<path style="fill:#FFA485;" d="M385.243,162.799c-1.144-0.859-2.789-0.459-3.41,0.83l-0.372,0.771l-4.058,7.719
								c-0.531,1.034-0.243,2.299,0.682,3.002l0.618,0.469c0.364,0.276,0.887,0.174,1.12-0.219l5.952-10.048
								C386.255,164.469,386.028,163.389,385.243,162.799L385.243,162.799z"/>
							<path style="fill:#E06A4B;" d="M379.167,176.247c-0.274,0-0.544-0.089-0.766-0.257l-0.618-0.47
								c-1.12-0.851-1.467-2.377-0.825-3.628l4.424-8.479c0.361-0.751,1.033-1.293,1.842-1.49c0.809-0.198,1.655-0.022,2.319,0.477
								h0.001c0.98,0.737,1.268,2.099,0.668,3.169l-5.958,10.059c-0.184,0.309-0.491,0.527-0.844,0.596
								C379.329,176.239,379.248,176.247,379.167,176.247z M383.881,162.844c-0.141,0-0.281,0.017-0.421,0.051
								c-0.518,0.126-0.946,0.473-1.178,0.952l-0.371,0.771l-4.065,7.735c-0.418,0.815-0.19,1.815,0.543,2.372l0.617,0.469
								c0.082,0.062,0.167,0.056,0.211,0.049c0.044-0.008,0.124-0.036,0.176-0.124l5.952-10.048c0.351-0.625,0.18-1.434-0.402-1.871
								C384.632,162.966,384.26,162.844,383.881,162.844z"/>
						</g>
						<g>
							<path style="fill:#FFA485;" d="M391.371,168.859c-0.479-0.419-1.221-0.305-1.552,0.238l-1.619,2.656l-3.522,5.762
								c-0.544,0.891-0.371,2.043,0.411,2.735l0.522,0.462c0.307,0.272,0.783,0.215,1.018-0.121l6.002-8.602
								c0.488-0.735,0.356-1.717-0.308-2.298L391.371,168.859z"/>
							<path style="fill:#E06A4B;" d="M386.065,181.384c-0.288,0-0.568-0.105-0.786-0.298l-0.522-0.461
								c-0.965-0.853-1.179-2.27-0.507-3.37l5.142-8.418c0.234-0.385,0.625-0.645,1.07-0.714c0.45-0.068,0.898,0.063,1.237,0.36
								l0.951,0.832c0.85,0.743,1.02,2.011,0.395,2.951l-6.007,8.611c-0.194,0.278-0.499,0.46-0.835,0.5
								C386.158,181.381,386.111,181.384,386.065,181.384z M390.698,169.105c-0.027,0-0.056,0.002-0.083,0.006
								c-0.156,0.024-0.287,0.111-0.369,0.246l-5.142,8.419c-0.418,0.685-0.286,1.567,0.315,2.099l0.522,0.462
								c0.054,0.047,0.114,0.052,0.145,0.045c0.031-0.003,0.09-0.019,0.132-0.079l6.001-8.602c0.342-0.514,0.247-1.221-0.227-1.635
								l-0.951-0.831C390.944,169.149,390.824,169.105,390.698,169.105z"/>
						</g>
						<g>
							<path style="fill:#FFA485;" d="M392.981,170.681l-0.086,0.15l-5.147,8.421c-0.493,0.807-0.336,1.852,0.372,2.478l0.473,0.418
								c0.279,0.246,0.709,0.195,0.922-0.11l5.438-7.794c0.442-0.666,0.323-1.556-0.279-2.082L392.981,170.681z"/>
							<path style="fill:#E06A4B;" d="M389.006,182.804c-0.272,0-0.538-0.099-0.744-0.281l-0.473-0.418
								c-0.892-0.789-1.088-2.099-0.468-3.113l5.532-9.086l2.15,1.881c0.787,0.689,0.944,1.864,0.365,2.735l-5.443,7.804
								c-0.184,0.262-0.47,0.434-0.787,0.472C389.094,182.801,389.05,182.804,389.006,182.804z M393.102,171.451l-4.927,8.062
								c-0.367,0.601-0.251,1.376,0.276,1.843l0.473,0.418c0.033,0.03,0.068,0.033,0.096,0.03c0.025-0.003,0.061-0.014,0.086-0.052
								l5.438-7.794c0.296-0.445,0.214-1.06-0.197-1.419L393.102,171.451z"/>
						</g>
					</g>
					<g>
						<path style="fill:#EB8D2E;" d="M338.351,179.118c-2.599-4.044-6.516-7.065-11.086-8.555l-19.317-6.295l-0.723-0.294
							c-0.63-0.257-1.265-0.475-1.902-0.674l-0.001-0.02l-0.354-0.092c-0.517-0.153-1.034-0.289-1.553-0.404l-13.13-3.42
							c-9.593-1.834-19.273,2.731-23.961,11.3l-9.148,15.39c-0.843,1.418-0.256,3.254,1.254,3.92l12.365,5.456l-17.904,60.492
							c-0.888,3.002,1.232,6.054,4.355,6.269l65.669,4.518c3.59,0.247,6.486-2.891,5.953-6.45l-5.359-35.776L338.351,179.118z"/>
						<polygon style="fill:#E5740E;" points="347.748,194.382 324.566,221.252 338.351,179.118 						"/>
					</g>
					<g>
						<path style="fill:#111111;" d="M373.568,259.121l-4.438-13.396c-0.56-1.69-2.384-2.606-4.074-2.046l-8.491,2.813
							c-1.286,0.426-2.717,0.014-3.542-1.061c-0.877-1.142-1.815-2.227-2.808-3.25c-0.944-0.974-1.146-2.448-0.538-3.66l4.015-7.993
							c0.799-1.591,0.157-3.529-1.434-4.328l-12.611-6.334c-1.591-0.799-3.529-0.157-4.328,1.434l-4.015,7.993
							c-0.609,1.212-1.912,1.93-3.257,1.754c-1.414-0.185-2.844-0.29-4.284-0.311c-1.355-0.021-2.54-0.922-2.966-2.208l-2.813-8.491
							c-0.56-1.69-2.384-2.606-4.074-2.046l-13.396,4.438c-1.69,0.56-2.607,2.384-2.047,4.074l2.813,8.491
							c0.426,1.286,0.014,2.717-1.061,3.542c-1.142,0.877-2.227,1.815-3.25,2.808c-0.974,0.944-2.448,1.146-3.66,0.538l-7.993-4.015
							c-1.591-0.799-3.529-0.157-4.328,1.434l-6.334,12.611c-0.799,1.591-0.157,3.529,1.434,4.328l7.993,4.015
							c1.212,0.609,1.93,1.913,1.754,3.257c-0.185,1.414-0.29,2.844-0.311,4.284c-0.021,1.355-0.922,2.54-2.208,2.966l-8.491,2.813
							c-1.69,0.56-2.607,2.384-2.047,4.074l4.438,13.396c0.56,1.69,2.384,2.606,4.074,2.046l8.491-2.813
							c1.286-0.426,2.717-0.014,3.542,1.061c0.877,1.142,1.815,2.227,2.808,3.25c0.944,0.973,1.146,2.448,0.538,3.66l-4.015,7.993
							c-0.799,1.591-0.157,3.529,1.434,4.328l12.611,6.334c1.591,0.799,3.529,0.157,4.328-1.434l4.015-7.993
							c0.609-1.212,1.913-1.93,3.257-1.754c1.414,0.185,2.844,0.29,4.284,0.311c1.355,0.021,2.54,0.922,2.966,2.208l2.813,8.491
							c0.56,1.69,2.384,2.606,4.074,2.046l13.396-4.438c1.69-0.56,2.607-2.384,2.047-4.074l-2.813-8.491
							c-0.426-1.286-0.014-2.717,1.06-3.542c1.142-0.877,2.227-1.815,3.25-2.807c0.974-0.944,2.448-1.146,3.66-0.538l7.993,4.015
							c1.591,0.799,3.529,0.157,4.328-1.434l6.334-12.611c0.799-1.591,0.157-3.529-1.434-4.328l-7.993-4.015
							c-1.212-0.609-1.93-1.913-1.754-3.257c0.185-1.414,0.29-2.844,0.312-4.284c0.021-1.355,0.922-2.54,2.208-2.966l8.491-2.813
							C373.212,262.636,374.128,260.811,373.568,259.121z M329.127,287.769c-12.117,4.708-25.595-2.062-29.054-14.593
							c-2.961-10.73,2.772-22.145,13.148-26.176c12.117-4.708,25.595,2.062,29.054,14.593
							C345.236,272.323,339.502,283.738,329.127,287.769z"/>
						<path style="fill:#C9D5E1;" d="M370.432,259.974l-4.438-13.396c-0.56-1.69-2.384-2.606-4.074-2.046l-8.491,2.813
							c-1.286,0.426-2.717,0.014-3.542-1.061c-0.877-1.142-1.815-2.227-2.807-3.25c-0.944-0.974-1.146-2.448-0.538-3.66l4.015-7.993
							c0.799-1.591,0.157-3.529-1.434-4.328l-12.611-6.334c-1.591-0.799-3.529-0.157-4.328,1.434l-4.015,7.993
							c-0.609,1.212-1.912,1.93-3.257,1.754c-1.414-0.185-2.844-0.29-4.284-0.311c-1.355-0.021-2.54-0.922-2.966-2.208l-2.813-8.491
							c-0.56-1.69-2.384-2.606-4.074-2.046l-13.396,4.438c-1.69,0.56-2.606,2.384-2.046,4.074l2.813,8.491
							c0.426,1.286,0.014,2.717-1.061,3.542c-1.142,0.877-2.227,1.815-3.25,2.807c-0.974,0.944-2.448,1.146-3.66,0.538l-7.993-4.015
							c-1.591-0.799-3.529-0.157-4.328,1.434l-6.334,12.611c-0.799,1.591-0.157,3.529,1.434,4.328l7.993,4.015
							c1.212,0.609,1.93,1.913,1.754,3.257c-0.185,1.414-0.29,2.844-0.311,4.284c-0.021,1.355-0.922,2.54-2.208,2.966l-8.491,2.813
							c-1.69,0.56-2.606,2.384-2.046,4.074l4.438,13.396c0.56,1.69,2.384,2.607,4.074,2.047l8.491-2.813
							c1.286-0.426,2.717-0.014,3.542,1.061c0.877,1.142,1.815,2.227,2.808,3.25c0.944,0.974,1.146,2.448,0.538,3.66l-4.015,7.993
							c-0.799,1.591-0.157,3.529,1.434,4.328l12.611,6.334c1.591,0.799,3.529,0.157,4.328-1.434l4.015-7.993
							c0.609-1.212,1.913-1.93,3.257-1.754c1.414,0.185,2.844,0.29,4.284,0.312c1.355,0.021,2.54,0.922,2.966,2.208l2.813,8.491
							c0.56,1.69,2.384,2.607,4.074,2.046l13.396-4.438c1.69-0.56,2.606-2.384,2.047-4.074l-2.813-8.491
							c-0.426-1.286-0.014-2.717,1.061-3.542c1.142-0.877,2.227-1.815,3.25-2.808c0.974-0.944,2.448-1.146,3.66-0.538l7.993,4.015
							c1.591,0.799,3.529,0.157,4.328-1.434l6.334-12.611c0.799-1.591,0.157-3.529-1.434-4.328l-7.993-4.015
							c-1.212-0.609-1.93-1.913-1.754-3.257c0.185-1.414,0.29-2.844,0.311-4.284c0.021-1.355,0.922-2.54,2.208-2.966l8.491-2.813
							C370.076,263.489,370.992,261.665,370.432,259.974z M327.991,289.622c-12.117,4.708-25.595-2.062-29.054-14.593
							c-2.961-10.73,2.772-22.145,13.148-26.176c12.117-4.708,25.595,2.062,29.054,14.593
							C344.1,274.176,338.366,285.591,327.991,289.622z"/>
						<g>
							<g>
								<g>
									<path style="fill:#FFA485;" d="M314.413,253.191c-1.229-1.189-2.338-2.291-3.369-3.327
										c1.682-0.116,3.382-0.239,4.907-0.933c0.491-0.224,1-0.562,1.117-1.089c0.09-0.405-0.085-0.833-0.36-1.143
										c-0.275-0.31-0.642-0.523-1.005-0.723c-3.388-1.867-14.155-5.379-14.155-5.379c-1.901-0.428-3.898-0.624-5.858-0.61
										l-19.536-17.337l10.046-20.421l-28.128-12.412l-9.682,31.031c-1.595,7.271,1.751,14.731,8.242,18.376l28.952,16.257
										l0.001-0.001c0.363,0.614,0.77,1.136,1.231,1.506l11.56,9.742c2.035,1.9,5.579,1.396,5.012-0.654
										c1.152,1.831,3.071,3.426,5.162,1.786c1.261-0.771,1.147-1.907,0.624-3.032c1.095,1.647,2.48,3.045,4.319,1.816
										c2.188-1.045,1.701-2.979,0.752-4.68c0.879,1.042,2.016,1.733,3.39,0.82C321.344,259.835,316.824,255.883,314.413,253.191z
										 M307.486,262.108c0.153,0.208,0.313,0.459,0.48,0.734C307.786,262.576,307.618,262.329,307.486,262.108z"/>
									<path style="opacity:0.36;fill:#E06A4B;" d="M311.044,249.863l-6.268-5.312c0,0,8.261,3.903,9.306,4.965L311.044,249.863z"
										/>
								</g>
								<path style="fill:#E06A4B;" d="M314.728,263.039c-0.174,0-0.344-0.091-0.436-0.254c-0.261-0.46-2.434-2.682-3.742-3.975
									c-0.196-0.193-0.198-0.511-0.004-0.707c0.195-0.196,0.511-0.198,0.707-0.004c0.582,0.574,3.503,3.477,3.909,4.193
									c0.136,0.24,0.052,0.545-0.189,0.682C314.896,263.019,314.811,263.039,314.728,263.039z"/>
								<path style="fill:#E06A4B;" d="M309.418,265.664c-0.13,0-0.26-0.05-0.358-0.15l-3.115-3.188
									c-0.193-0.197-0.189-0.515,0.008-0.707c0.198-0.191,0.515-0.19,0.707,0.008l3.115,3.188
									c0.193,0.197,0.189,0.515-0.008,0.707C309.67,265.616,309.544,265.664,309.418,265.664z"/>
								<path style="fill:#E06A4B;" d="M303.391,266.573c-0.133,0-0.267-0.053-0.365-0.158l-1.641-1.754
									c-0.189-0.202-0.178-0.518,0.023-0.707c0.203-0.188,0.518-0.179,0.707,0.023l1.641,1.754
									c0.188,0.202,0.178,0.519-0.023,0.707C303.636,266.528,303.513,266.573,303.391,266.573z"/>
							</g>
							<g>
								<line style="fill:#FFA485;" x1="270.214" y1="216.825" x2="277.711" y2="224.031"/>
								<path style="fill:#E06A4B;" d="M277.711,224.531c-0.125,0-0.25-0.046-0.347-0.14l-7.498-7.206
									c-0.199-0.191-0.205-0.508-0.014-0.707c0.192-0.198,0.507-0.205,0.707-0.014l7.498,7.206
									c0.199,0.191,0.205,0.508,0.014,0.707C277.974,224.48,277.843,224.531,277.711,224.531z"/>
							</g>
						</g>
					</g>
				</g>
				<g>
					<g>
						<g>
							<path style="fill:#111111;" d="M313.986,106.343l-8.952-0.801c-3.332-0.298-6.539,0.656-9.324,2.524
								c-1.017-6.554-6.386-11.816-13.288-12.398c-8.097-0.683-15.214,5.328-15.897,13.424c-0.683,8.097,5.328,15.214,13.424,15.896
								c1.199,0.101,2.371,0.039,3.509-0.138l-0.577,0.926c-5.839,9.371-1.026,22.917,10.75,30.254l6.786,4.229l7.082-11.365
								c3.603-5.782,3.146-13.151-0.495-19.673c3.216-2.341,5.814-5.927,7.292-10.262c0.179,0.334,0.362,0.669,0.579,1.002
								c3.026,4.665,13.613,7.643,15.386,14.313c0,0,2.714-5.418,3.003-11.897C333.728,112.016,324.106,104.096,313.986,106.343z"/>
							<g>
								<g>
									<g>
										<path style="fill:#FFA485;" d="M332.358,141.627l-5.837-21.949c-1.335-5.019-5.78-7.565-10.819-8.392l-0.16,1.783
											c-1.015,11.341-9.252,19.871-18.399,19.052l-1.752-0.157l-1.29,0.056c-3.905,0.17-6.961,3.504-6.791,7.409l0.007,0.162
											c0.17,3.905,3.504,6.961,7.409,6.791l3.4-0.148l-3.177,21.926c-0.698,6.563,5.444,10.998,12.202,11.716l0.28,0.03
											c6.758,0.718,12.858-4.064,13.555-10.626l0.887-8.344l0.276-0.073C330.053,158.76,334.624,150.148,332.358,141.627z"/>
									</g>
									<path style="fill:#E06A4B;" d="M293.691,141.665c-0.162,0-0.321-0.078-0.417-0.223c-0.153-0.23-0.09-0.541,0.14-0.693
										l1.819-1.209l-2.109-2.306c-0.186-0.204-0.172-0.52,0.032-0.706c0.203-0.185,0.52-0.172,0.707,0.032l2.503,2.736
										c0.098,0.108,0.145,0.253,0.127,0.398c-0.018,0.145-0.098,0.275-0.219,0.356l-2.306,1.532
										C293.882,141.638,293.787,141.665,293.691,141.665z"/>
									<path style="fill:#FFFFFF;" d="M293.163,143.779c-0.033,0.624,0.447,1.157,1.072,1.19c0.625,0.033,1.158-0.447,1.191-1.071
										c0.033-0.624-0.447-1.157-1.072-1.19C293.729,142.676,293.196,143.155,293.163,143.779z"/>
								</g>
								<path style="fill:#E06A4B;" d="M321.86,161.053c0,0-12.954,1.107-15.567-3.802c-2.612-4.909,0,0,0,0
									s-0.211,8.246,14.787,11.139L321.86,161.053z"/>
								<g>
									<g>
										<path style="fill:#111111;" d="M328.839,134.467c0.191,0.736-0.251,1.488-0.987,1.678
											c-0.736,0.191-1.487-0.251-1.678-0.987c-0.191-0.736,0.251-1.487,0.987-1.678
											C327.897,133.289,328.648,133.731,328.839,134.467z"/>
										<path style="fill:#111111;" d="M318.727,135.699c-0.001,0.832-0.676,1.506-1.508,1.505c-0.832,0-1.506-0.676-1.505-1.507
											c0.001-0.832,0.675-1.506,1.508-1.505C318.054,134.192,318.728,134.867,318.727,135.699z"/>
										<g>
											<g>
												<path style="fill:#E06A4B;" d="M322.867,154.092c-0.061,0.019-0.128,0.017-0.192-0.008
													c-0.064-0.026-1.606-0.631-2.683,0.604c-0.104,0.119-0.284,0.131-0.404,0.027c-0.12-0.104-0.132-0.285-0.028-0.404
													c1.352-1.548,3.313-0.765,3.333-0.757c0.146,0.06,0.215,0.227,0.155,0.373
													C323.014,154.009,322.946,154.067,322.867,154.092z"/>
											</g>
										</g>
										<g>
											<g>
												<g>
													<g>
														<g>
															<g>
																<path style="fill:#111111;" d="M310.46,130.708c0.548,0.098,1.178-0.115,1.797-0.286
																	c0.621-0.186,1.249-0.357,1.8-0.486c0.552-0.13,1.191-0.257,1.83-0.368c0.632-0.123,1.293-0.214,1.733-0.544
																	c0.427-0.312,0.484-0.931-0.242-1.505c-0.688-0.563-2.241-0.986-4.069-0.561c-1.823,0.433-3.003,1.499-3.348,2.304
																	C309.589,130.096,309.933,130.62,310.46,130.708z"/>
															</g>
														</g>
													</g>
													<g>
														<g>
															<g>
																<path style="fill:#111111;" d="M329.884,128.748c-0.367,0.138-0.816,0.043-1.256-0.02
																	c-0.441-0.074-0.886-0.136-1.274-0.174c-0.389-0.039-0.838-0.065-1.284-0.079c-0.443-0.024-0.904-0.02-1.234-0.227
																	c-0.318-0.194-0.411-0.669,0.038-1.198c0.424-0.516,1.452-1.021,2.74-0.896c1.286,0.131,2.184,0.827,2.489,1.415
																	C330.428,128.173,330.237,128.62,329.884,128.748z"/>
															</g>
														</g>
													</g>
												</g>
											</g>
										</g>
										<g>
											<path style="fill:#FFA485;" d="M315.788,137.389c0,0,1.27-1.064,2.657-0.012"/>
											<path style="fill:#E06A4B;" d="M315.79,137.887c-0.144,0-0.287-0.062-0.385-0.181c-0.175-0.212-0.148-0.524,0.063-0.701
												c0.544-0.457,1.931-1.05,3.28-0.027c0.22,0.167,0.263,0.481,0.096,0.701c-0.168,0.219-0.48,0.263-0.701,0.096
												c-1.024-0.778-1.935-0.083-2.036-0.002C316.014,137.85,315.901,137.887,315.79,137.887z"/>
										</g>
										<g>
											<path style="fill:#FFA485;" d="M326.416,136.401c0,0,1.27-1.064,2.657-0.012"/>
											<path style="fill:#E06A4B;" d="M326.417,136.899c-0.144,0-0.287-0.061-0.386-0.181c-0.175-0.212-0.147-0.524,0.063-0.701
												c0.544-0.457,1.931-1.05,3.28-0.027c0.22,0.167,0.263,0.48,0.096,0.701c-0.167,0.218-0.481,0.263-0.701,0.096
												c-1.025-0.777-1.935-0.083-2.036-0.001C326.642,136.862,326.529,136.899,326.417,136.899z"/>
										</g>
										<path style="fill:#FFFFFF;" d="M315.096,142.001c0,0,2.732,1.764,5.605,2.65c2.873,0.886,0.192,4.815-4.209,3.68
											C312.092,147.195,312.763,141.134,315.096,142.001z"/>
									</g>
									<g>
										<path style="fill:#FFA485;" d="M322.583,132.387l0.124,3.198c0.047,1.22,1.075,2.171,2.295,2.124l0,0
											c0.61-0.024,1.124,0.452,1.148,1.062l0,0c0.076,1.973-1.461,3.635-3.434,3.711l-1.296,0.05"/>
										<path style="fill:#E06A4B;" d="M321.419,143.032c-0.267,0-0.489-0.211-0.499-0.48c-0.011-0.276,0.204-0.508,0.48-0.519
											l1.296-0.05c1.694-0.065,3.02-1.498,2.954-3.192c-0.013-0.333-0.294-0.569-0.629-0.581
											c-0.727,0.027-1.415-0.227-1.946-0.719c-0.531-0.492-0.84-1.161-0.868-1.885l-0.123-3.198
											c-0.011-0.276,0.204-0.508,0.48-0.519c0.28-0.021,0.509,0.204,0.519,0.48l0.123,3.198
											c0.037,0.943,0.824,1.698,1.776,1.644c0.9-0.045,1.632,0.658,1.667,1.542c0.087,2.246-1.669,4.144-3.914,4.23l-1.296,0.05
											C321.432,143.032,321.426,143.032,321.419,143.032z"/>
									</g>
								</g>
							</g>
							
								<path style="fill:none;stroke:#E06A4B;stroke-width:5;stroke-linecap:round;stroke-linejoin:round;stroke-miterlimit:10;" d="
								M293.403,138.856"/>
						</g>
					</g>
				</g>
			</g>
		</g>
	</g>
</g>
</svg>
